<?xml version="1.0" encoding="utf-8"?>
<!-- Generator: Adobe Illustrator 16.0.0, SVG Export Plug-In . SVG Version: 6.00 Build 0)  -->
<!DOCTYPE svg PUBLIC "-//W3C//DTD SVG 1.1//EN" "http://www.w3.org/Graphics/SVG/1.1/DTD/svg11.dtd">
<svg version="1.1" id="Layer_1" xmlns="http://www.w3.org/2000/svg" xmlns:xlink="http://www.w3.org/1999/xlink" x="0px" y="0px"
	 width="595.28px" height="841.89px" viewBox="0 0 595.28 841.89" enable-background="new 0 0 595.28 841.89" xml:space="preserve">
<path fill="#433F3D" d="M241.328,364.896c0,0,5.415,2.491,10.292,9.541c5.188,7.5,8.438,17.063,8.813,22.938
	c0.361,5.664-0.563,9.5-0.563,9.5s-5.586-1.682-10.938-2.438C243.62,403.688,237.12,404,237.12,404s2.5-3.438,4.813-8.125
	c2.195-4.451,3.625-12.375,3.188-18.438C244.669,371.191,241.328,364.896,241.328,364.896z"/>
<path fill="#433F3D" d="M228.183,343.563c0,0,3.781,2.656,8.688,4.125c7.369,2.206,15.083,4.959,19.25,12
	c4.748,8.026,1.75,18.625,1.75,18.625s-1.947-6.855-6.334-11.834c-5.104-5.791-11.791-6.749-16.666-10.666
	C229.462,351.469,228.183,343.563,228.183,343.563z"/>
<path fill="#433F3D" d="M237.214,342.625c0,0-2.375-2.875-2.594-7.313c-0.203-4.109-3.277-5.2-5.5-1.125
	c-1.125,2.063-0.094,4.625,2.781,6.344C234.125,341.861,237.214,342.625,237.214,342.625z"/>
<path fill="#433F3D" d="M356.37,364.896c0,0-5.416,2.491-10.291,9.541c-5.188,7.5-8.438,17.063-8.813,22.938
	c-0.362,5.664,0.563,9.5,0.563,9.5s5.584-1.682,10.938-2.438c5.313-0.75,11.813-0.438,11.813-0.438s-2.5-3.438-4.813-8.125
	c-2.196-4.451-3.625-12.375-3.188-18.438C353.029,371.191,356.37,364.896,356.37,364.896z"/>
<path fill="#433F3D" d="M369.517,343.563c0,0-3.781,2.656-8.688,4.125c-7.37,2.206-15.084,4.959-19.25,12
	c-4.75,8.026-1.75,18.625-1.75,18.625s1.946-6.855,6.333-11.834c5.104-5.791,11.792-6.749,16.667-10.666
	C368.236,351.469,369.517,343.563,369.517,343.563z"/>
<path fill="#433F3D" d="M360.485,342.625c0,0,2.375-2.875,2.594-7.313c0.202-4.109,3.277-5.2,5.5-1.125
	c1.125,2.063,0.094,4.625-2.781,6.344C363.573,341.861,360.485,342.625,360.485,342.625z"/>
<path fill="#433F3D" d="M336.49,409.772c-6.128,1.68-12.986,4.679-19.625,8.5c-6.746,3.882-13.252,8.63-16.875,15.749
	c0,0-0.412,0.702-0.749,0.702c-0.338,0-0.75-0.703-0.75-0.703c-3.623-7.119-10.129-11.867-16.875-15.75
	c-6.639-3.821-13.497-6.82-19.625-8.5c-16.875-4.625-23.688-3.125-23.688-3.125s6.5,3.813,12.625,12.25
	c3.239,4.463,5.529,8.976,8.875,13c2.667,3.208,10.6,7.263,14.063,9.583c1.833,1.229,3.965,2.702,5.438,4.479
	c0.842,1.016,1.229,2.729,1.229,2.729s-2.507-2.303-4.729-3.792c-3.219-2.156-6.188-3.125-6.188-3.125s2.632,3.334,5.125,7.313
	c1.083,1.729,1.475,5.208,2,9.938c0.031,0.281-0.531,3.156,1.563,8.344c1.216,3.014,3.156,4.531,3.156,4.531s-0.5-1.485-0.5-2
	c0-0.531,0.281-1,0.281-1s1,1.625,2.25,3.375s3.844,3.406,3.844,3.406s-0.561,0.167-1.281,0c-0.282-0.065-1.313-0.188-1.313-0.188
	s0.634,2.511,2.313,5.719c2.813,5.375,2.938,8.563,2.938,8.563s0.563-0.37,0.625-1.188c0.063-0.828,0.484-1.172,0.484-1.172
	s0.266,0.266,0.891,0.234s0.969,0.078,0.969,0.078s-2.511,2.401-2.427,10.13c0.038,3.536,0.479,5.654,1.771,8.636
	c1.729,3.989,4.727,4.364,6.938,4.364c2.016,0,5.28-0.114,6.937-4.364c1.181-3.028,1.732-5.1,1.771-8.636
	c0.084-7.729-2.427-10.129-2.427-10.129s0.344-0.109,0.969-0.078s0.891-0.234,0.891-0.234s0.422,0.344,0.484,1.172
	c0.062,0.816,0.625,1.188,0.625,1.188s0.125-3.188,2.938-8.563c1.679-3.209,2.313-5.719,2.313-5.719s-1.03,0.121-1.313,0.188
	c-0.721,0.166-1.281,0-1.281,0s2.594-1.656,3.844-3.406s2.25-3.375,2.25-3.375s0.281,0.469,0.281,1c0,0.515-0.5,2-0.5,2
	s1.939-1.518,3.156-4.531c2.094-5.188,1.531-8.063,1.563-8.344c0.525-4.729,0.916-8.208,2-9.938
	c2.492-3.979,5.125-7.313,5.125-7.313s-2.969,0.969-6.188,3.125c-2.223,1.488-4.729,3.791-4.729,3.791
	c0,0.001,0.387-1.713,1.229-2.729c1.473-1.777,3.604-3.25,5.438-4.479c3.463-2.321,11.396-6.375,14.063-9.584
	c3.346-4.024,5.688-8.5,8.874-13c4.257-6.009,12.625-12.249,12.625-12.249S353.364,405.147,336.49,409.772z M283.199,467.354
	c-1.708-2.25-1.333-4-1.333-4s1.292,1.459,2.583,2.75c1.386,1.387,3.459,2.875,3.459,2.875S284.908,469.604,283.199,467.354z
	 M293.429,499.958c-0.209-2.001-0.094-2.719-0.094-3.406s0.219-1.813,0.219-1.813s0.438,0.719,0.5,2.141
	c0.061,1.374-0.047,1.938-0.016,2.906s0.172,1.766,0.172,1.766S293.616,501.755,293.429,499.958z M297.721,507.772
	c0,0-0.876-0.376-1.542-1.292c-0.667-0.916-1.729-2.291-1.375-4.875c0.296-2.162,1.771-3.708,1.771-3.708s1.167,1.208,1.313,2.646
	c0.146,1.438-0.125,2.646-0.25,4.104S297.721,507.772,297.721,507.772z M298.694,491.302c-0.125,1.938-0.438,5.438-0.438,5.438
	s-1.061-2.97-0.953-5.656c0.094-2.359,1.344-3.609,1.344-3.609S298.819,489.364,298.694,491.302z M298.995,477.838
	c0,0-2.125-16.416-2.125-19.999c0-3.729,1.291-5.083,2.125-8.083c0.563,3.166,2.031,5.176,2.031,8.217
	C301.026,460.64,298.995,477.838,298.995,477.838z M299.787,491.303c-0.125-1.938,0.047-3.828,0.047-3.828s1.25,1.25,1.344,3.609
	c0.107,2.686-0.953,5.655-0.953,5.655S299.912,493.24,299.787,491.303z M302.303,506.48c-0.666,0.916-1.542,1.292-1.542,1.292
	s0.209-1.667,0.084-3.125s-0.396-2.667-0.25-4.104c0.146-1.438,1.313-2.646,1.313-2.646s1.475,1.546,1.771,3.708
	C304.032,504.189,302.97,505.564,302.303,506.48z M305.053,499.958c-0.188,1.797-0.781,1.594-0.781,1.594s0.141-0.797,0.172-1.766
	s-0.076-1.532-0.016-2.906c0.063-1.421,0.5-2.14,0.5-2.14s0.219,1.125,0.219,1.812C305.146,497.239,305.262,497.957,305.053,499.958
	z M315.282,467.355c-1.709,2.25-4.709,1.625-4.709,1.625s2.073-1.49,3.459-2.875c1.291-1.293,2.583-2.75,2.583-2.75
	S316.99,465.105,315.282,467.355z"/>
</svg>
