  0
SECTION
  2
HEADER
  9
$ACADVER
  1
AC1018
  9
$ACADMAINTVER
 70
     0
  9
$DWGCODEPAGE
  3
ANSI_1252
  9
$INSBASE
 10
0.0
 20
0.0
 30
0.0
  9
$EXTMIN
 10
1.000000000000000E+20
 20
1.000000000000000E+20
 30
1.000000000000000E+20
  9
$EXTMAX
 10
-1.000000000000000E+20
 20
-1.000000000000000E+20
 30
-1.000000000000000E+20
  9
$LIMMIN
 10
0.0
 20
0.0
  9
$LIMMAX
 10
12.0
 20
9.0
  9
$ORTHOMODE
 70
     0
  9
$REGENMODE
 70
     1
  9
$FILLMODE
 70
     1
  9
$QTEXTMODE
 70
     0
  9
$MIRRTEXT
 70
     1
  9
$LTSCALE
 40
1.0
  9
$ATTMODE
 70
     1
  9
$TEXTSIZE
 40
0.2
  9
$TRACEWID
 40
0.05
  9
$TEXTSTYLE
  7
Standard
  9
$CLAYER
  8
0
  9
$CELTYPE
  6
ByLayer
  9
$CECOLOR
 62
   256
  9
$CELTSCALE
 40
1.0
  9
$DISPSILH
 70
     0
  9
$DIMSCALE
 40
1.0
  9
$DIMASZ
 40
0.18
  9
$DIMEXO
 40
0.0625
  9
$DIMDLI
 40
0.38
  9
$DIMRND
 40
0.0
  9
$DIMDLE
 40
0.0
  9
$DIMEXE
 40
0.18
  9
$DIMTP
 40
0.0
  9
$DIMTM
 40
0.0
  9
$DIMTXT
 40
0.18
  9
$DIMCEN
 40
0.09
  9
$DIMTSZ
 40
0.0
  9
$DIMTOL
 70
     0
  9
$DIMLIM
 70
     0
  9
$DIMTIH
 70
     1
  9
$DIMTOH
 70
     1
  9
$DIMSE1
 70
     0
  9
$DIMSE2
 70
     0
  9
$DIMTAD
 70
     0
  9
$DIMZIN
 70
     0
  9
$DIMBLK
  1

  9
$DIMASO
 70
     1
  9
$DIMSHO
 70
     1
  9
$DIMPOST
  1

  9
$DIMAPOST
  1

  9
$DIMALT
 70
     0
  9
$DIMALTD
 70
     2
  9
$DIMALTF
 40
25.4
  9
$DIMLFAC
 40
1.0
  9
$DIMTOFL
 70
     0
  9
$DIMTVP
 40
0.0
  9
$DIMTIX
 70
     0
  9
$DIMSOXD
 70
     0
  9
$DIMSAH
 70
     0
  9
$DIMBLK1
  1

  9
$DIMBLK2
  1

  9
$DIMSTYLE
  2
Standard
  9
$DIMCLRD
 70
     0
  9
$DIMCLRE
 70
     0
  9
$DIMCLRT
 70
     0
  9
$DIMTFAC
 40
1.0
  9
$DIMGAP
 40
0.09
  9
$DIMJUST
 70
     0
  9
$DIMSD1
 70
     0
  9
$DIMSD2
 70
     0
  9
$DIMTOLJ
 70
     1
  9
$DIMTZIN
 70
     0
  9
$DIMALTZ
 70
     0
  9
$DIMALTTZ
 70
     0
  9
$DIMUPT
 70
     0
  9
$DIMDEC
 70
     4
  9
$DIMTDEC
 70
     4
  9
$DIMALTU
 70
     2
  9
$DIMALTTD
 70
     2
  9
$DIMTXSTY
  7
Standard
  9
$DIMAUNIT
 70
     0
  9
$DIMADEC
 70
     0
  9
$DIMALTRND
 40
0.0
  9
$DIMAZIN
 70
     0
  9
$DIMDSEP
 70
    46
  9
$DIMATFIT
 70
     3
  9
$DIMFRAC
 70
     0
  9
$DIMLDRBLK
  1

  9
$DIMLUNIT
 70
     2
  9
$DIMLWD
 70
    -2
  9
$DIMLWE
 70
    -2
  9
$DIMTMOVE
 70
     0
  9
$LUNITS
 70
     2
  9
$LUPREC
 70
     4
  9
$SKETCHINC
 40
0.1
  9
$FILLETRAD
 40
0.5
  9
$AUNITS
 70
     0
  9
$AUPREC
 70
     0
  9
$MENU
  1
.
  9
$ELEVATION
 40
0.0
  9
$PELEVATION
 40
0.0
  9
$THICKNESS
 40
0.0
  9
$LIMCHECK
 70
     0
  9
$CHAMFERA
 40
0.5
  9
$CHAMFERB
 40
0.5
  9
$CHAMFERC
 40
1.0
  9
$CHAMFERD
 40
0.0
  9
$SKPOLY
 70
     0
  9
$TDCREATE
 40
2459961.676976088
  9
$TDUCREATE
 40
2459961.468642754
  9
$TDUPDATE
 40
2459961.6769761
  9
$TDUUPDATE
 40
2459961.468642766
  9
$TDINDWG
 40
0.0000000116
  9
$TDUSRTIMER
 40
0.0000000116
  9
$USRTIMER
 70
     1
  9
$ANGBASE
 50
0.0
  9
$ANGDIR
 70
     0
  9
$PDMODE
 70
     0
  9
$PDSIZE
 40
0.0
  9
$PLINEWID
 40
0.0
  9
$SPLFRAME
 70
     0
  9
$SPLINETYPE
 70
     6
  9
$SPLINESEGS
 70
     8
  9
$HANDSEED
  5
54
  9
$SURFTAB1
 70
     6
  9
$SURFTAB2
 70
     6
  9
$SURFTYPE
 70
     6
  9
$SURFU
 70
     6
  9
$SURFV
 70
     6
  9
$UCSBASE
  2

  9
$UCSNAME
  2

  9
$UCSORG
 10
0.0
 20
0.0
 30
0.0
  9
$UCSXDIR
 10
1.0
 20
0.0
 30
0.0
  9
$UCSYDIR
 10
0.0
 20
1.0
 30
0.0
  9
$UCSORTHOREF
  2

  9
$UCSORTHOVIEW
 70
     0
  9
$UCSORGTOP
 10
0.0
 20
0.0
 30
0.0
  9
$UCSORGBOTTOM
 10
0.0
 20
0.0
 30
0.0
  9
$UCSORGLEFT
 10
0.0
 20
0.0
 30
0.0
  9
$UCSORGRIGHT
 10
0.0
 20
0.0
 30
0.0
  9
$UCSORGFRONT
 10
0.0
 20
0.0
 30
0.0
  9
$UCSORGBACK
 10
0.0
 20
0.0
 30
0.0
  9
$PUCSBASE
  2

  9
$PUCSNAME
  2

  9
$PUCSORG
 10
0.0
 20
0.0
 30
0.0
  9
$PUCSXDIR
 10
1.0
 20
0.0
 30
0.0
  9
$PUCSYDIR
 10
0.0
 20
1.0
 30
0.0
  9
$PUCSORTHOREF
  2

  9
$PUCSORTHOVIEW
 70
     0
  9
$PUCSORGTOP
 10
0.0
 20
0.0
 30
0.0
  9
$PUCSORGBOTTOM
 10
0.0
 20
0.0
 30
0.0
  9
$PUCSORGLEFT
 10
0.0
 20
0.0
 30
0.0
  9
$PUCSORGRIGHT
 10
0.0
 20
0.0
 30
0.0
  9
$PUCSORGFRONT
 10
0.0
 20
0.0
 30
0.0
  9
$PUCSORGBACK
 10
0.0
 20
0.0
 30
0.0
  9
$USERI1
 70
     0
  9
$USERI2
 70
     0
  9
$USERI3
 70
     0
  9
$USERI4
 70
     0
  9
$USERI5
 70
     0
  9
$USERR1
 40
0.0
  9
$USERR2
 40
0.0
  9
$USERR3
 40
0.0
  9
$USERR4
 40
0.0
  9
$USERR5
 40
0.0
  9
$WORLDVIEW
 70
     1
  9
$SHADEDGE
 70
     3
  9
$SHADEDIF
 70
    70
  9
$TILEMODE
 70
     1
  9
$MAXACTVP
 70
    64
  9
$PINSBASE
 10
0.0
 20
0.0
 30
0.0
  9
$PLIMCHECK
 70
     0
  9
$PEXTMIN
 10
1.000000000000000E+20
 20
1.000000000000000E+20
 30
1.000000000000000E+20
  9
$PEXTMAX
 10
-1.000000000000000E+20
 20
-1.000000000000000E+20
 30
-1.000000000000000E+20
  9
$PLIMMIN
 10
0.0
 20
0.0
  9
$PLIMMAX
 10
12.0
 20
9.0
  9
$UNITMODE
 70
     0
  9
$VISRETAIN
 70
     1
  9
$PLINEGEN
 70
     0
  9
$PSLTSCALE
 70
     1
  9
$TREEDEPTH
 70
  3020
  9
$CMLSTYLE
  2
Standard
  9
$CMLJUST
 70
     0
  9
$CMLSCALE
 40
1.0
  9
$PROXYGRAPHICS
 70
     1
  9
$MEASUREMENT
 70
     0
  9
$CELWEIGHT
370
    -1
  9
$ENDCAPS
280
     0
  9
$JOINSTYLE
280
     0
  9
$LWDISPLAY
290
     1
  9
$INSUNITS
 70
     1
  9
$HYPERLINKBASE
  1

  9
$STYLESHEET
  1

  9
$XEDIT
290
     1
  9
$CEPSNTYPE
380
     0
  9
$PSTYLEMODE
290
     1
  9
$FINGERPRINTGUID
  2
{DF974A2A-AE96-4D18-9EEC-4985B8BC049E}
  9
$VERSIONGUID
  2
{FAEB1C32-E019-11D5-929B-00C0DF256EC4}
  9
$EXTNAMES
290
     1
  9
$PSVPSCALE
 40
0.0
  9
$OLESTARTUP
290
     0
  9
$SORTENTS
280
   127
  9
$INDEXCTL
280
     0
  9
$HIDETEXT
280
     1
  9
$XCLIPFRAME
290
     0
  9
$HALOGAP
280
     0
  9
$OBSCOLOR
 70
   257
  9
$OBSLTYPE
280
     0
  9
$INTERSECTIONDISPLAY
280
     0
  9
$INTERSECTIONCOLOR
 70
   257
  9
$DIMASSOC
280
     2
  9
$PROJECTNAME
  1

  0
ENDSEC
  0
SECTION
  2
CLASSES
  0
CLASS
  1
ACDBDICTIONARYWDFLT
  2
AcDbDictionaryWithDefault
  3
ObjectDBX Classes
 90
        0
 91
        3
280
     0
281
     0
  0
CLASS
  1
VISUALSTYLE
  2
AcDbVisualStyle
  3
ObjectDBX Classes
 90
     4095
 91
        3
280
     0
281
     0
  0
ENDSEC
  0
SECTION
  2
TABLES
  0
TABLE
  2
VPORT
  5
8
330
0
100
AcDbSymbolTable
 70
     1
  0
VPORT
  5
29
330
8
100
AcDbSymbolTableRecord
100
AcDbViewportTableRecord
  2
*Active
 70
     0
 10
0.0
 20
0.0
 11
1.0
 21
1.0
 12
0.0
 22
0.0
 13
0.0
 23
0.0
 14
0.5
 24
0.5
 15
0.5
 25
0.5
 16
0.0
 26
0.0
 36
1.0
 17
105.0008259828644
 27
-148.4999796178229
 37
0.0
 40
296.9999592356459
 41
0.7070763662937379
 42
50.0
 43
0.0
 44
0.0
 50
0.0
 51
0.0
 71
     0
 72
   100
 73
     1
 74
     3
 75
     0
 76
     0
 77
     0
 78
     0
281
     0
 65
     1
110
0.0
120
0.0
130
0.0
111
1.0
121
0.0
131
0.0
112
0.0
122
1.0
132
0.0
 79
     0
146
0.0
  0
ENDTAB
  0
TABLE
  2
LTYPE
  5
5
330
0
100
AcDbSymbolTable
 70
     1
  0
LTYPE
  5
14
330
5
100
AcDbSymbolTableRecord
100
AcDbLinetypeTableRecord
  2
ByBlock
 70
     0
  3

 72
    65
 73
     0
 40
0.0
  0
LTYPE
  5
15
330
5
100
AcDbSymbolTableRecord
100
AcDbLinetypeTableRecord
  2
ByLayer
 70
     0
  3

 72
    65
 73
     0
 40
0.0
  0
LTYPE
  5
16
330
5
100
AcDbSymbolTableRecord
100
AcDbLinetypeTableRecord
  2
Continuous
 70
     0
  3
Solid line
 72
    65
 73
     0
 40
0.0
  0
ENDTAB
  0
TABLE
  2
LAYER
  5
2
330
0
100
AcDbSymbolTable
 70
     2
  0
LAYER
  5
10
330
2
100
AcDbSymbolTableRecord
100
AcDbLayerTableRecord
  2
0
 70
     0
 62
     7
  6
Continuous
370
    -3
390
F
  0
LAYER
  5
3B
330
2
100
AcDbSymbolTableRecord
100
AcDbLayerTableRecord
  2
Layer 1
 70
     0
 62
     7
  6
Continuous
370
    -3
390
F
  0
ENDTAB
  0
TABLE
  2
STYLE
  5
3
330
0
100
AcDbSymbolTable
 70
     1
  0
STYLE
  5
11
330
3
100
AcDbSymbolTableRecord
100
AcDbTextStyleTableRecord
  2
Standard
 70
     0
 40
0.0
 41
1.0
 50
0.0
 71
     0
 42
0.2
  3
txt
  4

  0
ENDTAB
  0
TABLE
  2
VIEW
  5
6
330
0
100
AcDbSymbolTable
 70
     0
  0
ENDTAB
  0
TABLE
  2
UCS
  5
7
330
0
100
AcDbSymbolTable
 70
     0
  0
ENDTAB
  0
TABLE
  2
APPID
  5
9
330
0
100
AcDbSymbolTable
 70
     1
  0
APPID
  5
12
330
9
100
AcDbSymbolTableRecord
100
AcDbRegAppTableRecord
  2
ACAD
 70
     0
  0
ENDTAB
  0
TABLE
  2
DIMSTYLE
  5
A
330
0
100
AcDbSymbolTable
 70
     1
100
AcDbDimStyleTable
  0
DIMSTYLE
105
27
330
A
100
AcDbSymbolTableRecord
100
AcDbDimStyleTableRecord
  2
Standard
 70
     0
340
11
  0
ENDTAB
  0
TABLE
  2
BLOCK_RECORD
  5
1
330
0
100
AcDbSymbolTable
 70
     1
  0
BLOCK_RECORD
  5
1F
330
1
100
AcDbSymbolTableRecord
100
AcDbBlockTableRecord
  2
*Model_Space
340
22
  0
BLOCK_RECORD
  5
1B
330
1
100
AcDbSymbolTableRecord
100
AcDbBlockTableRecord
  2
*Paper_Space
340
1E
  0
BLOCK_RECORD
  5
23
330
1
100
AcDbSymbolTableRecord
100
AcDbBlockTableRecord
  2
*Paper_Space0
340
26
  0
ENDTAB
  0
ENDSEC
  0
SECTION
  2
BLOCKS
  0
BLOCK
  5
20
330
1F
100
AcDbEntity
  8
0
100
AcDbBlockBegin
  2
*Model_Space
 70
     0
 71
     0
 10
0.0
 20
0.0
 30
0.0
  3
*Model_Space
  1

  0
ENDBLK
  5
21
330
1F
100
AcDbEntity
  8
0
100
AcDbBlockEnd
  0
BLOCK
  5
1C
330
1B
100
AcDbEntity
 67
     1
  8
0
100
AcDbBlockBegin
  2
*Paper_Space
 70
     0
 71
     0
 10
0.0
 20
0.0
 30
0.0
  3
*Paper_Space
  1

  0
ENDBLK
  5
1D
330
1B
100
AcDbEntity
 67
     1
  8
0
100
AcDbBlockEnd
  0
BLOCK
  5
24
330
23
100
AcDbEntity
  8
0
100
AcDbBlockBegin
  2
*Paper_Space0
 70
     0
 71
     0
 10
0.0
 20
0.0
 30
0.0
  3
*Paper_Space0
  1

  0
ENDBLK
  5
25
330
23
100
AcDbEntity
  8
0
100
AcDbBlockEnd
  0
ENDSEC
  0
SECTION
  2
ENTITIES
  0
SPLINE
  5
3C
330
1F
100
AcDbEntity
  8
Layer 1
370
     0
100
AcDbSpline
210
0.0
220
0.0
230
1.0
 70
    11
 71
     3
 72
    29
 73
    25
 74
     0
 42
0.0000000001
 43
0.0000000001
 40
0.0
 40
0.0
 40
0.0
 40
0.0
 40
1.0
 40
1.0
 40
1.0
 40
2.0
 40
2.0
 40
2.0
 40
3.0
 40
3.0
 40
3.0
 40
4.0
 40
4.0
 40
4.0
 40
5.0
 40
5.0
 40
5.0
 40
6.0
 40
6.0
 40
6.0
 40
7.0
 40
7.0
 40
7.0
 40
8.0
 40
8.0
 40
8.0
 40
8.0
 10
85.13519963149398
 20
-128.7273708445543
 30
0.0
 10
85.13519963149398
 20
-128.7273708445543
 30
0.0
 10
87.04550507806502
 20
-129.6062147028415
 30
0.0
 10
88.76598576339879
 20
-132.0932291336434
 30
0.0
 10
90.59602048516349
 20
-134.7390624663152
 30
0.0
 10
91.74254826265465
 20
-138.1124999654719
 30
0.0
 10
91.87483992928824
 20
-140.1850694093982
 30
0.0
 10
92.00230846224248
 20
-142.1832247908431
 30
0.0
 10
91.67640242933784
 20
-143.5364582974492
 30
0.0
 10
91.67640242933784
 20
-143.5364582974492
 30
0.0
 10
91.67640242933784
 20
-143.5364582974492
 30
0.0
 10
89.70580781177495
 20
-142.9432128548892
 30
0.0
 10
87.81789548585803
 20
-142.6765624643309
 30
0.0
 10
85.94376354188212
 20
-142.4119791310637
 30
0.0
 10
83.65070798689983
 20
-142.5222221865917
 30
0.0
 10
83.65070798689983
 20
-142.5222221865917
 30
0.0
 10
83.65070798689983
 20
-142.5222221865917
 30
0.0
 10
84.53265243112378
 20
-141.3095485757837
 30
0.0
 10
85.34845104203094
 20
-139.6559027428638
 30
0.0
 10
86.12290850711511
 20
-138.0856282206869
 30
0.0
 10
86.62727048615568
 20
-135.2902777439552
 30
0.0
 10
86.4729302084165
 20
-133.1515624667121
 30
0.0
 10
86.31376679699795
 20
-130.9480793943463
 30
0.0
 10
85.13519963149398
 20
-128.7273708445543
 30
0.0
 10
85.13519963149398
 20
-128.7273708445543
 30
0.0
  0
HATCH
  5
3D
330
1F
100
AcDbEntity
  8
Layer 1
 62
   250
420
  4341308
100
AcDbHatch
 10
0.0
 20
0.0
 30
0.0
210
0.0
220
0.0
230
1.0
  2
SOLID
 70
     1
 71
     0
 91
        1
 92
        1
 93
        1
 72
     4
 94
        3
 73
     0
 74
     1
 95
       29
 96
       25
 40
0.0
 40
0.0
 40
0.0
 40
0.0
 40
1.0
 40
1.0
 40
1.0
 40
2.0
 40
2.0
 40
2.0
 40
3.0
 40
3.0
 40
3.0
 40
4.0
 40
4.0
 40
4.0
 40
5.0
 40
5.0
 40
5.0
 40
6.0
 40
6.0
 40
6.0
 40
7.0
 40
7.0
 40
7.0
 40
8.0
 40
8.0
 40
8.0
 40
8.0
 10
85.13519963149398
 20
-128.7273708445543
 10
85.13519963149398
 20
-128.7273708445543
 10
87.04550507806502
 20
-129.6062147028415
 10
88.76598576339879
 20
-132.0932291336434
 10
90.59602048516349
 20
-134.7390624663152
 10
91.74254826265465
 20
-138.1124999654719
 10
91.87483992928824
 20
-140.1850694093982
 10
92.00230846224248
 20
-142.1832247908431
 10
91.67640242933784
 20
-143.5364582974492
 10
91.67640242933784
 20
-143.5364582974492
 10
91.67640242933784
 20
-143.5364582974492
 10
89.70580781177495
 20
-142.9432128548892
 10
87.81789548585803
 20
-142.6765624643309
 10
85.94376354188212
 20
-142.4119791310637
 10
83.65070798689983
 20
-142.5222221865917
 10
83.65070798689983
 20
-142.5222221865917
 10
83.65070798689983
 20
-142.5222221865917
 10
84.53265243112378
 20
-141.3095485757837
 10
85.34845104203094
 20
-139.6559027428638
 10
86.12290850711511
 20
-138.0856282206869
 10
86.62727048615568
 20
-135.2902777439552
 10
86.4729302084165
 20
-133.1515624667121
 10
86.31376679699795
 20
-130.9480793943463
 10
85.13519963149398
 20
-128.7273708445543
 10
85.13519963149398
 20
-128.7273708445543
 97
        0
 75
     2
 76
     1
 98
        0
  0
SPLINE
  5
3E
330
1F
100
AcDbEntity
  8
Layer 1
370
     0
100
AcDbSpline
210
0.0
220
0.0
230
1.0
 70
    11
 71
     3
 72
    23
 73
    19
 74
     0
 42
0.0000000001
 43
0.0000000001
 40
0.0
 40
0.0
 40
0.0
 40
0.0
 40
1.0
 40
1.0
 40
1.0
 40
2.0
 40
2.0
 40
2.0
 40
3.0
 40
3.0
 40
3.0
 40
4.0
 40
4.0
 40
4.0
 40
5.0
 40
5.0
 40
5.0
 40
6.0
 40
6.0
 40
6.0
 40
6.0
 10
80.49775659879917
 20
-121.2012152474775
 30
0.0
 10
80.49775659879917
 20
-121.2012152474775
 30
0.0
 10
81.83169757068791
 20
-122.1382812194654
 30
0.0
 10
83.56251354247743
 20
-122.656423580447
 30
0.0
 10
86.16218259564695
 20
-123.434670650565
 30
0.0
 10
88.88346351944581
 20
-124.4058430678569
 30
0.0
 10
90.35348576300191
 20
-126.889756912722
 30
0.0
 10
92.02849118793038
 20
-129.7212808920488
 30
0.0
 10
90.97084687395868
 20
-133.4602430221905
 30
0.0
 10
90.97084687395868
 20
-133.4602430221905
 30
0.0
 10
90.97084687395868
 20
-133.4602430221905
 30
0.0
 10
90.28389483419987
 20
-131.0417859915451
 30
0.0
 10
88.73635794222564
 20
-129.2854763131647
 30
0.0
 10
86.93595104163407
 20
-127.2425346904116
 30
0.0
 10
84.57674965333499
 20
-126.9045708233086
 30
0.0
 10
82.85695798709827
 20
-125.5227430241749
 30
0.0
 10
80.94906410736691
 20
-123.9903645523357
 30
0.0
 10
80.49775659879917
 20
-121.2012152474775
 30
0.0
 10
80.49775659879917
 20
-121.2012152474775
 30
0.0
  0
HATCH
  5
3F
330
1F
100
AcDbEntity
  8
Layer 1
 62
   250
420
  4341308
100
AcDbHatch
 10
0.0
 20
0.0
 30
0.0
210
0.0
220
0.0
230
1.0
  2
SOLID
 70
     1
 71
     0
 91
        1
 92
        1
 93
        1
 72
     4
 94
        3
 73
     0
 74
     1
 95
       23
 96
       19
 40
0.0
 40
0.0
 40
0.0
 40
0.0
 40
1.0
 40
1.0
 40
1.0
 40
2.0
 40
2.0
 40
2.0
 40
3.0
 40
3.0
 40
3.0
 40
4.0
 40
4.0
 40
4.0
 40
5.0
 40
5.0
 40
5.0
 40
6.0
 40
6.0
 40
6.0
 40
6.0
 10
80.49775659879917
 20
-121.2012152474775
 10
80.49775659879917
 20
-121.2012152474775
 10
81.83169757068791
 20
-122.1382812194654
 10
83.56251354247743
 20
-122.656423580447
 10
86.16218259564695
 20
-123.434670650565
 10
88.88346351944581
 20
-124.4058430678569
 10
90.35348576300191
 20
-126.889756912722
 10
92.02849118793038
 20
-129.7212808920488
 10
90.97084687395868
 20
-133.4602430221905
 10
90.97084687395868
 20
-133.4602430221905
 10
90.97084687395868
 20
-133.4602430221905
 10
90.28389483419987
 20
-131.0417859915451
 10
88.73635794222564
 20
-129.2854763131647
 10
86.93595104163407
 20
-127.2425346904116
 10
84.57674965333499
 20
-126.9045708233086
 10
82.85695798709827
 20
-125.5227430241749
 10
80.94906410736691
 20
-123.9903645523357
 10
80.49775659879917
 20
-121.2012152474775
 10
80.49775659879917
 20
-121.2012152474775
 97
        0
 75
     2
 76
     1
 98
        0
  0
SPLINE
  5
40
330
1F
100
AcDbEntity
  8
Layer 1
370
     0
100
AcDbSpline
210
0.0
220
0.0
230
1.0
 70
    11
 71
     3
 72
    17
 73
    13
 74
     0
 42
0.0000000001
 43
0.0000000001
 40
0.0
 40
0.0
 40
0.0
 40
0.0
 40
1.0
 40
1.0
 40
1.0
 40
2.0
 40
2.0
 40
2.0
 40
3.0
 40
3.0
 40
3.0
 40
4.0
 40
4.0
 40
4.0
 40
4.0
 10
83.68378090355823
 20
-120.8704860808935
 30
0.0
 10
83.68378090355823
 20
-120.8704860808935
 30
0.0
 10
82.84593368154546
 20
-119.8562499700359
 30
0.0
 10
82.76876354267587
 20
-118.2907985815384
 30
0.0
 10
82.69710555658267
 20
-116.8411024013453
 30
0.0
 10
81.61258949782602
 20
-116.4562852356429
 30
0.0
 10
80.82848576538316
 20
-117.8939235816376
 30
0.0
 10
80.43161076548238
 20
-118.6215277481224
 30
0.0
 10
80.79541284872477
 20
-119.525520803452
 30
0.0
 10
81.80964895958232
 20
-120.1318576088559
 30
0.0
 10
82.5940972015737
 20
-120.601079613947
 30
0.0
 10
83.68378090355823
 20
-120.8704860808935
 30
0.0
 10
83.68378090355823
 20
-120.8704860808935
 30
0.0
  0
HATCH
  5
41
330
1F
100
AcDbEntity
  8
Layer 1
 62
   250
420
  4341308
100
AcDbHatch
 10
0.0
 20
0.0
 30
0.0
210
0.0
220
0.0
230
1.0
  2
SOLID
 70
     1
 71
     0
 91
        1
 92
        1
 93
        1
 72
     4
 94
        3
 73
     0
 74
     1
 95
       17
 96
       13
 40
0.0
 40
0.0
 40
0.0
 40
0.0
 40
1.0
 40
1.0
 40
1.0
 40
2.0
 40
2.0
 40
2.0
 40
3.0
 40
3.0
 40
3.0
 40
4.0
 40
4.0
 40
4.0
 40
4.0
 10
83.68378090355823
 20
-120.8704860808935
 10
83.68378090355823
 20
-120.8704860808935
 10
82.84593368154546
 20
-119.8562499700359
 10
82.76876354267587
 20
-118.2907985815384
 10
82.69710555658267
 20
-116.8411024013453
 10
81.61258949782602
 20
-116.4562852356429
 10
80.82848576538316
 20
-117.8939235816376
 10
80.43161076548238
 20
-118.6215277481224
 10
80.79541284872477
 20
-119.525520803452
 10
81.80964895958232
 20
-120.1318576088559
 10
82.5940972015737
 20
-120.601079613947
 10
83.68378090355823
 20
-120.8704860808935
 10
83.68378090355823
 20
-120.8704860808935
 97
        0
 75
     2
 76
     1
 98
        0
  0
SPLINE
  5
42
330
1F
100
AcDbEntity
  8
Layer 1
370
     0
100
AcDbSpline
210
0.0
220
0.0
230
1.0
 70
    11
 71
     3
 72
    29
 73
    25
 74
     0
 42
0.0000000001
 43
0.0000000001
 40
0.0
 40
0.0
 40
0.0
 40
0.0
 40
1.0
 40
1.0
 40
1.0
 40
2.0
 40
2.0
 40
2.0
 40
3.0
 40
3.0
 40
3.0
 40
4.0
 40
4.0
 40
4.0
 40
5.0
 40
5.0
 40
5.0
 40
6.0
 40
6.0
 40
6.0
 40
7.0
 40
7.0
 40
7.0
 40
8.0
 40
8.0
 40
8.0
 40
8.0
 10
125.7194579763826
 20
-128.7273708445543
 30
0.0
 10
125.7194579763826
 20
-128.7273708445543
 30
0.0
 10
123.8088080202631
 20
-129.6062147028415
 30
0.0
 10
122.0890163540264
 20
-132.0932291336434
 30
0.0
 10
120.2589816322617
 20
-134.7390624663152
 30
0.0
 10
119.1124538547705
 20
-138.1124999654719
 30
0.0
 10
118.9801621881369
 20
-140.1850694093982
 30
0.0
 10
118.8523491456341
 20
-142.1832247908431
 30
0.0
 10
119.1785996880873
 20
-143.5364582974492
 30
0.0
 10
119.1785996880873
 20
-143.5364582974492
 30
0.0
 10
119.1785996880873
 20
-143.5364582974492
 30
0.0
 10
121.1485052865532
 20
-142.9432128548892
 30
0.0
 10
123.0371066315671
 20
-142.6765624643309
 30
0.0
 10
124.911238575543
 20
-142.4119791310637
 30
0.0
 10
127.2042941305253
 20
-142.5222221865917
 30
0.0
 10
127.2042941305253
 20
-142.5222221865917
 30
0.0
 10
127.2042941305253
 20
-142.5222221865917
 30
0.0
 10
126.3223496863014
 20
-141.3095485757837
 30
0.0
 10
125.5065510753942
 20
-139.6559027428638
 30
0.0
 10
124.7317491007615
 20
-138.0856282206869
 30
0.0
 10
124.2277316312695
 20
-135.2902777439552
 30
0.0
 10
124.3820719090087
 20
-133.1515624667121
 30
0.0
 10
124.5408908108787
 20
-130.9480793943463
 30
0.0
 10
125.7194579763826
 20
-128.7273708445543
 30
0.0
 10
125.7194579763826
 20
-128.7273708445543
 30
0.0
  0
HATCH
  5
43
330
1F
100
AcDbEntity
  8
Layer 1
 62
   250
420
  4341308
100
AcDbHatch
 10
0.0
 20
0.0
 30
0.0
210
0.0
220
0.0
230
1.0
  2
SOLID
 70
     1
 71
     0
 91
        1
 92
        1
 93
        1
 72
     4
 94
        3
 73
     0
 74
     1
 95
       29
 96
       25
 40
0.0
 40
0.0
 40
0.0
 40
0.0
 40
1.0
 40
1.0
 40
1.0
 40
2.0
 40
2.0
 40
2.0
 40
3.0
 40
3.0
 40
3.0
 40
4.0
 40
4.0
 40
4.0
 40
5.0
 40
5.0
 40
5.0
 40
6.0
 40
6.0
 40
6.0
 40
7.0
 40
7.0
 40
7.0
 40
8.0
 40
8.0
 40
8.0
 40
8.0
 10
125.7194579763826
 20
-128.7273708445543
 10
125.7194579763826
 20
-128.7273708445543
 10
123.8088080202631
 20
-129.6062147028415
 10
122.0890163540264
 20
-132.0932291336434
 10
120.2589816322617
 20
-134.7390624663152
 10
119.1124538547705
 20
-138.1124999654719
 10
118.9801621881369
 20
-140.1850694093982
 10
118.8523491456341
 20
-142.1832247908431
 10
119.1785996880873
 20
-143.5364582974492
 10
119.1785996880873
 20
-143.5364582974492
 10
119.1785996880873
 20
-143.5364582974492
 10
121.1485052865532
 20
-142.9432128548892
 10
123.0371066315671
 20
-142.6765624643309
 10
124.911238575543
 20
-142.4119791310637
 10
127.2042941305253
 20
-142.5222221865917
 10
127.2042941305253
 20
-142.5222221865917
 10
127.2042941305253
 20
-142.5222221865917
 10
126.3223496863014
 20
-141.3095485757837
 10
125.5065510753942
 20
-139.6559027428638
 10
124.7317491007615
 20
-138.0856282206869
 10
124.2277316312695
 20
-135.2902777439552
 10
124.3820719090087
 20
-133.1515624667121
 10
124.5408908108787
 20
-130.9480793943463
 10
125.7194579763826
 20
-128.7273708445543
 10
125.7194579763826
 20
-128.7273708445543
 97
        0
 75
     2
 76
     1
 98
        0
  0
SPLINE
  5
44
330
1F
100
AcDbEntity
  8
Layer 1
370
     0
100
AcDbSpline
210
0.0
220
0.0
230
1.0
 70
    11
 71
     3
 72
    23
 73
    19
 74
     0
 42
0.0000000001
 43
0.0000000001
 40
0.0
 40
0.0
 40
0.0
 40
0.0
 40
1.0
 40
1.0
 40
1.0
 40
2.0
 40
2.0
 40
2.0
 40
3.0
 40
3.0
 40
3.0
 40
4.0
 40
4.0
 40
4.0
 40
5.0
 40
5.0
 40
5.0
 40
6.0
 40
6.0
 40
6.0
 40
6.0
 10
130.357245518626
 20
-121.2012152474775
 30
0.0
 10
130.357245518626
 20
-121.2012152474775
 30
0.0
 10
129.0233045467372
 20
-122.1382812194654
 30
0.0
 10
127.2924885749477
 20
-122.656423580447
 30
0.0
 10
124.6924750122297
 20
-123.434670650565
 30
0.0
 10
121.9711940884308
 20
-124.4058430678569
 30
0.0
 10
120.5015163544232
 20
-126.889756912722
 30
0.0
 10
118.8258219103977
 20
-129.7212808920488
 30
0.0
 10
119.8841552434665
 20
-133.4602430221905
 30
0.0
 10
119.8841552434665
 20
-133.4602430221905
 30
0.0
 10
119.8841552434665
 20
-133.4602430221905
 30
0.0
 10
120.5707627736768
 20
-131.0417859915451
 30
0.0
 10
122.118299665651
 20
-129.2854763131647
 30
0.0
 10
123.9190510757911
 20
-127.2425346904116
 30
0.0
 10
126.2782524640902
 20
-126.9045708233086
 30
0.0
 10
127.9980441303269
 20
-125.5227430241749
 30
0.0
 10
129.9055935005097
 20
-123.9903645523357
 30
0.0
 10
130.357245518626
 20
-121.2012152474775
 30
0.0
 10
130.357245518626
 20
-121.2012152474775
 30
0.0
  0
HATCH
  5
45
330
1F
100
AcDbEntity
  8
Layer 1
 62
   250
420
  4341308
100
AcDbHatch
 10
0.0
 20
0.0
 30
0.0
210
0.0
220
0.0
230
1.0
  2
SOLID
 70
     1
 71
     0
 91
        1
 92
        1
 93
        1
 72
     4
 94
        3
 73
     0
 74
     1
 95
       23
 96
       19
 40
0.0
 40
0.0
 40
0.0
 40
0.0
 40
1.0
 40
1.0
 40
1.0
 40
2.0
 40
2.0
 40
2.0
 40
3.0
 40
3.0
 40
3.0
 40
4.0
 40
4.0
 40
4.0
 40
5.0
 40
5.0
 40
5.0
 40
6.0
 40
6.0
 40
6.0
 40
6.0
 10
130.357245518626
 20
-121.2012152474775
 10
130.357245518626
 20
-121.2012152474775
 10
129.0233045467372
 20
-122.1382812194654
 10
127.2924885749477
 20
-122.656423580447
 10
124.6924750122297
 20
-123.434670650565
 10
121.9711940884308
 20
-124.4058430678569
 10
120.5015163544232
 20
-126.889756912722
 10
118.8258219103977
 20
-129.7212808920488
 10
119.8841552434665
 20
-133.4602430221905
 10
119.8841552434665
 20
-133.4602430221905
 10
119.8841552434665
 20
-133.4602430221905
 10
120.5707627736768
 20
-131.0417859915451
 10
122.118299665651
 20
-129.2854763131647
 10
123.9190510757911
 20
-127.2425346904116
 10
126.2782524640902
 20
-126.9045708233086
 10
127.9980441303269
 20
-125.5227430241749
 10
129.9055935005097
 20
-123.9903645523357
 10
130.357245518626
 20
-121.2012152474775
 10
130.357245518626
 20
-121.2012152474775
 97
        0
 75
     2
 76
     1
 98
        0
  0
SPLINE
  5
46
330
1F
100
AcDbEntity
  8
Layer 1
370
     0
100
AcDbSpline
210
0.0
220
0.0
230
1.0
 70
    11
 71
     3
 72
    17
 73
    13
 74
     0
 42
0.0000000001
 43
0.0000000001
 40
0.0
 40
0.0
 40
0.0
 40
0.0
 40
1.0
 40
1.0
 40
1.0
 40
2.0
 40
2.0
 40
2.0
 40
3.0
 40
3.0
 40
3.0
 40
4.0
 40
4.0
 40
4.0
 40
4.0
 10
127.1712212138669
 20
-120.8704860808935
 30
0.0
 10
127.1712212138669
 20
-120.8704860808935
 30
0.0
 10
128.0090684358797
 20
-119.8562499700359
 30
0.0
 10
128.0862385747493
 20
-118.2907985815384
 30
0.0
 10
128.1575520512939
 20
-116.8411024013453
 30
0.0
 10
129.2424126195991
 20
-116.4562852356429
 30
0.0
 10
130.026516352042
 20
-117.8939235816376
 30
0.0
 10
130.4233913519428
 20
-118.6215277481224
 30
0.0
 10
130.0595892687004
 20
-119.525520803452
 30
0.0
 10
129.0453531578428
 20
-120.1318576088559
 30
0.0
 10
128.2605604063029
 20
-120.601079613947
 30
0.0
 10
127.1712212138669
 20
-120.8704860808935
 30
0.0
 10
127.1712212138669
 20
-120.8704860808935
 30
0.0
  0
HATCH
  5
47
330
1F
100
AcDbEntity
  8
Layer 1
 62
   250
420
  4341308
100
AcDbHatch
 10
0.0
 20
0.0
 30
0.0
210
0.0
220
0.0
230
1.0
  2
SOLID
 70
     1
 71
     0
 91
        1
 92
        1
 93
        1
 72
     4
 94
        3
 73
     0
 74
     1
 95
       17
 96
       13
 40
0.0
 40
0.0
 40
0.0
 40
0.0
 40
1.0
 40
1.0
 40
1.0
 40
2.0
 40
2.0
 40
2.0
 40
3.0
 40
3.0
 40
3.0
 40
4.0
 40
4.0
 40
4.0
 40
4.0
 10
127.1712212138669
 20
-120.8704860808935
 10
127.1712212138669
 20
-120.8704860808935
 10
128.0090684358797
 20
-119.8562499700359
 10
128.0862385747493
 20
-118.2907985815384
 10
128.1575520512939
 20
-116.8411024013453
 10
129.2424126195991
 20
-116.4562852356429
 10
130.026516352042
 20
-117.8939235816376
 10
130.4233913519428
 20
-118.6215277481224
 10
130.0595892687004
 20
-119.525520803452
 10
129.0453531578428
 20
-120.1318576088559
 10
128.2605604063029
 20
-120.601079613947
 10
127.1712212138669
 20
-120.8704860808935
 10
127.1712212138669
 20
-120.8704860808935
 97
        0
 75
     2
 76
     1
 98
        0
  0
SPLINE
  5
48
330
1F
100
AcDbEntity
  8
Layer 1
370
     0
100
AcDbSpline
210
0.0
220
0.0
230
1.0
 70
    11
 71
     3
 72
   185
 73
   181
 74
     0
 42
0.0000000001
 43
0.0000000001
 40
0.0
 40
0.0
 40
0.0
 40
0.0
 40
1.0
 40
1.0
 40
1.0
 40
2.0
 40
2.0
 40
2.0
 40
3.0
 40
3.0
 40
3.0
 40
4.0
 40
4.0
 40
4.0
 40
5.0
 40
5.0
 40
5.0
 40
6.0
 40
6.0
 40
6.0
 40
7.0
 40
7.0
 40
7.0
 40
8.0
 40
8.0
 40
8.0
 40
9.0
 40
9.0
 40
9.0
 40
10.0
 40
10.0
 40
10.0
 40
11.0
 40
11.0
 40
11.0
 40
12.0
 40
12.0
 40
12.0
 40
13.0
 40
13.0
 40
13.0
 40
14.0
 40
14.0
 40
14.0
 40
15.0
 40
15.0
 40
15.0
 40
16.0
 40
16.0
 40
16.0
 40
17.0
 40
17.0
 40
17.0
 40
18.0
 40
18.0
 40
18.0
 40
19.0
 40
19.0
 40
19.0
 40
20.0
 40
20.0
 40
20.0
 40
21.0
 40
21.0
 40
21.0
 40
22.0
 40
22.0
 40
22.0
 40
23.0
 40
23.0
 40
23.0
 40
24.0
 40
24.0
 40
24.0
 40
25.0
 40
25.0
 40
25.0
 40
26.0
 40
26.0
 40
26.0
 40
27.0
 40
27.0
 40
27.0
 40
28.0
 40
28.0
 40
28.0
 40
29.0
 40
29.0
 40
29.0
 40
30.0
 40
30.0
 40
30.0
 40
31.0
 40
31.0
 40
31.0
 40
32.0
 40
32.0
 40
32.0
 40
33.0
 40
33.0
 40
33.0
 40
34.0
 40
34.0
 40
34.0
 40
35.0
 40
35.0
 40
35.0
 40
36.0
 40
36.0
 40
36.0
 40
37.0
 40
37.0
 40
37.0
 40
38.0
 40
38.0
 40
38.0
 40
39.0
 40
39.0
 40
39.0
 40
40.0
 40
40.0
 40
40.0
 40
41.0
 40
41.0
 40
41.0
 40
42.0
 40
42.0
 40
42.0
 40
43.0
 40
43.0
 40
43.0
 40
44.0
 40
44.0
 40
44.0
 40
45.0
 40
45.0
 40
45.0
 40
46.0
 40
46.0
 40
46.0
 40
47.0
 40
47.0
 40
47.0
 40
48.0
 40
48.0
 40
48.0
 40
49.0
 40
49.0
 40
49.0
 40
50.0
 40
50.0
 40
50.0
 40
51.0
 40
51.0
 40
51.0
 40
52.0
 40
52.0
 40
52.0
 40
53.0
 40
53.0
 40
53.0
 40
54.0
 40
54.0
 40
54.0
 40
55.0
 40
55.0
 40
55.0
 40
56.0
 40
56.0
 40
56.0
 40
57.0
 40
57.0
 40
57.0
 40
58.0
 40
58.0
 40
58.0
 40
59.0
 40
59.0
 40
59.0
 40
60.0
 40
60.0
 40
60.0
 40
60.0
 10
118.7062770970595
 20
-144.5586181279228
 30
0.0
 10
116.5444796800653
 20
-145.1511745513858
 30
0.0
 10
114.1249891207743
 20
-146.209163374906
 30
0.0
 10
111.7830132099015
 20
-147.5572292382843
 30
0.0
 10
109.4031412486909
 20
-148.9266546936711
 30
0.0
 10
107.1080186364174
 20
-150.6016601185996
 30
0.0
 10
105.8298882113898
 20
-153.1131347273467
 30
0.0
 10
105.8298882113898
 20
-153.1131347273467
 30
0.0
 10
105.6845051819122
 20
-153.3608370927362
 30
0.0
 10
105.5656493876711
 20
-153.3608370927362
 30
0.0
 10
105.4464490838814
 20
-153.3608370927362
 30
0.0
 10
105.3010660544039
 20
-153.1127902177982
 30
0.0
 10
105.3010660544039
 20
-153.1127902177982
 30
0.0
 10
104.0229356293762
 20
-150.6013156090511
 30
0.0
 10
101.7278130171028
 20
-148.9263101841226
 30
0.0
 10
99.34794105589219
 20
-147.5565402191873
 30
0.0
 10
97.00596514501935
 20
-146.208474355809
 30
0.0
 10
94.58647458572838
 20
-145.1504855322888
 30
0.0
 10
92.4246771687341
 20
-144.5579291088258
 30
0.0
 10
86.4715521702224
 20
-142.9263318870115
 30
0.0
 10
84.0682535597121
 20
-143.4554985535459
 30
0.0
 10
84.0682535597121
 20
-143.4554985535459
 30
0.0
 10
84.0682535597121
 20
-143.4554985535459
 30
0.0
 10
86.3613091146944
 20
-144.8004638309874
 30
0.0
 10
88.52207300304309
 20
-147.7770263302432
 30
0.0
 10
89.66481117550047
 20
-149.3514349670024
 30
0.0
 10
90.47268606679155
 20
-150.9434135907364
 30
0.0
 10
91.65297578003815
 20
-152.3631374402078
 30
0.0
 10
92.59383135705988
 20
-153.4948513071124
 30
0.0
 10
95.39228241972832
 20
-154.9252549525881
 30
0.0
 10
96.61391327879791
 20
-155.7438096398835
 30
0.0
 10
97.26055770137931
 20
-156.1775471614764
 30
0.0
 10
98.01262204580935
 20
-156.6970675606521
 30
0.0
 10
98.53214244498503
 20
-157.3240749389676
 30
0.0
 10
98.82910967581356
 20
-157.6823648694336
 30
0.0
 10
98.96587996657797
 20
-158.2869791270949
 30
0.0
 10
98.96587996657797
 20
-158.2869791270949
 30
0.0
 10
98.96587996657797
 20
-158.2869791270949
 30
0.0
 10
98.08152395551434
 20
-157.474625611673
 30
0.0
 10
97.29742022307148
 20
-156.9492485501724
 30
0.0
 10
96.16191675113313
 20
-156.1885714670292
 30
0.0
 10
95.11460772361718
 20
-155.8468179948925
 30
0.0
 10
95.11460772361718
 20
-155.8468179948925
 30
0.0
 10
95.11460772361718
 20
-155.8468179948925
 30
0.0
 10
96.04306095689202
 20
-157.0229735935568
 30
0.0
 10
96.9225938342763
 20
-158.4265054942476
 30
0.0
 10
97.3046549235905
 20
-159.0366319046853
 30
0.0
 10
97.44280325254903
 20
-160.2637749165313
 30
0.0
 10
97.62814938965546
 20
-161.9322346600378
 30
0.0
 10
97.63917369520827
 20
-162.031453410013
 30
0.0
 10
97.44073619525787
 20
-163.0456895208705
 30
0.0
 10
98.17936466729545
 20
-164.8757242426352
 30
0.0
 10
98.60827905520905
 20
-165.9388807093833
 30
0.0
 10
99.29281952812819
 20
-166.4742485477912
 30
0.0
 10
99.29281952812819
 20
-166.4742485477912
 30
0.0
 10
99.29281952812819
 20
-166.4742485477912
 30
0.0
 10
99.1164306392834
 20
-165.9502495244847
 30
0.0
 10
99.1164306392834
 20
-165.768692992412
 30
0.0
 10
99.1164306392834
 20
-165.5812797980144
 30
0.0
 10
99.21564938925859
 20
-165.4159152147224
 30
0.0
 10
99.21564938925859
 20
-165.4159152147224
 30
0.0
 10
99.21564938925859
 20
-165.4159152147224
 30
0.0
 10
99.56842716694817
 20
-165.989179103468
 30
0.0
 10
100.0093993890601
 20
-166.6065402144248
 30
0.0
 10
100.4503716111721
 20
-167.2239013253815
 30
0.0
 10
101.3653889720545
 20
-167.8081895196799
 30
0.0
 10
101.3653889720545
 20
-167.8081895196799
 30
0.0
 10
101.3653889720545
 20
-167.8081895196799
 30
0.0
 10
101.1676404912012
 20
-167.8671006524777
 30
0.0
 10
100.9133924443897
 20
-167.8081895196799
 30
0.0
 10
100.813829184866
 20
-167.7851073799287
 30
0.0
 10
100.4503716111721
 20
-167.7420436863631
 30
0.0
 10
100.4503716111721
 20
-167.7420436863631
 30
0.0
 10
100.4503716111721
 20
-167.7420436863631
 30
0.0
 10
100.6739583081648
 20
-168.6277777356208
 30
0.0
 10
101.2661702220793
 20
-169.7594916025254
 30
0.0
 10
102.2583577218312
 20
-171.6556721576069
 30
0.0
 10
102.3024549440425
 20
-172.7801513239925
 30
0.0
 10
102.3024549440425
 20
-172.7801513239925
 30
0.0
 10
102.3024549440425
 20
-172.7801513239925
 30
0.0
 10
102.5012369535414
 20
-172.6495822051015
 30
0.0
 10
102.5229410550984
 20
-172.3612277129861
 30
0.0
 10
102.544989666204
 20
-172.0690836158369
 30
0.0
 10
102.6938177911668
 20
-171.9478162547561
 30
0.0
 10
102.6938177911668
 20
-171.9478162547561
 30
0.0
 10
102.6938177911668
 20
-171.9478162547561
 30
0.0
 10
102.7875243883656
 20
-172.0415228519549
 30
0.0
 10
103.0080104994216
 20
-172.0304985464021
 30
0.0
 10
103.2284966104776
 20
-172.0194742408493
 30
0.0
 10
103.3497639715584
 20
-172.0580593102841
 30
0.0
 10
103.3497639715584
 20
-172.0580593102841
 30
0.0
 10
103.3497639715584
 20
-172.0580593102841
 30
0.0
 10
102.4640299223007
 20
-172.905208290107
 30
0.0
 10
102.4936577434738
 20
-175.6316568571337
 30
0.0
 10
102.5070936158663
 20
-176.8791259323427
 30
0.0
 10
102.6624674222511
 20
-177.6263671430934
 30
0.0
 10
103.1182535549496
 20
-178.6781547947402
 30
0.0
 10
103.7280354558388
 20
-180.0854763004648
 30
0.0
 10
104.7856797698105
 20
-180.2177679670984
 30
0.0
 10
105.5656493876711
 20
-180.2177679670984
 30
0.0
 10
106.2767170958267
 20
-180.2177679670984
 30
0.0
 10
107.4284125165457
 20
-180.1774603499209
 30
0.0
 10
108.0127007108441
 20
-178.6781547947402
 30
0.0
 10
108.4292127550108
 20
-177.6098306847642
 30
0.0
 10
108.6238606499274
 20
-176.8791259323427
 30
0.0
 10
108.6372965223198
 20
-175.6316568571337
 30
0.0
 10
108.666924343493
 20
-172.905208290107
 30
0.0
 10
107.7811902942353
 20
-172.0584038198326
 30
0.0
 10
107.7811902942353
 20
-172.0584038198326
 30
0.0
 10
107.7811902942353
 20
-172.0584038198326
 30
0.0
 10
107.9024576553161
 20
-172.0198187503978
 30
0.0
 10
108.122943766372
 20
-172.0308430559506
 30
0.0
 10
108.343429877428
 20
-172.0418673615034
 30
0.0
 10
108.4371364746268
 20
-171.9481607643046
 30
0.0
 10
108.4371364746268
 20
-171.9481607643046
 30
0.0
 10
108.4371364746268
 20
-171.9481607643046
 30
0.0
 10
108.5859645995896
 20
-172.0694281253854
 30
0.0
 10
108.6080132106952
 20
-172.3615722225346
 30
0.0
 10
108.6297173122523
 20
-172.6495822051015
 30
0.0
 10
108.8284993217512
 20
-172.780495833541
 30
0.0
 10
108.8284993217512
 20
-172.780495833541
 30
0.0
 10
108.8284993217512
 20
-172.780495833541
 30
0.0
 10
108.8725965439624
 20
-171.6560166671555
 30
0.0
 10
109.8647840437144
 20
-169.7598361120739
 30
0.0
 10
110.4569959576288
 20
-168.6277777356208
 30
0.0
 10
110.6805826546215
 20
-167.7423881959116
 30
0.0
 10
110.6805826546215
 20
-167.7423881959116
 30
0.0
 10
110.6805826546215
 20
-167.7423881959116
 30
0.0
 10
110.3171250809277
 20
-167.7851073799287
 30
0.0
 10
110.2175618214039
 20
-167.8085340292284
 30
0.0
 10
109.9633137745925
 20
-167.8671006524777
 30
0.0
 10
109.7655652937392
 20
-167.8085340292284
 30
0.0
 10
109.7655652937392
 20
-167.8085340292284
 30
0.0
 10
109.7655652937392
 20
-167.8085340292284
 30
0.0
 10
110.6805826546215
 20
-167.2242458349301
 30
0.0
 10
111.1215548767335
 20
-166.6068847239733
 30
0.0
 10
111.5625270988455
 20
-165.9895236130165
 30
0.0
 10
111.9153048765351
 20
-165.4162597242709
 30
0.0
 10
111.9153048765351
 20
-165.4162597242709
 30
0.0
 10
111.9153048765351
 20
-165.4162597242709
 30
0.0
 10
112.0145236265103
 20
-165.5816243075629
 30
0.0
 10
112.0145236265103
 20
-165.7690375019605
 30
0.0
 10
112.0145236265103
 20
-165.9505940340332
 30
0.0
 10
111.8381347376655
 20
-166.4745930573397
 30
0.0
 10
111.8381347376655
 20
-166.4745930573397
 30
0.0
 10
111.8381347376655
 20
-166.4745930573397
 30
0.0
 10
112.5223307010361
 20
-165.9392252189319
 30
0.0
 10
112.9515895984982
 20
-164.8760687521838
 30
0.0
 10
113.6902180705358
 20
-163.0460340304191
 30
0.0
 10
113.4917805705854
 20
-162.0317979195615
 30
0.0
 10
113.5028048761382
 20
-161.9325791695863
 30
0.0
 10
113.6881510132446
 20
-160.2644639356283
 30
0.0
 10
113.8259548326546
 20
-159.0369764142338
 30
0.0
 10
114.2083604315174
 20
-158.4268500037961
 30
0.0
 10
115.0875487993531
 20
-157.0233181031053
 30
0.0
 10
116.0163465421765
 20
-155.847162504441
 30
0.0
 10
116.0163465421765
 20
-155.847162504441
 30
0.0
 10
116.0163465421765
 20
-155.847162504441
 30
0.0
 10
114.9690375146605
 20
-156.1889159765778
 30
0.0
 10
113.8335340427222
 20
-156.9495930597209
 30
0.0
 10
113.0494303102793
 20
-157.474625611673
 30
0.0
 10
112.1650742992157
 20
-158.2869791270949
 30
0.0
 10
112.1650742992157
 20
-158.2869791270949
 30
0.0
 10
112.1650742992157
 20
-158.2873236366435
 30
0.0
 10
112.3015000804316
 20
-157.6827093789821
 30
0.0
 10
112.5988118208086
 20
-157.3244194485161
 30
0.0
 10
113.1183322199843
 20
-156.6974120702006
 30
0.0
 10
113.8700520548658
 20
-156.177891671025
 30
0.0
 10
114.5170409869957
 20
-155.7444986589805
 30
0.0
 10
115.7386718460653
 20
-154.9255994621367
 30
0.0
 10
118.5371229087338
 20
-153.4955403262095
 30
0.0
 10
119.4779784857555
 20
-152.3634819497564
 30
0.0
 10
120.6582681990021
 20
-150.9437581002849
 30
0.0
 10
121.484402096365
 20
-149.3648708393949
 30
0.0
 10
122.608536753202
 20
-147.7773708397918
 30
0.0
 10
124.1102538752224
 20
-145.6576035877175
 30
0.0
 10
127.062356196533
 20
-143.4561875726429
 30
0.0
 10
127.062356196533
 20
-143.4561875726429
 30
0.0
 10
127.062356196533
 20
-143.4561875726429
 30
0.0
 10
124.6590575860227
 20
-142.9270209061085
 30
0.0
 10
118.7062770970595
 20
-144.5586181279228
 30
0.0
  0
SPLINE
  5
49
330
1F
100
AcDbEntity
  8
Layer 1
370
     0
100
AcDbSpline
210
0.0
220
0.0
230
1.0
 70
    11
 71
     3
 72
    17
 73
    13
 74
     0
 42
0.0000000001
 43
0.0000000001
 40
0.0
 40
0.0
 40
0.0
 40
0.0
 40
1.0
 40
1.0
 40
1.0
 40
2.0
 40
2.0
 40
2.0
 40
3.0
 40
3.0
 40
3.0
 40
4.0
 40
4.0
 40
4.0
 40
4.0
 10
99.90639103405118
 20
-164.8719346376015
 30
0.0
 10
99.30384383368099
 20
-164.0781846377999
 30
0.0
 10
99.43613550031458
 20
-163.4608235268431
 30
0.0
 10
99.43613550031458
 20
-163.4608235268431
 30
0.0
 10
99.43613550031458
 20
-163.4608235268431
 30
0.0
 10
99.89192163301314
 20
-163.9755207923395
 30
0.0
 10
100.3473632561632
 20
-164.4309624154895
 30
0.0
 10
100.8362223055201
 20
-164.920165974395
 30
0.0
 10
101.5676160770387
 20
-165.445198526347
 30
0.0
 10
101.5676160770387
 20
-165.445198526347
 30
0.0
 10
101.5676160770387
 20
-165.445198526347
 30
0.0
 10
100.5092827439699
 20
-165.665684637403
 30
0.0
 10
99.90639103405118
 20
-164.8719346376015
 30
0.0
  0
SPLINE
  5
4A
330
1F
100
AcDbEntity
  8
Layer 1
370
     0
100
AcDbSpline
210
0.0
220
0.0
230
1.0
 70
    11
 71
     3
 72
    23
 73
    19
 74
     0
 42
0.0000000001
 43
0.0000000001
 40
0.0
 40
0.0
 40
0.0
 40
0.0
 40
1.0
 40
1.0
 40
1.0
 40
2.0
 40
2.0
 40
2.0
 40
3.0
 40
3.0
 40
3.0
 40
4.0
 40
4.0
 40
4.0
 40
5.0
 40
5.0
 40
5.0
 40
6.0
 40
6.0
 40
6.0
 40
6.0
 10
103.5151285548504
 20
-176.3740749342051
 30
0.0
 10
103.441403511466
 20
-175.6681748692774
 30
0.0
 10
103.482055638192
 20
-175.4149603511115
 30
0.0
 10
103.482055638192
 20
-175.17242562895
 30
0.0
 10
103.482055638192
 20
-174.9298909067884
 30
0.0
 10
103.5592257770616
 20
-174.5330159068876
 30
0.0
 10
103.5592257770616
 20
-174.5330159068876
 30
0.0
 10
103.5592257770616
 20
-174.5330159068876
 30
0.0
 10
103.7135660548008
 20
-174.786574934602
 30
0.0
 10
103.7356146659064
 20
-175.2881808372543
 30
0.0
 10
103.7569742579149
 20
-175.772905772029
 30
0.0
 10
103.7190782075772
 20
-175.9716877815279
 30
0.0
 10
103.73010251313
 20
-176.3134412536647
 30
0.0
 10
103.7411268186828
 20
-176.6551947258015
 30
0.0
 10
103.7907361936704
 20
-176.9363145173979
 30
0.0
 10
103.7907361936704
 20
-176.9363145173979
 30
0.0
 10
103.7907361936704
 20
-176.9363145173979
 30
0.0
 10
103.5812743881672
 20
-177.0079725034911
 30
0.0
 10
103.5151285548504
 20
-176.3740749342051
 30
0.0
  0
SPLINE
  5
4B
330
1F
100
AcDbEntity
  8
Layer 1
370
     0
100
AcDbSpline
210
0.0
220
0.0
230
1.0
 70
    11
 71
     3
 72
    23
 73
    19
 74
     0
 42
0.0000000001
 43
0.0000000001
 40
0.0
 40
0.0
 40
0.0
 40
0.0
 40
1.0
 40
1.0
 40
1.0
 40
2.0
 40
2.0
 40
2.0
 40
3.0
 40
3.0
 40
3.0
 40
4.0
 40
4.0
 40
4.0
 40
5.0
 40
5.0
 40
5.0
 40
6.0
 40
6.0
 40
6.0
 40
6.0
 10
105.0292480206177
 20
-179.130840341502
 30
0.0
 10
105.0292480206177
 20
-179.130840341502
 30
0.0
 10
104.7202229555908
 20
-178.9982041653199
 30
0.0
 10
104.4852674434967
 20
-178.6750542088035
 30
0.0
 10
104.2499674218542
 20
-178.351904252287
 30
0.0
 10
103.875141033059
 20
-177.8668348079639
 30
0.0
 10
104.0001979991736
 20
-176.9552625425667
 30
0.0
 10
104.1045843923766
 20
-176.1925184021324
 30
0.0
 10
104.6247938106494
 20
-175.6471597868174
 30
0.0
 10
104.6247938106494
 20
-175.6471597868174
 30
0.0
 10
104.6247938106494
 20
-175.6471597868174
 30
0.0
 10
105.0364827211367
 20
-176.0733180983428
 30
0.0
 10
105.0878146438669
 20
-176.5804361537716
 30
0.0
 10
105.1394910761457
 20
-177.0875542092003
 30
0.0
 10
105.0437174216557
 20
-177.5140570302743
 30
0.0
 10
104.9996201994445
 20
-178.0284097862221
 30
0.0
 10
104.9555229772333
 20
-178.5427625421699
 30
0.0
 10
105.0292480206177
 20
-179.130840341502
 30
0.0
 10
105.0292480206177
 20
-179.130840341502
 30
0.0
  0
SPLINE
  5
4C
330
1F
100
AcDbEntity
  8
Layer 1
370
     0
100
AcDbSpline
210
0.0
220
0.0
230
1.0
 70
    11
 71
     3
 72
    17
 73
    13
 74
     0
 42
0.0000000001
 43
0.0000000001
 40
0.0
 40
0.0
 40
0.0
 40
0.0
 40
1.0
 40
1.0
 40
1.0
 40
2.0
 40
2.0
 40
2.0
 40
3.0
 40
3.0
 40
3.0
 40
4.0
 40
4.0
 40
4.0
 40
4.0
 10
105.3727240404971
 20
-173.3203422960796
 30
0.0
 10
105.3286268182859
 20
-174.0038492403532
 30
0.0
 10
105.2183837627579
 20
-175.2385714622667
 30
0.0
 10
105.2183837627579
 20
-175.2385714622667
 30
0.0
 10
105.2183837627579
 20
-175.2385714622667
 30
0.0
 10
104.8442463930598
 20
-174.1909179252023
 30
0.0
 10
104.8821424433975
 20
-173.24317215721
 30
0.0
 10
104.9152153600559
 20
-172.4108370879737
 30
0.0
 10
105.3561875821679
 20
-171.9698648658617
 30
0.0
 10
105.3561875821679
 20
-171.9698648658617
 30
0.0
 10
105.3561875821679
 20
-171.9698648658617
 30
0.0
 10
105.4168212627083
 20
-172.6368353518061
 30
0.0
 10
105.3727240404971
 20
-173.3203422960796
 30
0.0
  0
SPLINE
  5
4D
330
1F
100
AcDbEntity
  8
Layer 1
370
     0
100
AcDbSpline
210
0.0
220
0.0
230
1.0
 70
    11
 71
     3
 72
    17
 73
    13
 74
     0
 42
0.0000000001
 43
0.0000000001
 40
0.0
 40
0.0
 40
0.0
 40
0.0
 40
1.0
 40
1.0
 40
1.0
 40
2.0
 40
2.0
 40
2.0
 40
3.0
 40
3.0
 40
3.0
 40
4.0
 40
4.0
 40
4.0
 40
4.0
 10
105.4788329814428
 20
-168.5705891505657
 30
0.0
 10
105.4788329814428
 20
-168.5705891505657
 30
0.0
 10
104.7291802038524
 20
-162.7793836398607
 30
0.0
 10
104.7291802038524
 20
-161.5153781063225
 30
0.0
 10
104.7291802038524
 20
-160.1996961405056
 30
0.0
 10
105.1846218270025
 20
-159.72220590625
 30
0.0
 10
105.4788329814428
 20
-158.6638725731813
 30
0.0
 10
105.6772704813932
 20
-159.7807725294992
 30
0.0
 10
106.1954128423748
 20
-160.4897731803637
 30
0.0
 10
106.1954128423748
 20
-161.5625759144705
 30
0.0
 10
106.1954128423748
 20
-162.5034314914922
 30
0.0
 10
105.4788329814428
 20
-168.5705891505657
 30
0.0
 10
105.4788329814428
 20
-168.5705891505657
 30
0.0
  0
SPLINE
  5
4E
330
1F
100
AcDbEntity
  8
Layer 1
370
     0
100
AcDbSpline
210
0.0
220
0.0
230
1.0
 70
    11
 71
     3
 72
    17
 73
    13
 74
     0
 42
0.0000000001
 43
0.0000000001
 40
0.0
 40
0.0
 40
0.0
 40
0.0
 40
1.0
 40
1.0
 40
1.0
 40
2.0
 40
2.0
 40
2.0
 40
3.0
 40
3.0
 40
3.0
 40
4.0
 40
4.0
 40
4.0
 40
4.0
 10
105.7582302252966
 20
-173.3206868056282
 30
0.0
 10
105.7141330030854
 20
-172.6371798613546
 30
0.0
 10
105.7747666836258
 20
-171.9702093754102
 30
0.0
 10
105.7747666836258
 20
-171.9702093754102
 30
0.0
 10
105.7747666836258
 20
-171.9702093754102
 30
0.0
 10
106.2157389057377
 20
-172.4111815975222
 30
0.0
 10
106.2488118223961
 20
-173.2435166667586
 30
0.0
 10
106.2867078727339
 20
-174.1909179252023
 30
0.0
 10
105.9125705030358
 20
-175.2385714622667
 30
0.0
 10
105.9125705030358
 20
-175.2385714622667
 30
0.0
 10
105.9125705030358
 20
-175.2385714622667
 30
0.0
 10
105.8023274475077
 20
-174.0041937499017
 30
0.0
 10
105.7582302252966
 20
-173.3206868056282
 30
0.0
  0
SPLINE
  5
4F
330
1F
100
AcDbEntity
  8
Layer 1
370
     0
100
AcDbSpline
210
0.0
220
0.0
230
1.0
 70
    11
 71
     3
 72
    23
 73
    19
 74
     0
 42
0.0000000001
 43
0.0000000001
 40
0.0
 40
0.0
 40
0.0
 40
0.0
 40
1.0
 40
1.0
 40
1.0
 40
2.0
 40
2.0
 40
2.0
 40
3.0
 40
3.0
 40
3.0
 40
4.0
 40
4.0
 40
4.0
 40
5.0
 40
5.0
 40
5.0
 40
6.0
 40
6.0
 40
6.0
 40
6.0
 10
106.6456868222969
 20
-178.6750542088035
 30
0.0
 10
106.4107313102029
 20
-178.9982041653199
 30
0.0
 10
106.101706245176
 20
-179.130840341502
 30
0.0
 10
106.101706245176
 20
-179.130840341502
 30
0.0
 10
106.101706245176
 20
-179.130840341502
 30
0.0
 10
106.1754312885603
 20
-178.5427625421699
 30
0.0
 10
106.1313340663491
 20
-178.0284097862221
 30
0.0
 10
106.0872368441379
 20
-177.5140570302743
 30
0.0
 10
105.991463189648
 20
-177.0875542092003
 30
0.0
 10
106.0431396219267
 20
-176.5804361537716
 30
0.0
 10
106.0944715446569
 20
-176.0733180983428
 30
0.0
 10
106.5061604551443
 20
-175.6471597868174
 30
0.0
 10
106.5061604551443
 20
-175.6471597868174
 30
0.0
 10
106.5061604551443
 20
-175.6471597868174
 30
0.0
 10
107.026369873417
 20
-176.1925184021324
 30
0.0
 10
107.1307562666201
 20
-176.9552625425667
 30
0.0
 10
107.2558132327347
 20
-177.8668348079639
 30
0.0
 10
106.8809868439395
 20
-178.351904252287
 30
0.0
 10
106.6456868222969
 20
-178.6750542088035
 30
0.0
  0
SPLINE
  5
50
330
1F
100
AcDbEntity
  8
Layer 1
370
     0
100
AcDbSpline
210
0.0
220
0.0
230
1.0
 70
    11
 71
     3
 72
    23
 73
    19
 74
     0
 42
0.0000000001
 43
0.0000000001
 40
0.0
 40
0.0
 40
0.0
 40
0.0
 40
1.0
 40
1.0
 40
1.0
 40
2.0
 40
2.0
 40
2.0
 40
3.0
 40
3.0
 40
3.0
 40
4.0
 40
4.0
 40
4.0
 40
5.0
 40
5.0
 40
5.0
 40
6.0
 40
6.0
 40
6.0
 40
6.0
 10
107.6158257109433
 20
-176.3740749342051
 30
0.0
 10
107.5496798776265
 20
-177.0079725034911
 30
0.0
 10
107.3402180721233
 20
-176.9363145173979
 30
0.0
 10
107.3402180721233
 20
-176.9363145173979
 30
0.0
 10
107.3402180721233
 20
-176.9363145173979
 30
0.0
 10
107.3898274471109
 20
-176.6551947258015
 30
0.0
 10
107.4008517526637
 20
-176.3134412536647
 30
0.0
 10
107.4118760582165
 20
-175.9716877815279
 30
0.0
 10
107.3739800078787
 20
-175.772905772029
 30
0.0
 10
107.3953395998873
 20
-175.2881808372543
 30
0.0
 10
107.4173882109929
 20
-174.7869194441505
 30
0.0
 10
107.5717284887321
 20
-174.5333604164361
 30
0.0
 10
107.5717284887321
 20
-174.5333604164361
 30
0.0
 10
107.5717284887321
 20
-174.5333604164361
 30
0.0
 10
107.6488986276017
 20
-174.9302354163369
 30
0.0
 10
107.6488986276017
 20
-175.17242562895
 30
0.0
 10
107.6488986276017
 20
-175.4149603511115
 30
0.0
 10
107.6895507543276
 20
-175.6681748692774
 30
0.0
 10
107.6158257109433
 20
-176.3740749342051
 30
0.0
  0
SPLINE
  5
51
330
1F
100
AcDbEntity
  8
Layer 1
370
     0
100
AcDbSpline
210
0.0
220
0.0
230
1.0
 70
    11
 71
     3
 72
    17
 73
    13
 74
     0
 42
0.0000000001
 43
0.0000000001
 40
0.0
 40
0.0
 40
0.0
 40
0.0
 40
1.0
 40
1.0
 40
1.0
 40
2.0
 40
2.0
 40
2.0
 40
3.0
 40
3.0
 40
3.0
 40
4.0
 40
4.0
 40
4.0
 40
4.0
 10
111.2245632317425
 20
-164.8726236566985
 30
0.0
 10
110.6216715218238
 20
-165.6663736565001
 30
0.0
 10
109.563338188755
 20
-165.4458875454441
 30
0.0
 10
109.563338188755
 20
-165.4458875454441
 30
0.0
 10
109.563338188755
 20
-165.4458875454441
 30
0.0
 10
110.2947319602735
 20
-164.920165974395
 30
0.0
 10
110.7835910096305
 20
-164.4316514345865
 30
0.0
 10
111.2390326327805
 20
-163.9755207923395
 30
0.0
 10
111.6948187654791
 20
-163.4615125459402
 30
0.0
 10
111.6948187654791
 20
-163.4615125459402
 30
0.0
 10
111.6948187654791
 20
-163.4615125459402
 30
0.0
 10
111.8271104321127
 20
-164.0788736568969
 30
0.0
 10
111.2245632317425
 20
-164.8726236566985
 30
0.0
  0
HATCH
  5
52
330
1F
100
AcDbEntity
  8
Layer 1
 62
   250
420
  4341308
100
AcDbHatch
 10
0.0
 20
0.0
 30
0.0
210
0.0
220
0.0
230
1.0
  2
SOLID
 70
     1
 71
     0
 91
       10
 92
        1
 93
        1
 72
     4
 94
        3
 73
     0
 74
     1
 95
      185
 96
      181
 40
0.0
 40
0.0
 40
0.0
 40
0.0
 40
1.0
 40
1.0
 40
1.0
 40
2.0
 40
2.0
 40
2.0
 40
3.0
 40
3.0
 40
3.0
 40
4.0
 40
4.0
 40
4.0
 40
5.0
 40
5.0
 40
5.0
 40
6.0
 40
6.0
 40
6.0
 40
7.0
 40
7.0
 40
7.0
 40
8.0
 40
8.0
 40
8.0
 40
9.0
 40
9.0
 40
9.0
 40
10.0
 40
10.0
 40
10.0
 40
11.0
 40
11.0
 40
11.0
 40
12.0
 40
12.0
 40
12.0
 40
13.0
 40
13.0
 40
13.0
 40
14.0
 40
14.0
 40
14.0
 40
15.0
 40
15.0
 40
15.0
 40
16.0
 40
16.0
 40
16.0
 40
17.0
 40
17.0
 40
17.0
 40
18.0
 40
18.0
 40
18.0
 40
19.0
 40
19.0
 40
19.0
 40
20.0
 40
20.0
 40
20.0
 40
21.0
 40
21.0
 40
21.0
 40
22.0
 40
22.0
 40
22.0
 40
23.0
 40
23.0
 40
23.0
 40
24.0
 40
24.0
 40
24.0
 40
25.0
 40
25.0
 40
25.0
 40
26.0
 40
26.0
 40
26.0
 40
27.0
 40
27.0
 40
27.0
 40
28.0
 40
28.0
 40
28.0
 40
29.0
 40
29.0
 40
29.0
 40
30.0
 40
30.0
 40
30.0
 40
31.0
 40
31.0
 40
31.0
 40
32.0
 40
32.0
 40
32.0
 40
33.0
 40
33.0
 40
33.0
 40
34.0
 40
34.0
 40
34.0
 40
35.0
 40
35.0
 40
35.0
 40
36.0
 40
36.0
 40
36.0
 40
37.0
 40
37.0
 40
37.0
 40
38.0
 40
38.0
 40
38.0
 40
39.0
 40
39.0
 40
39.0
 40
40.0
 40
40.0
 40
40.0
 40
41.0
 40
41.0
 40
41.0
 40
42.0
 40
42.0
 40
42.0
 40
43.0
 40
43.0
 40
43.0
 40
44.0
 40
44.0
 40
44.0
 40
45.0
 40
45.0
 40
45.0
 40
46.0
 40
46.0
 40
46.0
 40
47.0
 40
47.0
 40
47.0
 40
48.0
 40
48.0
 40
48.0
 40
49.0
 40
49.0
 40
49.0
 40
50.0
 40
50.0
 40
50.0
 40
51.0
 40
51.0
 40
51.0
 40
52.0
 40
52.0
 40
52.0
 40
53.0
 40
53.0
 40
53.0
 40
54.0
 40
54.0
 40
54.0
 40
55.0
 40
55.0
 40
55.0
 40
56.0
 40
56.0
 40
56.0
 40
57.0
 40
57.0
 40
57.0
 40
58.0
 40
58.0
 40
58.0
 40
59.0
 40
59.0
 40
59.0
 40
60.0
 40
60.0
 40
60.0
 40
60.0
 10
118.7062770970595
 20
-144.5586181279228
 10
116.5444796800653
 20
-145.1511745513858
 10
114.1249891207743
 20
-146.209163374906
 10
111.7830132099015
 20
-147.5572292382843
 10
109.4031412486909
 20
-148.9266546936711
 10
107.1080186364174
 20
-150.6016601185996
 10
105.8298882113898
 20
-153.1131347273467
 10
105.8298882113898
 20
-153.1131347273467
 10
105.6845051819122
 20
-153.3608370927362
 10
105.5656493876711
 20
-153.3608370927362
 10
105.4464490838814
 20
-153.3608370927362
 10
105.3010660544039
 20
-153.1127902177982
 10
105.3010660544039
 20
-153.1127902177982
 10
104.0229356293762
 20
-150.6013156090511
 10
101.7278130171028
 20
-148.9263101841226
 10
99.34794105589219
 20
-147.5565402191873
 10
97.00596514501935
 20
-146.208474355809
 10
94.58647458572838
 20
-145.1504855322888
 10
92.4246771687341
 20
-144.5579291088258
 10
86.4715521702224
 20
-142.9263318870115
 10
84.0682535597121
 20
-143.4554985535459
 10
84.0682535597121
 20
-143.4554985535459
 10
84.0682535597121
 20
-143.4554985535459
 10
86.3613091146944
 20
-144.8004638309874
 10
88.52207300304309
 20
-147.7770263302432
 10
89.66481117550047
 20
-149.3514349670024
 10
90.47268606679155
 20
-150.9434135907364
 10
91.65297578003815
 20
-152.3631374402078
 10
92.59383135705988
 20
-153.4948513071124
 10
95.39228241972832
 20
-154.9252549525881
 10
96.61391327879791
 20
-155.7438096398835
 10
97.26055770137931
 20
-156.1775471614764
 10
98.01262204580935
 20
-156.6970675606521
 10
98.53214244498503
 20
-157.3240749389676
 10
98.82910967581356
 20
-157.6823648694336
 10
98.96587996657797
 20
-158.2869791270949
 10
98.96587996657797
 20
-158.2869791270949
 10
98.96587996657797
 20
-158.2869791270949
 10
98.08152395551434
 20
-157.474625611673
 10
97.29742022307148
 20
-156.9492485501724
 10
96.16191675113313
 20
-156.1885714670292
 10
95.11460772361718
 20
-155.8468179948925
 10
95.11460772361718
 20
-155.8468179948925
 10
95.11460772361718
 20
-155.8468179948925
 10
96.04306095689202
 20
-157.0229735935568
 10
96.9225938342763
 20
-158.4265054942476
 10
97.3046549235905
 20
-159.0366319046853
 10
97.44280325254903
 20
-160.2637749165313
 10
97.62814938965546
 20
-161.9322346600378
 10
97.63917369520827
 20
-162.031453410013
 10
97.44073619525787
 20
-163.0456895208705
 10
98.17936466729545
 20
-164.8757242426352
 10
98.60827905520905
 20
-165.9388807093833
 10
99.29281952812819
 20
-166.4742485477912
 10
99.29281952812819
 20
-166.4742485477912
 10
99.29281952812819
 20
-166.4742485477912
 10
99.1164306392834
 20
-165.9502495244847
 10
99.1164306392834
 20
-165.768692992412
 10
99.1164306392834
 20
-165.5812797980144
 10
99.21564938925859
 20
-165.4159152147224
 10
99.21564938925859
 20
-165.4159152147224
 10
99.21564938925859
 20
-165.4159152147224
 10
99.56842716694817
 20
-165.989179103468
 10
100.0093993890601
 20
-166.6065402144248
 10
100.4503716111721
 20
-167.2239013253815
 10
101.3653889720545
 20
-167.8081895196799
 10
101.3653889720545
 20
-167.8081895196799
 10
101.3653889720545
 20
-167.8081895196799
 10
101.1676404912012
 20
-167.8671006524777
 10
100.9133924443897
 20
-167.8081895196799
 10
100.813829184866
 20
-167.7851073799287
 10
100.4503716111721
 20
-167.7420436863631
 10
100.4503716111721
 20
-167.7420436863631
 10
100.4503716111721
 20
-167.7420436863631
 10
100.6739583081648
 20
-168.6277777356208
 10
101.2661702220793
 20
-169.7594916025254
 10
102.2583577218312
 20
-171.6556721576069
 10
102.3024549440425
 20
-172.7801513239925
 10
102.3024549440425
 20
-172.7801513239925
 10
102.3024549440425
 20
-172.7801513239925
 10
102.5012369535414
 20
-172.6495822051015
 10
102.5229410550984
 20
-172.3612277129861
 10
102.544989666204
 20
-172.0690836158369
 10
102.6938177911668
 20
-171.9478162547561
 10
102.6938177911668
 20
-171.9478162547561
 10
102.6938177911668
 20
-171.9478162547561
 10
102.7875243883656
 20
-172.0415228519549
 10
103.0080104994216
 20
-172.0304985464021
 10
103.2284966104776
 20
-172.0194742408493
 10
103.3497639715584
 20
-172.0580593102841
 10
103.3497639715584
 20
-172.0580593102841
 10
103.3497639715584
 20
-172.0580593102841
 10
102.4640299223007
 20
-172.905208290107
 10
102.4936577434738
 20
-175.6316568571337
 10
102.5070936158663
 20
-176.8791259323427
 10
102.6624674222511
 20
-177.6263671430934
 10
103.1182535549496
 20
-178.6781547947402
 10
103.7280354558388
 20
-180.0854763004648
 10
104.7856797698105
 20
-180.2177679670984
 10
105.5656493876711
 20
-180.2177679670984
 10
106.2767170958267
 20
-180.2177679670984
 10
107.4284125165457
 20
-180.1774603499209
 10
108.0127007108441
 20
-178.6781547947402
 10
108.4292127550108
 20
-177.6098306847642
 10
108.6238606499274
 20
-176.8791259323427
 10
108.6372965223198
 20
-175.6316568571337
 10
108.666924343493
 20
-172.905208290107
 10
107.7811902942353
 20
-172.0584038198326
 10
107.7811902942353
 20
-172.0584038198326
 10
107.7811902942353
 20
-172.0584038198326
 10
107.9024576553161
 20
-172.0198187503978
 10
108.122943766372
 20
-172.0308430559506
 10
108.343429877428
 20
-172.0418673615034
 10
108.4371364746268
 20
-171.9481607643046
 10
108.4371364746268
 20
-171.9481607643046
 10
108.4371364746268
 20
-171.9481607643046
 10
108.5859645995896
 20
-172.0694281253854
 10
108.6080132106952
 20
-172.3615722225346
 10
108.6297173122523
 20
-172.6495822051015
 10
108.8284993217512
 20
-172.780495833541
 10
108.8284993217512
 20
-172.780495833541
 10
108.8284993217512
 20
-172.780495833541
 10
108.8725965439624
 20
-171.6560166671555
 10
109.8647840437144
 20
-169.7598361120739
 10
110.4569959576288
 20
-168.6277777356208
 10
110.6805826546215
 20
-167.7423881959116
 10
110.6805826546215
 20
-167.7423881959116
 10
110.6805826546215
 20
-167.7423881959116
 10
110.3171250809277
 20
-167.7851073799287
 10
110.2175618214039
 20
-167.8085340292284
 10
109.9633137745925
 20
-167.8671006524777
 10
109.7655652937392
 20
-167.8085340292284
 10
109.7655652937392
 20
-167.8085340292284
 10
109.7655652937392
 20
-167.8085340292284
 10
110.6805826546215
 20
-167.2242458349301
 10
111.1215548767335
 20
-166.6068847239733
 10
111.5625270988455
 20
-165.9895236130165
 10
111.9153048765351
 20
-165.4162597242709
 10
111.9153048765351
 20
-165.4162597242709
 10
111.9153048765351
 20
-165.4162597242709
 10
112.0145236265103
 20
-165.5816243075629
 10
112.0145236265103
 20
-165.7690375019605
 10
112.0145236265103
 20
-165.9505940340332
 10
111.8381347376655
 20
-166.4745930573397
 10
111.8381347376655
 20
-166.4745930573397
 10
111.8381347376655
 20
-166.4745930573397
 10
112.5223307010361
 20
-165.9392252189319
 10
112.9515895984982
 20
-164.8760687521838
 10
113.6902180705358
 20
-163.0460340304191
 10
113.4917805705854
 20
-162.0317979195615
 10
113.5028048761382
 20
-161.9325791695863
 10
113.6881510132446
 20
-160.2644639356283
 10
113.8259548326546
 20
-159.0369764142338
 10
114.2083604315174
 20
-158.4268500037961
 10
115.0875487993531
 20
-157.0233181031053
 10
116.0163465421765
 20
-155.847162504441
 10
116.0163465421765
 20
-155.847162504441
 10
116.0163465421765
 20
-155.847162504441
 10
114.9690375146605
 20
-156.1889159765778
 10
113.8335340427222
 20
-156.9495930597209
 10
113.0494303102793
 20
-157.474625611673
 10
112.1650742992157
 20
-158.2869791270949
 10
112.1650742992157
 20
-158.2869791270949
 10
112.1650742992157
 20
-158.2873236366435
 10
112.3015000804316
 20
-157.6827093789821
 10
112.5988118208086
 20
-157.3244194485161
 10
113.1183322199843
 20
-156.6974120702006
 10
113.8700520548658
 20
-156.177891671025
 10
114.5170409869957
 20
-155.7444986589805
 10
115.7386718460653
 20
-154.9255994621367
 10
118.5371229087338
 20
-153.4955403262095
 10
119.4779784857555
 20
-152.3634819497564
 10
120.6582681990021
 20
-150.9437581002849
 10
121.484402096365
 20
-149.3648708393949
 10
122.608536753202
 20
-147.7773708397918
 10
124.1102538752224
 20
-145.6576035877175
 10
127.062356196533
 20
-143.4561875726429
 10
127.062356196533
 20
-143.4561875726429
 10
127.062356196533
 20
-143.4561875726429
 10
124.6590575860227
 20
-142.9270209061085
 10
118.7062770970595
 20
-144.5586181279228
 97
        0
 92
        1
 93
        1
 72
     4
 94
        3
 73
     0
 74
     1
 95
       17
 96
       13
 40
0.0
 40
0.0
 40
0.0
 40
0.0
 40
1.0
 40
1.0
 40
1.0
 40
2.0
 40
2.0
 40
2.0
 40
3.0
 40
3.0
 40
3.0
 40
4.0
 40
4.0
 40
4.0
 40
4.0
 10
99.90639103405118
 20
-164.8719346376015
 10
99.30384383368099
 20
-164.0781846377999
 10
99.43613550031458
 20
-163.4608235268431
 10
99.43613550031458
 20
-163.4608235268431
 10
99.43613550031458
 20
-163.4608235268431
 10
99.89192163301314
 20
-163.9755207923395
 10
100.3473632561632
 20
-164.4309624154895
 10
100.8362223055201
 20
-164.920165974395
 10
101.5676160770387
 20
-165.445198526347
 10
101.5676160770387
 20
-165.445198526347
 10
101.5676160770387
 20
-165.445198526347
 10
100.5092827439699
 20
-165.665684637403
 10
99.90639103405118
 20
-164.8719346376015
 97
        0
 92
        1
 93
        1
 72
     4
 94
        3
 73
     0
 74
     1
 95
       23
 96
       19
 40
0.0
 40
0.0
 40
0.0
 40
0.0
 40
1.0
 40
1.0
 40
1.0
 40
2.0
 40
2.0
 40
2.0
 40
3.0
 40
3.0
 40
3.0
 40
4.0
 40
4.0
 40
4.0
 40
5.0
 40
5.0
 40
5.0
 40
6.0
 40
6.0
 40
6.0
 40
6.0
 10
103.5151285548504
 20
-176.3740749342051
 10
103.441403511466
 20
-175.6681748692774
 10
103.482055638192
 20
-175.4149603511115
 10
103.482055638192
 20
-175.17242562895
 10
103.482055638192
 20
-174.9298909067884
 10
103.5592257770616
 20
-174.5330159068876
 10
103.5592257770616
 20
-174.5330159068876
 10
103.5592257770616
 20
-174.5330159068876
 10
103.7135660548008
 20
-174.786574934602
 10
103.7356146659064
 20
-175.2881808372543
 10
103.7569742579149
 20
-175.772905772029
 10
103.7190782075772
 20
-175.9716877815279
 10
103.73010251313
 20
-176.3134412536647
 10
103.7411268186828
 20
-176.6551947258015
 10
103.7907361936704
 20
-176.9363145173979
 10
103.7907361936704
 20
-176.9363145173979
 10
103.7907361936704
 20
-176.9363145173979
 10
103.5812743881672
 20
-177.0079725034911
 10
103.5151285548504
 20
-176.3740749342051
 97
        0
 92
        1
 93
        1
 72
     4
 94
        3
 73
     0
 74
     1
 95
       23
 96
       19
 40
0.0
 40
0.0
 40
0.0
 40
0.0
 40
1.0
 40
1.0
 40
1.0
 40
2.0
 40
2.0
 40
2.0
 40
3.0
 40
3.0
 40
3.0
 40
4.0
 40
4.0
 40
4.0
 40
5.0
 40
5.0
 40
5.0
 40
6.0
 40
6.0
 40
6.0
 40
6.0
 10
105.0292480206177
 20
-179.130840341502
 10
105.0292480206177
 20
-179.130840341502
 10
104.7202229555908
 20
-178.9982041653199
 10
104.4852674434967
 20
-178.6750542088035
 10
104.2499674218542
 20
-178.351904252287
 10
103.875141033059
 20
-177.8668348079639
 10
104.0001979991736
 20
-176.9552625425667
 10
104.1045843923766
 20
-176.1925184021324
 10
104.6247938106494
 20
-175.6471597868174
 10
104.6247938106494
 20
-175.6471597868174
 10
104.6247938106494
 20
-175.6471597868174
 10
105.0364827211367
 20
-176.0733180983428
 10
105.0878146438669
 20
-176.5804361537716
 10
105.1394910761457
 20
-177.0875542092003
 10
105.0437174216557
 20
-177.5140570302743
 10
104.9996201994445
 20
-178.0284097862221
 10
104.9555229772333
 20
-178.5427625421699
 10
105.0292480206177
 20
-179.130840341502
 10
105.0292480206177
 20
-179.130840341502
 97
        0
 92
        1
 93
        1
 72
     4
 94
        3
 73
     0
 74
     1
 95
       17
 96
       13
 40
0.0
 40
0.0
 40
0.0
 40
0.0
 40
1.0
 40
1.0
 40
1.0
 40
2.0
 40
2.0
 40
2.0
 40
3.0
 40
3.0
 40
3.0
 40
4.0
 40
4.0
 40
4.0
 40
4.0
 10
105.3727240404971
 20
-173.3203422960796
 10
105.3286268182859
 20
-174.0038492403532
 10
105.2183837627579
 20
-175.2385714622667
 10
105.2183837627579
 20
-175.2385714622667
 10
105.2183837627579
 20
-175.2385714622667
 10
104.8442463930598
 20
-174.1909179252023
 10
104.8821424433975
 20
-173.24317215721
 10
104.9152153600559
 20
-172.4108370879737
 10
105.3561875821679
 20
-171.9698648658617
 10
105.3561875821679
 20
-171.9698648658617
 10
105.3561875821679
 20
-171.9698648658617
 10
105.4168212627083
 20
-172.6368353518061
 10
105.3727240404971
 20
-173.3203422960796
 97
        0
 92
        1
 93
        1
 72
     4
 94
        3
 73
     0
 74
     1
 95
       17
 96
       13
 40
0.0
 40
0.0
 40
0.0
 40
0.0
 40
1.0
 40
1.0
 40
1.0
 40
2.0
 40
2.0
 40
2.0
 40
3.0
 40
3.0
 40
3.0
 40
4.0
 40
4.0
 40
4.0
 40
4.0
 10
105.4788329814428
 20
-168.5705891505657
 10
105.4788329814428
 20
-168.5705891505657
 10
104.7291802038524
 20
-162.7793836398607
 10
104.7291802038524
 20
-161.5153781063225
 10
104.7291802038524
 20
-160.1996961405056
 10
105.1846218270025
 20
-159.72220590625
 10
105.4788329814428
 20
-158.6638725731813
 10
105.6772704813932
 20
-159.7807725294992
 10
106.1954128423748
 20
-160.4897731803637
 10
106.1954128423748
 20
-161.5625759144705
 10
106.1954128423748
 20
-162.5034314914922
 10
105.4788329814428
 20
-168.5705891505657
 10
105.4788329814428
 20
-168.5705891505657
 97
        0
 92
        1
 93
        1
 72
     4
 94
        3
 73
     0
 74
     1
 95
       17
 96
       13
 40
0.0
 40
0.0
 40
0.0
 40
0.0
 40
1.0
 40
1.0
 40
1.0
 40
2.0
 40
2.0
 40
2.0
 40
3.0
 40
3.0
 40
3.0
 40
4.0
 40
4.0
 40
4.0
 40
4.0
 10
105.7582302252966
 20
-173.3206868056282
 10
105.7141330030854
 20
-172.6371798613546
 10
105.7747666836258
 20
-171.9702093754102
 10
105.7747666836258
 20
-171.9702093754102
 10
105.7747666836258
 20
-171.9702093754102
 10
106.2157389057377
 20
-172.4111815975222
 10
106.2488118223961
 20
-173.2435166667586
 10
106.2867078727339
 20
-174.1909179252023
 10
105.9125705030358
 20
-175.2385714622667
 10
105.9125705030358
 20
-175.2385714622667
 10
105.9125705030358
 20
-175.2385714622667
 10
105.8023274475077
 20
-174.0041937499017
 10
105.7582302252966
 20
-173.3206868056282
 97
        0
 92
        1
 93
        1
 72
     4
 94
        3
 73
     0
 74
     1
 95
       23
 96
       19
 40
0.0
 40
0.0
 40
0.0
 40
0.0
 40
1.0
 40
1.0
 40
1.0
 40
2.0
 40
2.0
 40
2.0
 40
3.0
 40
3.0
 40
3.0
 40
4.0
 40
4.0
 40
4.0
 40
5.0
 40
5.0
 40
5.0
 40
6.0
 40
6.0
 40
6.0
 40
6.0
 10
106.6456868222969
 20
-178.6750542088035
 10
106.4107313102029
 20
-178.9982041653199
 10
106.101706245176
 20
-179.130840341502
 10
106.101706245176
 20
-179.130840341502
 10
106.101706245176
 20
-179.130840341502
 10
106.1754312885603
 20
-178.5427625421699
 10
106.1313340663491
 20
-178.0284097862221
 10
106.0872368441379
 20
-177.5140570302743
 10
105.991463189648
 20
-177.0875542092003
 10
106.0431396219267
 20
-176.5804361537716
 10
106.0944715446569
 20
-176.0733180983428
 10
106.5061604551443
 20
-175.6471597868174
 10
106.5061604551443
 20
-175.6471597868174
 10
106.5061604551443
 20
-175.6471597868174
 10
107.026369873417
 20
-176.1925184021324
 10
107.1307562666201
 20
-176.9552625425667
 10
107.2558132327347
 20
-177.8668348079639
 10
106.8809868439395
 20
-178.351904252287
 10
106.6456868222969
 20
-178.6750542088035
 97
        0
 92
        1
 93
        1
 72
     4
 94
        3
 73
     0
 74
     1
 95
       23
 96
       19
 40
0.0
 40
0.0
 40
0.0
 40
0.0
 40
1.0
 40
1.0
 40
1.0
 40
2.0
 40
2.0
 40
2.0
 40
3.0
 40
3.0
 40
3.0
 40
4.0
 40
4.0
 40
4.0
 40
5.0
 40
5.0
 40
5.0
 40
6.0
 40
6.0
 40
6.0
 40
6.0
 10
107.6158257109433
 20
-176.3740749342051
 10
107.5496798776265
 20
-177.0079725034911
 10
107.3402180721233
 20
-176.9363145173979
 10
107.3402180721233
 20
-176.9363145173979
 10
107.3402180721233
 20
-176.9363145173979
 10
107.3898274471109
 20
-176.6551947258015
 10
107.4008517526637
 20
-176.3134412536647
 10
107.4118760582165
 20
-175.9716877815279
 10
107.3739800078787
 20
-175.772905772029
 10
107.3953395998873
 20
-175.2881808372543
 10
107.4173882109929
 20
-174.7869194441505
 10
107.5717284887321
 20
-174.5333604164361
 10
107.5717284887321
 20
-174.5333604164361
 10
107.5717284887321
 20
-174.5333604164361
 10
107.6488986276017
 20
-174.9302354163369
 10
107.6488986276017
 20
-175.17242562895
 10
107.6488986276017
 20
-175.4149603511115
 10
107.6895507543276
 20
-175.6681748692774
 10
107.6158257109433
 20
-176.3740749342051
 97
        0
 92
        1
 93
        1
 72
     4
 94
        3
 73
     0
 74
     1
 95
       17
 96
       13
 40
0.0
 40
0.0
 40
0.0
 40
0.0
 40
1.0
 40
1.0
 40
1.0
 40
2.0
 40
2.0
 40
2.0
 40
3.0
 40
3.0
 40
3.0
 40
4.0
 40
4.0
 40
4.0
 40
4.0
 10
111.2245632317425
 20
-164.8726236566985
 10
110.6216715218238
 20
-165.6663736565001
 10
109.563338188755
 20
-165.4458875454441
 10
109.563338188755
 20
-165.4458875454441
 10
109.563338188755
 20
-165.4458875454441
 10
110.2947319602735
 20
-164.920165974395
 10
110.7835910096305
 20
-164.4316514345865
 10
111.2390326327805
 20
-163.9755207923395
 10
111.6948187654791
 20
-163.4615125459402
 10
111.6948187654791
 20
-163.4615125459402
 10
111.6948187654791
 20
-163.4615125459402
 10
111.8271104321127
 20
-164.0788736568969
 10
111.2245632317425
 20
-164.8726236566985
 97
        0
 75
     2
 76
     1
 98
        0
  0
ENDSEC
  0
SECTION
  2
OBJECTS
  0
DICTIONARY
  5
C
330
0
100
AcDbDictionary
281
     1
  3
ACAD_GROUP
350
D
  3
ACAD_LAYOUT
350
1A
  3
ACAD_MLINESTYLE
350
17
  3
ACAD_PLOTSETTINGS
350
19
  3
ACAD_PLOTSTYLENAME
350
E
  3
ACAD_TABLESTYLE
350
53
  3
ACAD_VISUALSTYLE
350
2A
  0
DICTIONARY
  5
D
102
{ACAD_REACTORS
330
C
102
}
330
C
100
AcDbDictionary
281
     1
  0
DICTIONARY
  5
1A
102
{ACAD_REACTORS
330
C
102
}
330
C
100
AcDbDictionary
281
     1
  3
Layout1
350
1E
  3
Layout2
350
26
  3
Model
350
22
  0
DICTIONARY
  5
17
102
{ACAD_REACTORS
330
C
102
}
330
C
100
AcDbDictionary
281
     1
  3
Standard
350
18
  0
DICTIONARY
  5
19
102
{ACAD_REACTORS
330
C
102
}
330
C
100
AcDbDictionary
281
     1
  0
ACDBDICTIONARYWDFLT
  5
E
102
{ACAD_REACTORS
330
C
102
}
330
C
100
AcDbDictionary
281
     1
  3
Normal
350
F
100
AcDbDictionaryWithDefault
340
F
  0
DICTIONARY
  5
53
102
{ACAD_REACTORS
330
C
102
}
330
C
100
AcDbDictionary
281
     1
  0
DICTIONARY
  5
2A
102
{ACAD_REACTORS
330
C
102
}
330
C
100
AcDbDictionary
281
     1
  3
2dWireframe
350
2F
  3
3D Hidden
350
31
  3
3dWireframe
350
30
  3
Basic
350
32
  3
Brighten
350
36
  3
ColorChange
350
3A
  3
Conceptual
350
34
  3
Dim
350
35
  3
Facepattern
350
39
  3
Flat
350
2B
  3
FlatWithEdges
350
2C
  3
Gouraud
350
2D
  3
GouraudWithEdges
350
2E
  3
Linepattern
350
38
  3
Realistic
350
33
  3
Thicken
350
37
  0
LAYOUT
  5
1E
102
{ACAD_REACTORS
330
1A
102
}
330
1A
100
AcDbPlotSettings
  1

  2
none_device
  4

  6

 40
0.0
 41
0.0
 42
0.0
 43
0.0
 44
0.0
 45
0.0
 46
0.0
 47
0.0
 48
0.0
 49
0.0
140
0.0
141
0.0
142
1.0
143
1.0
 70
   688
 72
     0
 73
     0
 74
     5
  7

 75
    16
 76
     0
 77
     2
 78
   300
147
1.0
148
0.0
149
0.0
100
AcDbLayout
  1
Layout1
 70
     1
 71
     1
 10
0.0
 20
0.0
 11
12.0
 21
9.0
 12
0.0
 22
0.0
 32
0.0
 14
1.000000000000000E+20
 24
1.000000000000000E+20
 34
1.000000000000000E+20
 15
-1.000000000000000E+20
 25
-1.000000000000000E+20
 35
-1.000000000000000E+20
146
0.0
 13
0.0
 23
0.0
 33
0.0
 16
1.0
 26
0.0
 36
0.0
 17
0.0
 27
1.0
 37
0.0
 76
     0
330
1B
  0
LAYOUT
  5
26
102
{ACAD_REACTORS
330
1A
102
}
330
1A
100
AcDbPlotSettings
  1

  2
none_device
  4

  6

 40
0.0
 41
0.0
 42
0.0
 43
0.0
 44
0.0
 45
0.0
 46
0.0
 47
0.0
 48
0.0
 49
0.0
140
0.0
141
0.0
142
1.0
143
1.0
 70
   688
 72
     0
 73
     0
 74
     5
  7

 75
    16
 76
     0
 77
     2
 78
   300
147
1.0
148
0.0
149
0.0
100
AcDbLayout
  1
Layout2
 70
     1
 71
     2
 10
0.0
 20
0.0
 11
0.0
 21
0.0
 12
0.0
 22
0.0
 32
0.0
 14
0.0
 24
0.0
 34
0.0
 15
0.0
 25
0.0
 35
0.0
146
0.0
 13
0.0
 23
0.0
 33
0.0
 16
1.0
 26
0.0
 36
0.0
 17
0.0
 27
1.0
 37
0.0
 76
     0
330
23
  0
LAYOUT
  5
22
102
{ACAD_REACTORS
330
1A
102
}
330
1A
100
AcDbPlotSettings
  1

  2
none_device
  4

  6

 40
0.0
 41
0.0
 42
0.0
 43
0.0
 44
0.0
 45
0.0
 46
0.0
 47
0.0
 48
0.0
 49
0.0
140
0.0
141
0.0
142
1.0
143
1.0
 70
  1712
 72
     0
 73
     0
 74
     0
  7

 75
     0
 76
     0
 77
     2
 78
   300
147
1.0
148
0.0
149
0.0
100
AcDbLayout
  1
Model
 70
     1
 71
     0
 10
0.0
 20
0.0
 11
12.0
 21
9.0
 12
0.0
 22
0.0
 32
0.0
 14
1.000000000000000E+20
 24
1.000000000000000E+20
 34
1.000000000000000E+20
 15
-1.000000000000000E+20
 25
-1.000000000000000E+20
 35
-1.000000000000000E+20
146
0.0
 13
0.0
 23
0.0
 33
0.0
 16
1.0
 26
0.0
 36
0.0
 17
0.0
 27
1.0
 37
0.0
 76
     0
330
1F
331
29
  0
MLINESTYLE
  5
18
102
{ACAD_REACTORS
330
17
102
}
330
17
100
AcDbMlineStyle
  2
Standard
 70
     0
  3

 62
   256
 51
90.0
 52
90.0
 71
     2
 49
0.5
 62
   256
  6
BYLAYER
 49
-0.5
 62
   256
  6
BYLAYER
  0
ACDBPLACEHOLDER
  5
F
102
{ACAD_REACTORS
330
E
102
}
330
E
  0
VISUALSTYLE
  5
2F
102
{ACAD_REACTORS
330
2A
102
}
330
2A
100
AcDbVisualStyle
  2
2dWireframe
 70
     4
 71
     0
 72
     2
 73
     0
 90
        0
 40
-0.6
 41
-30.0
 62
     5
 63
     7
421
 16777215
 74
     1
 91
        4
 64
     7
 65
   257
 75
     1
175
     1
 42
1.0
 92
        0
 66
   257
 43
1.0
 76
     1
 77
     6
 78
     2
 67
     7
 79
     5
170
     0
171
     0
290
     0
174
     0
 93
        1
 44
0.0
173
     0
291
     0
 45
0.0
1001
ACAD
1000
AcDbSavedByObjectVersion
1070
     0
  0
VISUALSTYLE
  5
31
102
{ACAD_REACTORS
330
2A
102
}
330
2A
100
AcDbVisualStyle
  2
3D Hidden
 70
     6
 71
     1
 72
     2
 73
     2
 90
        0
 40
-0.6
 41
-30.0
 62
     5
 63
     7
421
 16777215
 74
     2
 91
        2
 64
     7
 65
   257
 75
     2
175
     1
 42
40.0
 92
        0
 66
   257
 43
1.0
 76
     1
 77
     6
 78
     2
 67
     7
 79
     3
170
     0
171
     0
290
     0
174
     0
 93
        1
 44
0.0
173
     0
291
     0
 45
0.0
1001
ACAD
1000
AcDbSavedByObjectVersion
1070
     0
  0
VISUALSTYLE
  5
30
102
{ACAD_REACTORS
330
2A
102
}
330
2A
100
AcDbVisualStyle
  2
3dWireframe
 70
     5
 71
     0
 72
     2
 73
     0
 90
        0
 40
-0.6
 41
-30.0
 62
     5
 63
     7
421
 16777215
 74
     1
 91
        4
 64
     7
 65
   257
 75
     1
175
     1
 42
1.0
 92
        0
 66
   257
 43
1.0
 76
     1
 77
     6
 78
     2
 67
     7
 79
     5
170
     0
171
     0
290
     0
174
     0
 93
        1
 44
0.0
173
     0
291
     0
 45
0.0
1001
ACAD
1000
AcDbSavedByObjectVersion
1070
     0
  0
VISUALSTYLE
  5
32
102
{ACAD_REACTORS
330
2A
102
}
330
2A
100
AcDbVisualStyle
  2
Basic
 70
     7
 71
     1
 72
     0
 73
     1
 90
        0
 40
-0.6
 41
-30.0
 62
     5
 63
     7
421
 16777215
 74
     0
 91
        4
 64
     7
 65
   257
 75
     1
175
     1
 42
1.0
 92
        8
 66
     7
 43
1.0
 76
     1
 77
     6
 78
     2
 67
     7
 79
     5
170
     0
171
     0
290
     0
174
     0
 93
        1
 44
0.0
173
     0
291
     1
 45
0.0
1001
ACAD
1000
AcDbSavedByObjectVersion
1070
     0
  0
VISUALSTYLE
  5
36
102
{ACAD_REACTORS
330
2A
102
}
330
2A
100
AcDbVisualStyle
  2
Brighten
 70
    12
 71
     2
 72
     2
 73
     0
 90
        0
 40
-0.6
 41
-30.0
 62
     5
 63
     7
421
 16777215
 74
     1
 91
        4
 64
     7
 65
   257
 75
     1
175
     1
 42
1.0
 92
        8
 66
     7
 43
1.0
 76
     1
 77
     6
 78
     2
 67
     7
 79
     5
170
     0
171
     0
290
     0
174
     0
 93
        1
 44
50.0
173
     0
291
     1
 45
0.0
1001
ACAD
1000
AcDbSavedByObjectVersion
1070
     0
  0
VISUALSTYLE
  5
3A
102
{ACAD_REACTORS
330
2A
102
}
330
2A
100
AcDbVisualStyle
  2
ColorChange
 70
    16
 71
     2
 72
     2
 73
     3
 90
        0
 40
-0.6
 41
-30.0
 62
     5
 63
     8
421
  8421504
 74
     1
 91
        4
 64
     7
 65
   257
 75
     1
175
     1
 42
1.0
 92
        8
 66
     8
424
  8421504
 43
1.0
 76
     1
 77
     6
 78
     2
 67
     7
 79
     5
170
     0
171
     0
290
     0
174
     0
 93
        1
 44
0.0
173
     0
291
     1
 45
0.0
1001
ACAD
1000
AcDbSavedByObjectVersion
1070
     0
  0
VISUALSTYLE
  5
34
102
{ACAD_REACTORS
330
2A
102
}
330
2A
100
AcDbVisualStyle
  2
Conceptual
 70
     9
 71
     3
 72
     2
 73
     0
 90
        0
 40
-0.6
 41
-30.0
 62
     5
 63
     7
421
 16777215
 74
     2
 91
        2
 64
     7
 65
   257
 75
     1
175
     1
 42
40.0
 92
        8
 66
     7
 43
1.0
 76
     1
 77
     6
 78
     2
 67
     7
 79
     3
170
     0
171
     0
290
     0
174
     0
 93
        1
 44
0.0
173
     0
291
     0
 45
0.0
1001
ACAD
1000
AcDbSavedByObjectVersion
1070
     0
  0
VISUALSTYLE
  5
35
102
{ACAD_REACTORS
330
2A
102
}
330
2A
100
AcDbVisualStyle
  2
Dim
 70
    11
 71
     2
 72
     2
 73
     0
 90
        0
 40
-0.6
 41
-30.0
 62
     5
 63
     7
421
 16777215
 74
     1
 91
        4
 64
     7
 65
   257
 75
     1
175
     1
 42
1.0
 92
        8
 66
     7
 43
1.0
 76
     1
 77
     6
 78
     2
 67
     7
 79
     5
170
     0
171
     0
290
     0
174
     0
 93
        1
 44
-50.0
173
     0
291
     1
 45
0.0
1001
ACAD
1000
AcDbSavedByObjectVersion
1070
     0
  0
VISUALSTYLE
  5
39
102
{ACAD_REACTORS
330
2A
102
}
330
2A
100
AcDbVisualStyle
  2
Facepattern
 70
    15
 71
     2
 72
     2
 73
     0
 90
        0
 40
-0.6
 41
-30.0
 62
     5
 63
     7
421
 16777215
 74
     1
 91
        4
 64
     7
 65
   257
 75
     1
175
     1
 42
1.0
 92
        8
 66
     7
 43
1.0
 76
     1
 77
     6
 78
     2
 67
     7
 79
     5
170
     0
171
     0
290
     0
174
     0
 93
        1
 44
0.0
173
     0
291
     1
 45
0.0
1001
ACAD
1000
AcDbSavedByObjectVersion
1070
     0
  0
VISUALSTYLE
  5
2B
102
{ACAD_REACTORS
330
2A
102
}
330
2A
100
AcDbVisualStyle
  2
Flat
 70
     0
 71
     2
 72
     1
 73
     1
 90
        2
 40
-0.6
 41
30.0
 62
     5
 63
     7
421
 16777215
 74
     0
 91
        4
 64
     7
 65
   257
 75
     1
175
     1
 42
1.0
 92
        8
 66
     7
 43
1.0
 76
     1
 77
     6
 78
     2
 67
     7
 79
     5
170
     0
171
     0
290
     0
174
     0
 93
       13
 44
0.0
173
     0
291
     1
 45
0.0
1001
ACAD
1000
AcDbSavedByObjectVersion
1070
     0
  0
VISUALSTYLE
  5
2C
102
{ACAD_REACTORS
330
2A
102
}
330
2A
100
AcDbVisualStyle
  2
FlatWithEdges
 70
     1
 71
     2
 72
     1
 73
     1
 90
        2
 40
-0.6
 41
30.0
 62
     5
 63
     7
421
 16777215
 74
     1
 91
        4
 64
     7
 65
   257
 75
     1
175
     1
 42
1.0
 92
        0
 66
   257
 43
1.0
 76
     1
 77
     6
 78
     2
 67
     7
 79
     5
170
     0
171
     0
290
     0
174
     0
 93
       13
 44
0.0
173
     0
291
     1
 45
0.0
1001
ACAD
1000
AcDbSavedByObjectVersion
1070
     0
  0
VISUALSTYLE
  5
2D
102
{ACAD_REACTORS
330
2A
102
}
330
2A
100
AcDbVisualStyle
  2
Gouraud
 70
     2
 71
     2
 72
     2
 73
     1
 90
        2
 40
-0.6
 41
30.0
 62
     5
 63
     7
421
 16777215
 74
     0
 91
        4
 64
     7
 65
   257
 75
     1
175
     1
 42
1.0
 92
        0
 66
     7
 43
1.0
 76
     1
 77
     6
 78
     2
 67
     7
 79
     5
170
     0
171
     0
290
     0
174
     0
 93
       13
 44
0.0
173
     0
291
     1
 45
0.0
1001
ACAD
1000
AcDbSavedByObjectVersion
1070
     0
  0
VISUALSTYLE
  5
2E
102
{ACAD_REACTORS
330
2A
102
}
330
2A
100
AcDbVisualStyle
  2
GouraudWithEdges
 70
     3
 71
     2
 72
     2
 73
     1
 90
        2
 40
-0.6
 41
30.0
 62
     5
 63
     7
421
 16777215
 74
     1
 91
        4
 64
     7
 65
   257
 75
     1
175
     1
 42
1.0
 92
        0
 66
   257
 43
1.0
 76
     1
 77
     6
 78
     2
 67
     7
 79
     5
170
     0
171
     0
290
     0
174
     0
 93
       13
 44
0.0
173
     0
291
     1
 45
0.0
1001
ACAD
1000
AcDbSavedByObjectVersion
1070
     0
  0
VISUALSTYLE
  5
38
102
{ACAD_REACTORS
330
2A
102
}
330
2A
100
AcDbVisualStyle
  2
Linepattern
 70
    14
 71
     2
 72
     2
 73
     0
 90
        0
 40
-0.6
 41
-30.0
 62
     5
 63
     7
421
 16777215
 74
     1
 91
        4
 64
     7
 65
   257
 75
     7
175
     7
 42
1.0
 92
        8
 66
     7
 43
1.0
 76
     1
 77
     6
 78
     2
 67
     7
 79
     5
170
     0
171
     0
290
     0
174
     0
 93
        1
 44
0.0
173
     0
291
     1
 45
0.0
1001
ACAD
1000
AcDbSavedByObjectVersion
1070
     0
  0
VISUALSTYLE
  5
33
102
{ACAD_REACTORS
330
2A
102
}
330
2A
100
AcDbVisualStyle
  2
Realistic
 70
     8
 71
     2
 72
     2
 73
     0
 90
        0
 40
-0.6
 41
-30.0
 62
     5
 63
     7
421
 16777215
 74
     1
 91
        0
 64
     7
 65
   257
 75
     1
175
     1
 42
1.0
 92
        8
 66
     8
424
  7895160
 43
1.0
 76
     1
 77
     6
 78
     2
 67
     7
 79
     5
170
     0
171
     0
290
     0
174
     0
 93
       13
 44
0.0
173
     0
291
     0
 45
0.0
1001
ACAD
1000
AcDbSavedByObjectVersion
1070
     0
  0
VISUALSTYLE
  5
37
102
{ACAD_REACTORS
330
2A
102
}
330
2A
100
AcDbVisualStyle
  2
Thicken
 70
    13
 71
     2
 72
     2
 73
     0
 90
        0
 40
-0.6
 41
-30.0
 62
     5
 63
     7
421
 16777215
 74
     1
 91
        4
 64
     7
 65
   257
 75
     1
175
     1
 42
1.0
 92
       12
 66
     7
 43
1.0
 76
     1
 77
     6
 78
     2
 67
     7
 79
     5
170
     0
171
     0
290
     0
174
     0
 93
        1
 44
0.0
173
     0
291
     1
 45
0.0
1001
ACAD
1000
AcDbSavedByObjectVersion
1070
     0
  0
ENDSEC
  0
EOF
