  0
SECTION
  2
HEADER
  9
$ACADVER
  1
AC1018
  9
$ACADMAINTVER
 70
     0
  9
$DWGCODEPAGE
  3
ANSI_1252
  9
$INSBASE
 10
0.0
 20
0.0
 30
0.0
  9
$EXTMIN
 10
1.000000000000000E+20
 20
1.000000000000000E+20
 30
1.000000000000000E+20
  9
$EXTMAX
 10
-1.000000000000000E+20
 20
-1.000000000000000E+20
 30
-1.000000000000000E+20
  9
$LIMMIN
 10
0.0
 20
0.0
  9
$LIMMAX
 10
12.0
 20
9.0
  9
$ORTHOMODE
 70
     0
  9
$REGENMODE
 70
     1
  9
$FILLMODE
 70
     1
  9
$QTEXTMODE
 70
     0
  9
$MIRRTEXT
 70
     1
  9
$LTSCALE
 40
1.0
  9
$ATTMODE
 70
     1
  9
$TEXTSIZE
 40
0.2
  9
$TRACEWID
 40
0.05
  9
$TEXTSTYLE
  7
Standard
  9
$CLAYER
  8
0
  9
$CELTYPE
  6
ByLayer
  9
$CECOLOR
 62
   256
  9
$CELTSCALE
 40
1.0
  9
$DISPSILH
 70
     0
  9
$DIMSCALE
 40
1.0
  9
$DIMASZ
 40
0.18
  9
$DIMEXO
 40
0.0625
  9
$DIMDLI
 40
0.38
  9
$DIMRND
 40
0.0
  9
$DIMDLE
 40
0.0
  9
$DIMEXE
 40
0.18
  9
$DIMTP
 40
0.0
  9
$DIMTM
 40
0.0
  9
$DIMTXT
 40
0.18
  9
$DIMCEN
 40
0.09
  9
$DIMTSZ
 40
0.0
  9
$DIMTOL
 70
     0
  9
$DIMLIM
 70
     0
  9
$DIMTIH
 70
     1
  9
$DIMTOH
 70
     1
  9
$DIMSE1
 70
     0
  9
$DIMSE2
 70
     0
  9
$DIMTAD
 70
     0
  9
$DIMZIN
 70
     0
  9
$DIMBLK
  1

  9
$DIMASO
 70
     1
  9
$DIMSHO
 70
     1
  9
$DIMPOST
  1

  9
$DIMAPOST
  1

  9
$DIMALT
 70
     0
  9
$DIMALTD
 70
     2
  9
$DIMALTF
 40
25.4
  9
$DIMLFAC
 40
1.0
  9
$DIMTOFL
 70
     0
  9
$DIMTVP
 40
0.0
  9
$DIMTIX
 70
     0
  9
$DIMSOXD
 70
     0
  9
$DIMSAH
 70
     0
  9
$DIMBLK1
  1

  9
$DIMBLK2
  1

  9
$DIMSTYLE
  2
Standard
  9
$DIMCLRD
 70
     0
  9
$DIMCLRE
 70
     0
  9
$DIMCLRT
 70
     0
  9
$DIMTFAC
 40
1.0
  9
$DIMGAP
 40
0.09
  9
$DIMJUST
 70
     0
  9
$DIMSD1
 70
     0
  9
$DIMSD2
 70
     0
  9
$DIMTOLJ
 70
     1
  9
$DIMTZIN
 70
     0
  9
$DIMALTZ
 70
     0
  9
$DIMALTTZ
 70
     0
  9
$DIMUPT
 70
     0
  9
$DIMDEC
 70
     4
  9
$DIMTDEC
 70
     4
  9
$DIMALTU
 70
     2
  9
$DIMALTTD
 70
     2
  9
$DIMTXSTY
  7
Standard
  9
$DIMAUNIT
 70
     0
  9
$DIMADEC
 70
     0
  9
$DIMALTRND
 40
0.0
  9
$DIMAZIN
 70
     0
  9
$DIMDSEP
 70
    46
  9
$DIMATFIT
 70
     3
  9
$DIMFRAC
 70
     0
  9
$DIMLDRBLK
  1

  9
$DIMLUNIT
 70
     2
  9
$DIMLWD
 70
    -2
  9
$DIMLWE
 70
    -2
  9
$DIMTMOVE
 70
     0
  9
$LUNITS
 70
     2
  9
$LUPREC
 70
     4
  9
$SKETCHINC
 40
0.1
  9
$FILLETRAD
 40
0.5
  9
$AUNITS
 70
     0
  9
$AUPREC
 70
     0
  9
$MENU
  1
.
  9
$ELEVATION
 40
0.0
  9
$PELEVATION
 40
0.0
  9
$THICKNESS
 40
0.0
  9
$LIMCHECK
 70
     0
  9
$CHAMFERA
 40
0.5
  9
$CHAMFERB
 40
0.5
  9
$CHAMFERC
 40
1.0
  9
$CHAMFERD
 40
0.0
  9
$SKPOLY
 70
     0
  9
$TDCREATE
 40
2459950.696716562
  9
$TDUCREATE
 40
2459950.488383229
  9
$TDUPDATE
 40
2459950.696716574
  9
$TDUUPDATE
 40
2459950.488383241
  9
$TDINDWG
 40
0.0000000116
  9
$TDUSRTIMER
 40
0.0000000116
  9
$USRTIMER
 70
     1
  9
$ANGBASE
 50
0.0
  9
$ANGDIR
 70
     0
  9
$PDMODE
 70
     0
  9
$PDSIZE
 40
0.0
  9
$PLINEWID
 40
0.0
  9
$SPLFRAME
 70
     0
  9
$SPLINETYPE
 70
     6
  9
$SPLINESEGS
 70
     8
  9
$HANDSEED
  5
58
  9
$SURFTAB1
 70
     6
  9
$SURFTAB2
 70
     6
  9
$SURFTYPE
 70
     6
  9
$SURFU
 70
     6
  9
$SURFV
 70
     6
  9
$UCSBASE
  2

  9
$UCSNAME
  2

  9
$UCSORG
 10
0.0
 20
0.0
 30
0.0
  9
$UCSXDIR
 10
1.0
 20
0.0
 30
0.0
  9
$UCSYDIR
 10
0.0
 20
1.0
 30
0.0
  9
$UCSORTHOREF
  2

  9
$UCSORTHOVIEW
 70
     0
  9
$UCSORGTOP
 10
0.0
 20
0.0
 30
0.0
  9
$UCSORGBOTTOM
 10
0.0
 20
0.0
 30
0.0
  9
$UCSORGLEFT
 10
0.0
 20
0.0
 30
0.0
  9
$UCSORGRIGHT
 10
0.0
 20
0.0
 30
0.0
  9
$UCSORGFRONT
 10
0.0
 20
0.0
 30
0.0
  9
$UCSORGBACK
 10
0.0
 20
0.0
 30
0.0
  9
$PUCSBASE
  2

  9
$PUCSNAME
  2

  9
$PUCSORG
 10
0.0
 20
0.0
 30
0.0
  9
$PUCSXDIR
 10
1.0
 20
0.0
 30
0.0
  9
$PUCSYDIR
 10
0.0
 20
1.0
 30
0.0
  9
$PUCSORTHOREF
  2

  9
$PUCSORTHOVIEW
 70
     0
  9
$PUCSORGTOP
 10
0.0
 20
0.0
 30
0.0
  9
$PUCSORGBOTTOM
 10
0.0
 20
0.0
 30
0.0
  9
$PUCSORGLEFT
 10
0.0
 20
0.0
 30
0.0
  9
$PUCSORGRIGHT
 10
0.0
 20
0.0
 30
0.0
  9
$PUCSORGFRONT
 10
0.0
 20
0.0
 30
0.0
  9
$PUCSORGBACK
 10
0.0
 20
0.0
 30
0.0
  9
$USERI1
 70
     0
  9
$USERI2
 70
     0
  9
$USERI3
 70
     0
  9
$USERI4
 70
     0
  9
$USERI5
 70
     0
  9
$USERR1
 40
0.0
  9
$USERR2
 40
0.0
  9
$USERR3
 40
0.0
  9
$USERR4
 40
0.0
  9
$USERR5
 40
0.0
  9
$WORLDVIEW
 70
     1
  9
$SHADEDGE
 70
     3
  9
$SHADEDIF
 70
    70
  9
$TILEMODE
 70
     1
  9
$MAXACTVP
 70
    64
  9
$PINSBASE
 10
0.0
 20
0.0
 30
0.0
  9
$PLIMCHECK
 70
     0
  9
$PEXTMIN
 10
1.000000000000000E+20
 20
1.000000000000000E+20
 30
1.000000000000000E+20
  9
$PEXTMAX
 10
-1.000000000000000E+20
 20
-1.000000000000000E+20
 30
-1.000000000000000E+20
  9
$PLIMMIN
 10
0.0
 20
0.0
  9
$PLIMMAX
 10
12.0
 20
9.0
  9
$UNITMODE
 70
     0
  9
$VISRETAIN
 70
     1
  9
$PLINEGEN
 70
     0
  9
$PSLTSCALE
 70
     1
  9
$TREEDEPTH
 70
  3020
  9
$CMLSTYLE
  2
Standard
  9
$CMLJUST
 70
     0
  9
$CMLSCALE
 40
1.0
  9
$PROXYGRAPHICS
 70
     1
  9
$MEASUREMENT
 70
     0
  9
$CELWEIGHT
370
    -1
  9
$ENDCAPS
280
     0
  9
$JOINSTYLE
280
     0
  9
$LWDISPLAY
290
     1
  9
$INSUNITS
 70
     1
  9
$HYPERLINKBASE
  1

  9
$STYLESHEET
  1

  9
$XEDIT
290
     1
  9
$CEPSNTYPE
380
     0
  9
$PSTYLEMODE
290
     1
  9
$FINGERPRINTGUID
  2
{F9E4F238-6C17-4D40-BA30-00C27E7D7F39}
  9
$VERSIONGUID
  2
{FAEB1C32-E019-11D5-929B-00C0DF256EC4}
  9
$EXTNAMES
290
     1
  9
$PSVPSCALE
 40
0.0
  9
$OLESTARTUP
290
     0
  9
$SORTENTS
280
   127
  9
$INDEXCTL
280
     0
  9
$HIDETEXT
280
     1
  9
$XCLIPFRAME
290
     0
  9
$HALOGAP
280
     0
  9
$OBSCOLOR
 70
   257
  9
$OBSLTYPE
280
     0
  9
$INTERSECTIONDISPLAY
280
     0
  9
$INTERSECTIONCOLOR
 70
   257
  9
$DIMASSOC
280
     2
  9
$PROJECTNAME
  1

  0
ENDSEC
  0
SECTION
  2
CLASSES
  0
CLASS
  1
ACDBDICTIONARYWDFLT
  2
AcDbDictionaryWithDefault
  3
ObjectDBX Classes
 90
        0
 91
        3
280
     0
281
     0
  0
CLASS
  1
VISUALSTYLE
  2
AcDbVisualStyle
  3
ObjectDBX Classes
 90
     4095
 91
        3
280
     0
281
     0
  0
ENDSEC
  0
SECTION
  2
TABLES
  0
TABLE
  2
VPORT
  5
8
330
0
100
AcDbSymbolTable
 70
     1
  0
VPORT
  5
29
330
8
100
AcDbSymbolTableRecord
100
AcDbViewportTableRecord
  2
*Active
 70
     0
 10
0.0
 20
0.0
 11
1.0
 21
1.0
 12
0.0
 22
0.0
 13
0.0
 23
0.0
 14
0.5
 24
0.5
 15
0.5
 25
0.5
 16
0.0
 26
0.0
 36
1.0
 17
105.0008259828644
 27
-148.4999796178229
 37
0.0
 40
296.9999592356459
 41
0.7070763662937379
 42
50.0
 43
0.0
 44
0.0
 50
0.0
 51
0.0
 71
     0
 72
   100
 73
     1
 74
     3
 75
     0
 76
     0
 77
     0
 78
     0
281
     0
 65
     1
110
0.0
120
0.0
130
0.0
111
1.0
121
0.0
131
0.0
112
0.0
122
1.0
132
0.0
 79
     0
146
0.0
  0
ENDTAB
  0
TABLE
  2
LTYPE
  5
5
330
0
100
AcDbSymbolTable
 70
     1
  0
LTYPE
  5
14
330
5
100
AcDbSymbolTableRecord
100
AcDbLinetypeTableRecord
  2
ByBlock
 70
     0
  3

 72
    65
 73
     0
 40
0.0
  0
LTYPE
  5
15
330
5
100
AcDbSymbolTableRecord
100
AcDbLinetypeTableRecord
  2
ByLayer
 70
     0
  3

 72
    65
 73
     0
 40
0.0
  0
LTYPE
  5
16
330
5
100
AcDbSymbolTableRecord
100
AcDbLinetypeTableRecord
  2
Continuous
 70
     0
  3
Solid line
 72
    65
 73
     0
 40
0.0
  0
ENDTAB
  0
TABLE
  2
LAYER
  5
2
330
0
100
AcDbSymbolTable
 70
     2
  0
LAYER
  5
10
330
2
100
AcDbSymbolTableRecord
100
AcDbLayerTableRecord
  2
0
 70
     0
 62
     7
  6
Continuous
370
    -3
390
F
  0
LAYER
  5
3B
330
2
100
AcDbSymbolTableRecord
100
AcDbLayerTableRecord
  2
Layer 1
 70
     0
 62
     7
  6
Continuous
370
    -3
390
F
  0
ENDTAB
  0
TABLE
  2
STYLE
  5
3
330
0
100
AcDbSymbolTable
 70
     1
  0
STYLE
  5
11
330
3
100
AcDbSymbolTableRecord
100
AcDbTextStyleTableRecord
  2
Standard
 70
     0
 40
0.0
 41
1.0
 50
0.0
 71
     0
 42
0.2
  3
txt
  4

  0
ENDTAB
  0
TABLE
  2
VIEW
  5
6
330
0
100
AcDbSymbolTable
 70
     0
  0
ENDTAB
  0
TABLE
  2
UCS
  5
7
330
0
100
AcDbSymbolTable
 70
     0
  0
ENDTAB
  0
TABLE
  2
APPID
  5
9
330
0
100
AcDbSymbolTable
 70
     1
  0
APPID
  5
12
330
9
100
AcDbSymbolTableRecord
100
AcDbRegAppTableRecord
  2
ACAD
 70
     0
  0
ENDTAB
  0
TABLE
  2
DIMSTYLE
  5
A
330
0
100
AcDbSymbolTable
 70
     1
100
AcDbDimStyleTable
  0
DIMSTYLE
105
27
330
A
100
AcDbSymbolTableRecord
100
AcDbDimStyleTableRecord
  2
Standard
 70
     0
340
11
  0
ENDTAB
  0
TABLE
  2
BLOCK_RECORD
  5
1
330
0
100
AcDbSymbolTable
 70
     1
  0
BLOCK_RECORD
  5
1F
330
1
100
AcDbSymbolTableRecord
100
AcDbBlockTableRecord
  2
*Model_Space
340
22
  0
BLOCK_RECORD
  5
1B
330
1
100
AcDbSymbolTableRecord
100
AcDbBlockTableRecord
  2
*Paper_Space
340
1E
  0
BLOCK_RECORD
  5
23
330
1
100
AcDbSymbolTableRecord
100
AcDbBlockTableRecord
  2
*Paper_Space0
340
26
  0
ENDTAB
  0
ENDSEC
  0
SECTION
  2
BLOCKS
  0
BLOCK
  5
20
330
1F
100
AcDbEntity
  8
0
100
AcDbBlockBegin
  2
*Model_Space
 70
     0
 71
     0
 10
0.0
 20
0.0
 30
0.0
  3
*Model_Space
  1

  0
ENDBLK
  5
21
330
1F
100
AcDbEntity
  8
0
100
AcDbBlockEnd
  0
BLOCK
  5
1C
330
1B
100
AcDbEntity
 67
     1
  8
0
100
AcDbBlockBegin
  2
*Paper_Space
 70
     0
 71
     0
 10
0.0
 20
0.0
 30
0.0
  3
*Paper_Space
  1

  0
ENDBLK
  5
1D
330
1B
100
AcDbEntity
 67
     1
  8
0
100
AcDbBlockEnd
  0
BLOCK
  5
24
330
23
100
AcDbEntity
  8
0
100
AcDbBlockBegin
  2
*Paper_Space0
 70
     0
 71
     0
 10
0.0
 20
0.0
 30
0.0
  3
*Paper_Space0
  1

  0
ENDBLK
  5
25
330
23
100
AcDbEntity
  8
0
100
AcDbBlockEnd
  0
ENDSEC
  0
SECTION
  2
ENTITIES
  0
SPLINE
  5
3C
330
1F
100
AcDbEntity
  8
Layer 1
370
     0
100
AcDbSpline
210
0.0
220
0.0
230
1.0
 70
    11
 71
     3
 72
    20
 73
    16
 74
     0
 42
0.0000000001
 43
0.0000000001
 40
0.0
 40
0.0
 40
0.0
 40
0.0
 40
1.0
 40
1.0
 40
1.0
 40
2.0
 40
2.0
 40
2.0
 40
3.0
 40
3.0
 40
3.0
 40
4.0
 40
4.0
 40
4.0
 40
5.0
 40
5.0
 40
5.0
 40
5.0
 10
83.5649251093171
 20
-143.9474581888395
 30
0.0
 10
83.5649251093171
 20
-143.9474581888395
 30
0.0
 10
83.5649251093171
 20
-181.0221977629042
 30
0.0
 10
83.5649251093171
 20
-181.0221977629042
 30
0.0
 10
83.5649251093171
 20
-181.0221977629042
 30
0.0
 10
88.51862790755784
 20
-181.0221977629042
 30
0.0
 10
88.51862790755784
 20
-181.0221977629042
 30
0.0
 10
88.51862790755784
 20
-181.0221977629042
 30
0.0
 10
88.51862790755784
 20
-149.9085069069673
 30
0.0
 10
88.51862790755784
 20
-149.9085069069673
 30
0.0
 10
88.51862790755784
 20
-149.9085069069673
 30
0.0
 10
87.22499455284654
 20
-147.8138888519354
 30
0.0
 10
86.36509871972818
 20
-146.7555555188667
 30
0.0
 10
84.96673446226526
 20
-145.0343858144359
 30
0.0
 10
83.5649251093171
 20
-143.9474581888395
 30
0.0
 10
83.5649251093171
 20
-143.9474581888395
 30
0.0
  0
HATCH
  5
3D
330
1F
100
AcDbEntity
  8
Layer 1
 62
   250
420
  2763306
100
AcDbHatch
 10
0.0
 20
0.0
 30
0.0
210
0.0
220
0.0
230
1.0
  2
SOLID
 70
     1
 71
     0
 91
        1
 92
        1
 93
        1
 72
     4
 94
        3
 73
     0
 74
     1
 95
       20
 96
       16
 40
0.0
 40
0.0
 40
0.0
 40
0.0
 40
1.0
 40
1.0
 40
1.0
 40
2.0
 40
2.0
 40
2.0
 40
3.0
 40
3.0
 40
3.0
 40
4.0
 40
4.0
 40
4.0
 40
5.0
 40
5.0
 40
5.0
 40
5.0
 10
83.5649251093171
 20
-143.9474581888395
 10
83.5649251093171
 20
-143.9474581888395
 10
83.5649251093171
 20
-181.0221977629042
 10
83.5649251093171
 20
-181.0221977629042
 10
83.5649251093171
 20
-181.0221977629042
 10
88.51862790755784
 20
-181.0221977629042
 10
88.51862790755784
 20
-181.0221977629042
 10
88.51862790755784
 20
-181.0221977629042
 10
88.51862790755784
 20
-149.9085069069673
 10
88.51862790755784
 20
-149.9085069069673
 10
88.51862790755784
 20
-149.9085069069673
 10
87.22499455284654
 20
-147.8138888519354
 10
86.36509871972818
 20
-146.7555555188667
 10
84.96673446226526
 20
-145.0343858144359
 10
83.5649251093171
 20
-143.9474581888395
 10
83.5649251093171
 20
-143.9474581888395
 97
        0
 75
     2
 76
     1
 98
        0
  0
SPLINE
  5
3E
330
1F
100
AcDbEntity
  8
Layer 1
370
     0
100
AcDbSpline
210
0.0
220
0.0
230
1.0
 70
    11
 71
     3
 72
    20
 73
    16
 74
     0
 42
0.0000000001
 43
0.0000000001
 40
0.0
 40
0.0
 40
0.0
 40
0.0
 40
1.0
 40
1.0
 40
1.0
 40
2.0
 40
2.0
 40
2.0
 40
3.0
 40
3.0
 40
3.0
 40
4.0
 40
4.0
 40
4.0
 40
5.0
 40
5.0
 40
5.0
 40
5.0
 10
126.1483723642963
 20
-143.9474581888395
 30
0.0
 10
126.1483723642963
 20
-143.9474581888395
 30
0.0
 10
126.1483723642963
 20
-181.0221977629042
 30
0.0
 10
126.1483723642963
 20
-181.0221977629042
 30
0.0
 10
126.1483723642963
 20
-181.0221977629042
 30
0.0
 10
121.1946695660555
 20
-181.0221977629042
 30
0.0
 10
121.1946695660555
 20
-181.0221977629042
 30
0.0
 10
121.1946695660555
 20
-181.0221977629042
 30
0.0
 10
121.1946695660555
 20
-149.9085069069673
 30
0.0
 10
121.1946695660555
 20
-149.9085069069673
 30
0.0
 10
121.1946695660555
 20
-149.9085069069673
 30
0.0
 10
122.4883029207668
 20
-147.8138888519354
 30
0.0
 10
123.3481987538852
 20
-146.7555555188667
 30
0.0
 10
124.7465630113481
 20
-145.0343858144359
 30
0.0
 10
126.1483723642963
 20
-143.9474581888395
 30
0.0
 10
126.1483723642963
 20
-143.9474581888395
 30
0.0
  0
HATCH
  5
3F
330
1F
100
AcDbEntity
  8
Layer 1
 62
   250
420
  2763306
100
AcDbHatch
 10
0.0
 20
0.0
 30
0.0
210
0.0
220
0.0
230
1.0
  2
SOLID
 70
     1
 71
     0
 91
        1
 92
        1
 93
        1
 72
     4
 94
        3
 73
     0
 74
     1
 95
       20
 96
       16
 40
0.0
 40
0.0
 40
0.0
 40
0.0
 40
1.0
 40
1.0
 40
1.0
 40
2.0
 40
2.0
 40
2.0
 40
3.0
 40
3.0
 40
3.0
 40
4.0
 40
4.0
 40
4.0
 40
5.0
 40
5.0
 40
5.0
 40
5.0
 10
126.1483723642963
 20
-143.9474581888395
 10
126.1483723642963
 20
-143.9474581888395
 10
126.1483723642963
 20
-181.0221977629042
 10
126.1483723642963
 20
-181.0221977629042
 10
126.1483723642963
 20
-181.0221977629042
 10
121.1946695660555
 20
-181.0221977629042
 10
121.1946695660555
 20
-181.0221977629042
 10
121.1946695660555
 20
-181.0221977629042
 10
121.1946695660555
 20
-149.9085069069673
 10
121.1946695660555
 20
-149.9085069069673
 10
121.1946695660555
 20
-149.9085069069673
 10
122.4883029207668
 20
-147.8138888519354
 10
123.3481987538852
 20
-146.7555555188667
 10
124.7465630113481
 20
-145.0343858144359
 10
126.1483723642963
 20
-143.9474581888395
 10
126.1483723642963
 20
-143.9474581888395
 97
        0
 75
     2
 76
     1
 98
        0
  0
SPLINE
  5
40
330
1F
100
AcDbEntity
  8
Layer 1
370
     0
100
AcDbSpline
210
0.0
220
0.0
230
1.0
 70
    11
 71
     3
 72
    29
 73
    25
 74
     0
 42
0.0000000001
 43
0.0000000001
 40
0.0
 40
0.0
 40
0.0
 40
0.0
 40
1.0
 40
1.0
 40
1.0
 40
2.0
 40
2.0
 40
2.0
 40
3.0
 40
3.0
 40
3.0
 40
4.0
 40
4.0
 40
4.0
 40
5.0
 40
5.0
 40
5.0
 40
6.0
 40
6.0
 40
6.0
 40
7.0
 40
7.0
 40
7.0
 40
8.0
 40
8.0
 40
8.0
 40
8.0
 10
84.56434730958809
 20
-127.6690375114855
 30
0.0
 10
84.56434730958809
 20
-127.6690375114855
 30
0.0
 10
86.47499726570764
 20
-128.5478813697728
 30
0.0
 10
88.19513344149289
 20
-131.0348958005746
 30
0.0
 10
90.0251681632576
 20
-133.6807291332465
 30
0.0
 10
91.17169594074875
 20
-137.0541666324031
 30
0.0
 10
91.30398760738234
 20
-139.1267360763294
 30
0.0
 10
91.4318006498851
 20
-141.1248914577743
 30
0.0
 10
91.10555010743195
 20
-142.4781249643805
 30
0.0
 10
91.10555010743195
 20
-142.4781249643805
 30
0.0
 10
91.10555010743195
 20
-142.4781249643805
 30
0.0
 10
89.13529999941757
 20
-141.8848795218205
 30
0.0
 10
87.24704316395213
 20
-141.6182291312621
 30
0.0
 10
85.37291121997622
 20
-141.3536457979949
 30
0.0
 10
83.07985566499393
 20
-141.4638888535229
 30
0.0
 10
83.07985566499393
 20
-141.4638888535229
 30
0.0
 10
83.07985566499393
 20
-141.4638888535229
 30
0.0
 10
83.96180010921789
 20
-140.251215242715
 30
0.0
 10
84.77759872012504
 20
-138.5975694097951
 30
0.0
 10
85.55240069475774
 20
-137.0272948876182
 30
0.0
 10
86.05641816424979
 20
-134.2319444108865
 30
0.0
 10
85.9020778865106
 20
-132.0932291336434
 30
0.0
 10
85.74325898464058
 20
-129.8897460612776
 30
0.0
 10
84.56434730958809
 20
-127.6690375114855
 30
0.0
 10
84.56434730958809
 20
-127.6690375114855
 30
0.0
  0
HATCH
  5
41
330
1F
100
AcDbEntity
  8
Layer 1
 62
   250
420
  4341308
100
AcDbHatch
 10
0.0
 20
0.0
 30
0.0
210
0.0
220
0.0
230
1.0
  2
SOLID
 70
     1
 71
     0
 91
        1
 92
        1
 93
        1
 72
     4
 94
        3
 73
     0
 74
     1
 95
       29
 96
       25
 40
0.0
 40
0.0
 40
0.0
 40
0.0
 40
1.0
 40
1.0
 40
1.0
 40
2.0
 40
2.0
 40
2.0
 40
3.0
 40
3.0
 40
3.0
 40
4.0
 40
4.0
 40
4.0
 40
5.0
 40
5.0
 40
5.0
 40
6.0
 40
6.0
 40
6.0
 40
7.0
 40
7.0
 40
7.0
 40
8.0
 40
8.0
 40
8.0
 40
8.0
 10
84.56434730958809
 20
-127.6690375114855
 10
84.56434730958809
 20
-127.6690375114855
 10
86.47499726570764
 20
-128.5478813697728
 10
88.19513344149289
 20
-131.0348958005746
 10
90.0251681632576
 20
-133.6807291332465
 10
91.17169594074875
 20
-137.0541666324031
 10
91.30398760738234
 20
-139.1267360763294
 10
91.4318006498851
 20
-141.1248914577743
 10
91.10555010743195
 20
-142.4781249643805
 10
91.10555010743195
 20
-142.4781249643805
 10
91.10555010743195
 20
-142.4781249643805
 10
89.13529999941757
 20
-141.8848795218205
 10
87.24704316395213
 20
-141.6182291312621
 10
85.37291121997622
 20
-141.3536457979949
 10
83.07985566499393
 20
-141.4638888535229
 10
83.07985566499393
 20
-141.4638888535229
 10
83.07985566499393
 20
-141.4638888535229
 10
83.96180010921789
 20
-140.251215242715
 10
84.77759872012504
 20
-138.5975694097951
 10
85.55240069475774
 20
-137.0272948876182
 10
86.05641816424979
 20
-134.2319444108865
 10
85.9020778865106
 20
-132.0932291336434
 10
85.74325898464058
 20
-129.8897460612776
 10
84.56434730958809
 20
-127.6690375114855
 10
84.56434730958809
 20
-127.6690375114855
 97
        0
 75
     2
 76
     1
 98
        0
  0
SPLINE
  5
42
330
1F
100
AcDbEntity
  8
Layer 1
370
     0
100
AcDbSpline
210
0.0
220
0.0
230
1.0
 70
    11
 71
     3
 72
    23
 73
    19
 74
     0
 42
0.0000000001
 43
0.0000000001
 40
0.0
 40
0.0
 40
0.0
 40
0.0
 40
1.0
 40
1.0
 40
1.0
 40
2.0
 40
2.0
 40
2.0
 40
3.0
 40
3.0
 40
3.0
 40
4.0
 40
4.0
 40
4.0
 40
5.0
 40
5.0
 40
5.0
 40
6.0
 40
6.0
 40
6.0
 40
6.0
 10
79.92690427689328
 20
-120.1428819144087
 30
0.0
 10
79.92690427689328
 20
-120.1428819144087
 30
0.0
 10
81.26084524878202
 20
-121.0799478863967
 30
0.0
 10
82.99166122057153
 20
-121.5980902473783
 30
0.0
 10
85.59167478328959
 20
-122.3763373174962
 30
0.0
 10
88.31261119753991
 20
-123.3475097347881
 30
0.0
 10
89.78263344109601
 20
-125.8314235796533
 30
0.0
 10
91.45798337557301
 20
-128.6629475589801
 30
0.0
 10
90.39999455205279
 20
-132.4019096891217
 30
0.0
 10
90.39999455205279
 20
-132.4019096891217
 30
0.0
 10
90.39999455205279
 20
-132.4019096891217
 30
0.0
 10
89.7133870218425
 20
-129.9834526584764
 30
0.0
 10
88.16585012986826
 20
-128.227142980096
 30
0.0
 10
86.36509871972818
 20
-126.1842013573428
 30
0.0
 10
84.00589733142908
 20
-125.8462374902398
 30
0.0
 10
82.28610566519237
 20
-124.4644096911061
 30
0.0
 10
80.37855629500953
 20
-122.932031219267
 30
0.0
 10
79.92690427689328
 20
-120.1428819144087
 30
0.0
 10
79.92690427689328
 20
-120.1428819144087
 30
0.0
  0
HATCH
  5
43
330
1F
100
AcDbEntity
  8
Layer 1
 62
   250
420
  4341308
100
AcDbHatch
 10
0.0
 20
0.0
 30
0.0
210
0.0
220
0.0
230
1.0
  2
SOLID
 70
     1
 71
     0
 91
        1
 92
        1
 93
        1
 72
     4
 94
        3
 73
     0
 74
     1
 95
       23
 96
       19
 40
0.0
 40
0.0
 40
0.0
 40
0.0
 40
1.0
 40
1.0
 40
1.0
 40
2.0
 40
2.0
 40
2.0
 40
3.0
 40
3.0
 40
3.0
 40
4.0
 40
4.0
 40
4.0
 40
5.0
 40
5.0
 40
5.0
 40
6.0
 40
6.0
 40
6.0
 40
6.0
 10
79.92690427689328
 20
-120.1428819144087
 10
79.92690427689328
 20
-120.1428819144087
 10
81.26084524878202
 20
-121.0799478863967
 10
82.99166122057153
 20
-121.5980902473783
 10
85.59167478328959
 20
-122.3763373174962
 10
88.31261119753991
 20
-123.3475097347881
 10
89.78263344109601
 20
-125.8314235796533
 10
91.45798337557301
 20
-128.6629475589801
 10
90.39999455205279
 20
-132.4019096891217
 10
90.39999455205279
 20
-132.4019096891217
 10
90.39999455205279
 20
-132.4019096891217
 10
89.7133870218425
 20
-129.9834526584764
 10
88.16585012986826
 20
-128.227142980096
 10
86.36509871972818
 20
-126.1842013573428
 10
84.00589733142908
 20
-125.8462374902398
 10
82.28610566519237
 20
-124.4644096911061
 10
80.37855629500953
 20
-122.932031219267
 10
79.92690427689328
 20
-120.1428819144087
 10
79.92690427689328
 20
-120.1428819144087
 97
        0
 75
     2
 76
     1
 98
        0
  0
SPLINE
  5
44
330
1F
100
AcDbEntity
  8
Layer 1
370
     0
100
AcDbSpline
210
0.0
220
0.0
230
1.0
 70
    11
 71
     3
 72
    17
 73
    13
 74
     0
 42
0.0000000001
 43
0.0000000001
 40
0.0
 40
0.0
 40
0.0
 40
0.0
 40
1.0
 40
1.0
 40
1.0
 40
2.0
 40
2.0
 40
2.0
 40
3.0
 40
3.0
 40
3.0
 40
4.0
 40
4.0
 40
4.0
 40
4.0
 10
83.11292858165233
 20
-119.8121527478247
 30
0.0
 10
83.11292858165233
 20
-119.8121527478247
 30
0.0
 10
82.27508135963957
 20
-118.7979166369672
 30
0.0
 10
82.19791122076997
 20
-117.2324652484697
 30
0.0
 10
82.1265977442253
 20
-115.7827690682765
 30
0.0
 10
81.04173717592012
 20
-115.3979519025741
 30
0.0
 10
80.25763344347726
 20
-116.8355902485689
 30
0.0
 10
79.86075844357649
 20
-117.5631944150537
 30
0.0
 10
80.22456052681886
 20
-118.4671874703832
 30
0.0
 10
81.23879663767642
 20
-119.0735242757872
 30
0.0
 10
82.0232448796678
 20
-119.5427462808782
 30
0.0
 10
83.11292858165233
 20
-119.8121527478247
 30
0.0
 10
83.11292858165233
 20
-119.8121527478247
 30
0.0
  0
HATCH
  5
45
330
1F
100
AcDbEntity
  8
Layer 1
 62
   250
420
  4341308
100
AcDbHatch
 10
0.0
 20
0.0
 30
0.0
210
0.0
220
0.0
230
1.0
  2
SOLID
 70
     1
 71
     0
 91
        1
 92
        1
 93
        1
 72
     4
 94
        3
 73
     0
 74
     1
 95
       17
 96
       13
 40
0.0
 40
0.0
 40
0.0
 40
0.0
 40
1.0
 40
1.0
 40
1.0
 40
2.0
 40
2.0
 40
2.0
 40
3.0
 40
3.0
 40
3.0
 40
4.0
 40
4.0
 40
4.0
 40
4.0
 10
83.11292858165233
 20
-119.8121527478247
 10
83.11292858165233
 20
-119.8121527478247
 10
82.27508135963957
 20
-118.7979166369672
 10
82.19791122076997
 20
-117.2324652484697
 10
82.1265977442253
 20
-115.7827690682765
 10
81.04173717592012
 20
-115.3979519025741
 10
80.25763344347726
 20
-116.8355902485689
 10
79.86075844357649
 20
-117.5631944150537
 10
80.22456052681886
 20
-118.4671874703832
 10
81.23879663767642
 20
-119.0735242757872
 10
82.0232448796678
 20
-119.5427462808782
 10
83.11292858165233
 20
-119.8121527478247
 10
83.11292858165233
 20
-119.8121527478247
 97
        0
 75
     2
 76
     1
 98
        0
  0
SPLINE
  5
46
330
1F
100
AcDbEntity
  8
Layer 1
370
     0
100
AcDbSpline
210
0.0
220
0.0
230
1.0
 70
    11
 71
     3
 72
    29
 73
    25
 74
     0
 42
0.0000000001
 43
0.0000000001
 40
0.0
 40
0.0
 40
0.0
 40
0.0
 40
1.0
 40
1.0
 40
1.0
 40
2.0
 40
2.0
 40
2.0
 40
3.0
 40
3.0
 40
3.0
 40
4.0
 40
4.0
 40
4.0
 40
5.0
 40
5.0
 40
5.0
 40
6.0
 40
6.0
 40
6.0
 40
7.0
 40
7.0
 40
7.0
 40
8.0
 40
8.0
 40
8.0
 40
8.0
 10
125.1489501640253
 20
-127.6690375114855
 30
0.0
 10
125.1489501640253
 20
-127.6690375114855
 30
0.0
 10
123.2383002079057
 20
-128.5478813697728
 30
0.0
 10
121.5181640321205
 20
-131.0348958005746
 30
0.0
 10
119.6881293103557
 20
-133.6807291332465
 30
0.0
 10
118.5416015328646
 20
-137.0541666324031
 30
0.0
 10
118.409309866231
 20
-139.1267360763294
 30
0.0
 10
118.2814968237282
 20
-141.1248914577743
 30
0.0
 10
118.6077473661814
 20
-142.4781249643805
 30
0.0
 10
118.6077473661814
 20
-142.4781249643805
 30
0.0
 10
118.6077473661814
 20
-142.4781249643805
 30
0.0
 10
120.5779974741958
 20
-141.8848795218205
 30
0.0
 10
122.4662543096612
 20
-141.6182291312621
 30
0.0
 10
124.3403862536371
 20
-141.3536457979949
 30
0.0
 10
126.6334418086194
 20
-141.4638888535229
 30
0.0
 10
126.6334418086194
 20
-141.4638888535229
 30
0.0
 10
126.6334418086194
 20
-141.4638888535229
 30
0.0
 10
125.7514973643955
 20
-140.251215242715
 30
0.0
 10
124.9356987534883
 20
-138.5975694097951
 30
0.0
 10
124.1608967788556
 20
-137.0272948876182
 30
0.0
 10
123.6568793093636
 20
-134.2319444108865
 30
0.0
 10
123.8112195871028
 20
-132.0932291336434
 30
0.0
 10
123.9700384889728
 20
-129.8897460612776
 30
0.0
 10
125.1489501640253
 20
-127.6690375114855
 30
0.0
 10
125.1489501640253
 20
-127.6690375114855
 30
0.0
  0
HATCH
  5
47
330
1F
100
AcDbEntity
  8
Layer 1
 62
   250
420
  4341308
100
AcDbHatch
 10
0.0
 20
0.0
 30
0.0
210
0.0
220
0.0
230
1.0
  2
SOLID
 70
     1
 71
     0
 91
        1
 92
        1
 93
        1
 72
     4
 94
        3
 73
     0
 74
     1
 95
       29
 96
       25
 40
0.0
 40
0.0
 40
0.0
 40
0.0
 40
1.0
 40
1.0
 40
1.0
 40
2.0
 40
2.0
 40
2.0
 40
3.0
 40
3.0
 40
3.0
 40
4.0
 40
4.0
 40
4.0
 40
5.0
 40
5.0
 40
5.0
 40
6.0
 40
6.0
 40
6.0
 40
7.0
 40
7.0
 40
7.0
 40
8.0
 40
8.0
 40
8.0
 40
8.0
 10
125.1489501640253
 20
-127.6690375114855
 10
125.1489501640253
 20
-127.6690375114855
 10
123.2383002079057
 20
-128.5478813697728
 10
121.5181640321205
 20
-131.0348958005746
 10
119.6881293103557
 20
-133.6807291332465
 10
118.5416015328646
 20
-137.0541666324031
 10
118.409309866231
 20
-139.1267360763294
 10
118.2814968237282
 20
-141.1248914577743
 10
118.6077473661814
 20
-142.4781249643805
 10
118.6077473661814
 20
-142.4781249643805
 10
118.6077473661814
 20
-142.4781249643805
 10
120.5779974741958
 20
-141.8848795218205
 10
122.4662543096612
 20
-141.6182291312621
 10
124.3403862536371
 20
-141.3536457979949
 10
126.6334418086194
 20
-141.4638888535229
 10
126.6334418086194
 20
-141.4638888535229
 10
126.6334418086194
 20
-141.4638888535229
 10
125.7514973643955
 20
-140.251215242715
 10
124.9356987534883
 20
-138.5975694097951
 10
124.1608967788556
 20
-137.0272948876182
 10
123.6568793093636
 20
-134.2319444108865
 10
123.8112195871028
 20
-132.0932291336434
 10
123.9700384889728
 20
-129.8897460612776
 10
125.1489501640253
 20
-127.6690375114855
 10
125.1489501640253
 20
-127.6690375114855
 97
        0
 75
     2
 76
     1
 98
        0
  0
SPLINE
  5
48
330
1F
100
AcDbEntity
  8
Layer 1
370
     0
100
AcDbSpline
210
0.0
220
0.0
230
1.0
 70
    11
 71
     3
 72
    23
 73
    19
 74
     0
 42
0.0000000001
 43
0.0000000001
 40
0.0
 40
0.0
 40
0.0
 40
0.0
 40
1.0
 40
1.0
 40
1.0
 40
2.0
 40
2.0
 40
2.0
 40
3.0
 40
3.0
 40
3.0
 40
4.0
 40
4.0
 40
4.0
 40
5.0
 40
5.0
 40
5.0
 40
6.0
 40
6.0
 40
6.0
 40
6.0
 10
129.7863931967201
 20
-120.1428819144087
 30
0.0
 10
129.7863931967201
 20
-120.1428819144087
 30
0.0
 10
128.4524522248313
 20
-121.0799478863967
 30
0.0
 10
126.7216362530418
 20
-121.5980902473783
 30
0.0
 10
124.1216226903238
 20
-122.3763373174962
 30
0.0
 10
121.4006862760734
 20
-123.3475097347881
 30
0.0
 10
119.9306640325173
 20
-125.8314235796533
 30
0.0
 10
118.2553140980403
 20
-128.6629475589801
 30
0.0
 10
119.3133029215606
 20
-132.4019096891217
 30
0.0
 10
119.3133029215606
 20
-132.4019096891217
 30
0.0
 10
119.3133029215606
 20
-132.4019096891217
 30
0.0
 10
119.9999104517709
 20
-129.9834526584764
 30
0.0
 10
121.5474473437451
 20
-128.227142980096
 30
0.0
 10
123.3481987538852
 20
-126.1842013573428
 30
0.0
 10
125.7074001421843
 20
-125.8462374902398
 30
0.0
 10
127.427191808421
 20
-124.4644096911061
 30
0.0
 10
129.3347411786038
 20
-122.932031219267
 30
0.0
 10
129.7863931967201
 20
-120.1428819144087
 30
0.0
 10
129.7863931967201
 20
-120.1428819144087
 30
0.0
  0
HATCH
  5
49
330
1F
100
AcDbEntity
  8
Layer 1
 62
   250
420
  4341308
100
AcDbHatch
 10
0.0
 20
0.0
 30
0.0
210
0.0
220
0.0
230
1.0
  2
SOLID
 70
     1
 71
     0
 91
        1
 92
        1
 93
        1
 72
     4
 94
        3
 73
     0
 74
     1
 95
       23
 96
       19
 40
0.0
 40
0.0
 40
0.0
 40
0.0
 40
1.0
 40
1.0
 40
1.0
 40
2.0
 40
2.0
 40
2.0
 40
3.0
 40
3.0
 40
3.0
 40
4.0
 40
4.0
 40
4.0
 40
5.0
 40
5.0
 40
5.0
 40
6.0
 40
6.0
 40
6.0
 40
6.0
 10
129.7863931967201
 20
-120.1428819144087
 10
129.7863931967201
 20
-120.1428819144087
 10
128.4524522248313
 20
-121.0799478863967
 10
126.7216362530418
 20
-121.5980902473783
 10
124.1216226903238
 20
-122.3763373174962
 10
121.4006862760734
 20
-123.3475097347881
 10
119.9306640325173
 20
-125.8314235796533
 10
118.2553140980403
 20
-128.6629475589801
 10
119.3133029215606
 20
-132.4019096891217
 10
119.3133029215606
 20
-132.4019096891217
 10
119.3133029215606
 20
-132.4019096891217
 10
119.9999104517709
 20
-129.9834526584764
 10
121.5474473437451
 20
-128.227142980096
 10
123.3481987538852
 20
-126.1842013573428
 10
125.7074001421843
 20
-125.8462374902398
 10
127.427191808421
 20
-124.4644096911061
 10
129.3347411786038
 20
-122.932031219267
 10
129.7863931967201
 20
-120.1428819144087
 10
129.7863931967201
 20
-120.1428819144087
 97
        0
 75
     2
 76
     1
 98
        0
  0
SPLINE
  5
4A
330
1F
100
AcDbEntity
  8
Layer 1
370
     0
100
AcDbSpline
210
0.0
220
0.0
230
1.0
 70
    11
 71
     3
 72
    17
 73
    13
 74
     0
 42
0.0000000001
 43
0.0000000001
 40
0.0
 40
0.0
 40
0.0
 40
0.0
 40
1.0
 40
1.0
 40
1.0
 40
2.0
 40
2.0
 40
2.0
 40
3.0
 40
3.0
 40
3.0
 40
4.0
 40
4.0
 40
4.0
 40
4.0
 10
126.600368891961
 20
-119.8121527478247
 30
0.0
 10
126.600368891961
 20
-119.8121527478247
 30
0.0
 10
127.4382161139738
 20
-118.7979166369672
 30
0.0
 10
127.5153862528434
 20
-117.2324652484697
 30
0.0
 10
127.5866997293881
 20
-115.7827690682765
 30
0.0
 10
128.6715602976932
 20
-115.3979519025741
 30
0.0
 10
129.4556640301361
 20
-116.8355902485689
 30
0.0
 10
129.8525390300369
 20
-117.5631944150537
 30
0.0
 10
129.4887369467945
 20
-118.4671874703832
 30
0.0
 10
128.4745008359369
 20
-119.0735242757872
 30
0.0
 10
127.6900525939456
 20
-119.5427462808782
 30
0.0
 10
126.600368891961
 20
-119.8121527478247
 30
0.0
 10
126.600368891961
 20
-119.8121527478247
 30
0.0
  0
HATCH
  5
4B
330
1F
100
AcDbEntity
  8
Layer 1
 62
   250
420
  4341308
100
AcDbHatch
 10
0.0
 20
0.0
 30
0.0
210
0.0
220
0.0
230
1.0
  2
SOLID
 70
     1
 71
     0
 91
        1
 92
        1
 93
        1
 72
     4
 94
        3
 73
     0
 74
     1
 95
       17
 96
       13
 40
0.0
 40
0.0
 40
0.0
 40
0.0
 40
1.0
 40
1.0
 40
1.0
 40
2.0
 40
2.0
 40
2.0
 40
3.0
 40
3.0
 40
3.0
 40
4.0
 40
4.0
 40
4.0
 40
4.0
 10
126.600368891961
 20
-119.8121527478247
 10
126.600368891961
 20
-119.8121527478247
 10
127.4382161139738
 20
-118.7979166369672
 10
127.5153862528434
 20
-117.2324652484697
 10
127.5866997293881
 20
-115.7827690682765
 10
128.6715602976932
 20
-115.3979519025741
 10
129.4556640301361
 20
-116.8355902485689
 10
129.8525390300369
 20
-117.5631944150537
 10
129.4887369467945
 20
-118.4671874703832
 10
128.4745008359369
 20
-119.0735242757872
 10
127.6900525939456
 20
-119.5427462808782
 10
126.600368891961
 20
-119.8121527478247
 10
126.600368891961
 20
-119.8121527478247
 97
        0
 75
     2
 76
     1
 98
        0
  0
SPLINE
  5
4C
330
1F
100
AcDbEntity
  8
Layer 1
370
     0
100
AcDbSpline
210
0.0
220
0.0
230
1.0
 70
    11
 71
     3
 72
   185
 73
   181
 74
     0
 42
0.0000000001
 43
0.0000000001
 40
0.0
 40
0.0
 40
0.0
 40
0.0
 40
1.0
 40
1.0
 40
1.0
 40
2.0
 40
2.0
 40
2.0
 40
3.0
 40
3.0
 40
3.0
 40
4.0
 40
4.0
 40
4.0
 40
5.0
 40
5.0
 40
5.0
 40
6.0
 40
6.0
 40
6.0
 40
7.0
 40
7.0
 40
7.0
 40
8.0
 40
8.0
 40
8.0
 40
9.0
 40
9.0
 40
9.0
 40
10.0
 40
10.0
 40
10.0
 40
11.0
 40
11.0
 40
11.0
 40
12.0
 40
12.0
 40
12.0
 40
13.0
 40
13.0
 40
13.0
 40
14.0
 40
14.0
 40
14.0
 40
15.0
 40
15.0
 40
15.0
 40
16.0
 40
16.0
 40
16.0
 40
17.0
 40
17.0
 40
17.0
 40
18.0
 40
18.0
 40
18.0
 40
19.0
 40
19.0
 40
19.0
 40
20.0
 40
20.0
 40
20.0
 40
21.0
 40
21.0
 40
21.0
 40
22.0
 40
22.0
 40
22.0
 40
23.0
 40
23.0
 40
23.0
 40
24.0
 40
24.0
 40
24.0
 40
25.0
 40
25.0
 40
25.0
 40
26.0
 40
26.0
 40
26.0
 40
27.0
 40
27.0
 40
27.0
 40
28.0
 40
28.0
 40
28.0
 40
29.0
 40
29.0
 40
29.0
 40
30.0
 40
30.0
 40
30.0
 40
31.0
 40
31.0
 40
31.0
 40
32.0
 40
32.0
 40
32.0
 40
33.0
 40
33.0
 40
33.0
 40
34.0
 40
34.0
 40
34.0
 40
35.0
 40
35.0
 40
35.0
 40
36.0
 40
36.0
 40
36.0
 40
37.0
 40
37.0
 40
37.0
 40
38.0
 40
38.0
 40
38.0
 40
39.0
 40
39.0
 40
39.0
 40
40.0
 40
40.0
 40
40.0
 40
41.0
 40
41.0
 40
41.0
 40
42.0
 40
42.0
 40
42.0
 40
43.0
 40
43.0
 40
43.0
 40
44.0
 40
44.0
 40
44.0
 40
45.0
 40
45.0
 40
45.0
 40
46.0
 40
46.0
 40
46.0
 40
47.0
 40
47.0
 40
47.0
 40
48.0
 40
48.0
 40
48.0
 40
49.0
 40
49.0
 40
49.0
 40
50.0
 40
50.0
 40
50.0
 40
51.0
 40
51.0
 40
51.0
 40
52.0
 40
52.0
 40
52.0
 40
53.0
 40
53.0
 40
53.0
 40
54.0
 40
54.0
 40
54.0
 40
55.0
 40
55.0
 40
55.0
 40
56.0
 40
56.0
 40
56.0
 40
57.0
 40
57.0
 40
57.0
 40
58.0
 40
58.0
 40
58.0
 40
59.0
 40
59.0
 40
59.0
 40
60.0
 40
60.0
 40
60.0
 40
60.0
 10
118.1354247751537
 20
-143.5002847948541
 30
0.0
 10
115.9739718677079
 20
-144.0928412183171
 30
0.0
 10
113.5541367988684
 20
-145.1508300418373
 30
0.0
 10
111.2121608879956
 20
-146.4988959052156
 30
0.0
 10
108.832288926785
 20
-147.8683213606024
 30
0.0
 10
106.5371663145116
 20
-149.5433267855308
 30
0.0
 10
105.2590358894839
 20
-152.054801394278
 30
0.0
 10
105.2590358894839
 20
-152.054801394278
 30
0.0
 10
105.1136528600063
 20
-152.3025037596674
 30
0.0
 10
104.9951415753137
 20
-152.3025037596674
 30
0.0
 10
104.8759412715241
 20
-152.3025037596674
 30
0.0
 10
104.7305582420465
 20
-152.0544568847295
 30
0.0
 10
104.7305582420465
 20
-152.0544568847295
 30
0.0
 10
103.4524278170188
 20
-149.5429822759823
 30
0.0
 10
101.1573052047454
 20
-147.8679768510538
 30
0.0
 10
98.77743324353482
 20
-146.4982068861185
 30
0.0
 10
96.43545733266197
 20
-145.1501410227403
 30
0.0
 10
94.0156222638225
 20
-144.09215219922
 30
0.0
 10
91.85416935637674
 20
-143.4995957757571
 30
0.0
 10
85.90104435786502
 20
-141.8679985539427
 30
0.0
 10
83.49774574735473
 20
-142.3971652204771
 30
0.0
 10
83.49774574735473
 20
-142.3971652204771
 30
0.0
 10
83.49774574735473
 20
-142.3971652204771
 30
0.0
 10
85.79080130233703
 20
-143.7421304979187
 30
0.0
 10
87.95156519068573
 20
-146.7186929971745
 30
0.0
 10
89.09395885359457
 20
-148.2931016339337
 30
0.0
 10
89.90217825443418
 20
-149.8850802576676
 30
0.0
 10
91.08246796768077
 20
-151.3048041071391
 30
0.0
 10
92.02297903515398
 20
-152.4365179740437
 30
0.0
 10
94.82177460737095
 20
-153.8669216195194
 30
0.0
 10
96.04340546644055
 20
-154.6854763068147
 30
0.0
 10
96.68970537947341
 20
-155.1192138284077
 30
0.0
 10
97.44211423345197
 20
-155.6387342275834
 30
0.0
 10
97.96163463262765
 20
-156.2657416058989
 30
0.0
 10
98.25860186345619
 20
-156.6240315363648
 30
0.0
 10
98.39502764467208
 20
-157.2286457940262
 30
0.0
 10
98.39502764467208
 20
-157.2286457940262
 30
0.0
 10
98.39502764467208
 20
-157.2286457940262
 30
0.0
 10
97.51101614315698
 20
-156.4162922786043
 30
0.0
 10
96.7269124107141
 20
-155.8909152171037
 30
0.0
 10
95.59140893877576
 20
-155.1302381339605
 30
0.0
 10
94.5440999112598
 20
-154.7884846618237
 30
0.0
 10
94.5440999112598
 20
-154.7884846618237
 30
0.0
 10
94.5440999112598
 20
-154.7884846618237
 30
0.0
 10
95.47220863498612
 20
-155.964640260488
 30
0.0
 10
96.35208602191892
 20
-157.3681721611788
 30
0.0
 10
96.73380260168462
 20
-157.9782985716165
 30
0.0
 10
96.87229544019165
 20
-159.2054415834625
 30
0.0
 10
97.0576415772981
 20
-160.873901326969
 30
0.0
 10
97.0686658828509
 20
-160.9731200769442
 30
0.0
 10
96.8702283829005
 20
-161.9873561878018
 30
0.0
 10
97.60885685493807
 20
-163.8173909095665
 30
0.0
 10
98.03742673330315
 20
-164.8805473763146
 30
0.0
 10
98.72231171577081
 20
-165.4159152147224
 30
0.0
 10
98.72231171577081
 20
-165.4159152147224
 30
0.0
 10
98.72231171577081
 20
-165.4159152147224
 30
0.0
 10
98.54592282692603
 20
-164.8919161914159
 30
0.0
 10
98.54592282692603
 20
-164.7103596593433
 30
0.0
 10
98.54592282692603
 20
-164.5229464649456
 30
0.0
 10
98.64514157690122
 20
-164.3575818816537
 30
0.0
 10
98.64514157690122
 20
-164.3575818816537
 30
0.0
 10
98.64514157690122
 20
-164.3575818816537
 30
0.0
 10
98.9979193545908
 20
-164.9308457703992
 30
0.0
 10
99.43889157670279
 20
-165.548206881356
 30
0.0
 10
99.87986379881477
 20
-166.1655679923128
 30
0.0
 10
100.7948811596971
 20
-166.7498561866112
 30
0.0
 10
100.7948811596971
 20
-166.7498561866112
 30
0.0
 10
100.7948811596971
 20
-166.7498561866112
 30
0.0
 10
100.5971326788438
 20
-166.8087673194089
 30
0.0
 10
100.3428846320323
 20
-166.7498561866112
 30
0.0
 10
100.2429768629601
 20
-166.72677404686
 30
0.0
 10
99.87986379881477
 20
-166.6837103532943
 30
0.0
 10
99.87986379881477
 20
-166.6837103532943
 30
0.0
 10
99.87986379881477
 20
-166.6837103532943
 30
0.0
 10
100.103105986259
 20
-167.5694444025521
 30
0.0
 10
100.6956624097219
 20
-168.7011582694567
 30
0.0
 10
101.6878499094739
 20
-170.5973388245382
 30
0.0
 10
101.7319471316851
 20
-171.7218179909237
 30
0.0
 10
101.7319471316851
 20
-171.7218179909237
 30
0.0
 10
101.7319471316851
 20
-171.7218179909237
 30
0.0
 10
101.9303846316355
 20
-171.5912488720328
 30
0.0
 10
101.9524332427411
 20
-171.3028943799173
 30
0.0
 10
101.9744818538467
 20
-171.0107502827682
 30
0.0
 10
102.1233099788095
 20
-170.8894829216873
 30
0.0
 10
102.1233099788095
 20
-170.8894829216873
 30
0.0
 10
102.1233099788095
 20
-170.8894829216873
 30
0.0
 10
102.2170165760082
 20
-170.9831895188861
 30
0.0
 10
102.4375026870642
 20
-170.9721652133334
 30
0.0
 10
102.6579887981202
 20
-170.9611409077806
 30
0.0
 10
102.779256159201
 20
-170.9997259772153
 30
0.0
 10
102.779256159201
 20
-170.9997259772153
 30
0.0
 10
102.779256159201
 20
-170.9997259772153
 30
0.0
 10
101.8931776003948
 20
-171.8468749570383
 30
0.0
 10
101.9228054215679
 20
-174.573323524065
 30
0.0
 10
101.9365858035089
 20
-175.820792599274
 30
0.0
 10
102.0916151003452
 20
-176.5680338100247
 30
0.0
 10
102.5477457425922
 20
-177.6198214616714
 30
0.0
 10
103.1575276434815
 20
-179.027142967396
 30
0.0
 10
104.2151719574532
 20
-179.1594346340296
 30
0.0
 10
104.9951415753137
 20
-179.1594346340296
 30
0.0
 10
105.7062092834693
 20
-179.1594346340296
 30
0.0
 10
106.8575601946398
 20
-179.1191270168522
 30
0.0
 10
107.4418483889382
 20
-177.6198214616714
 30
0.0
 10
107.8587049426534
 20
-176.5514973516955
 30
0.0
 10
108.0530083280215
 20
-175.820792599274
 30
0.0
 10
108.0667887099625
 20
-174.573323524065
 30
0.0
 10
108.0964165311356
 20
-171.8468749570383
 30
0.0
 10
107.2103379723294
 20
-171.0000704867639
 30
0.0
 10
107.2103379723294
 20
-171.0000704867639
 30
0.0
 10
107.2103379723294
 20
-171.0000704867639
 30
0.0
 10
107.3316053334102
 20
-170.9614854173291
 30
0.0
 10
107.5520914444661
 20
-170.9725097228819
 30
0.0
 10
107.7725775555221
 20
-170.9835340284347
 30
0.0
 10
107.8662841527209
 20
-170.8898274312359
 30
0.0
 10
107.8662841527209
 20
-170.8898274312359
 30
0.0
 10
107.8662841527209
 20
-170.8898274312359
 30
0.0
 10
108.0151122776837
 20
-171.0110947923167
 30
0.0
 10
108.0371608887893
 20
-171.3032388894659
 30
0.0
 10
108.0592094998949
 20
-171.5912488720328
 30
0.0
 10
108.2576469998453
 20
-171.7221625004723
 30
0.0
 10
108.2576469998453
 20
-171.7221625004723
 30
0.0
 10
108.2576469998453
 20
-171.7221625004723
 30
0.0
 10
108.3017442220565
 20
-170.5976833340867
 30
0.0
 10
109.2939317218085
 20
-168.7015027790052
 30
0.0
 10
109.8864881452714
 20
-167.5694444025521
 30
0.0
 10
110.1097303327156
 20
-166.6840548628429
 30
0.0
 10
110.1097303327156
 20
-166.6840548628429
 30
0.0
 10
110.1097303327156
 20
-166.6840548628429
 30
0.0
 10
109.7466172685703
 20
-166.72677404686
 30
0.0
 10
109.646709499498
 20
-166.7502006961597
 30
0.0
 10
109.3924614526866
 20
-166.8087673194089
 30
0.0
 10
109.1947129718333
 20
-166.7502006961597
 30
0.0
 10
109.1947129718333
 20
-166.7502006961597
 30
0.0
 10
109.1947129718333
 20
-166.7502006961597
 30
0.0
 10
110.1097303327156
 20
-166.1659125018613
 30
0.0
 10
110.5507025548276
 20
-165.5485513909045
 30
0.0
 10
110.9916747769396
 20
-164.9311902799478
 30
0.0
 10
111.3444525546292
 20
-164.3579263912022
 30
0.0
 10
111.3444525546292
 20
-164.3579263912022
 30
0.0
 10
111.3444525546292
 20
-164.3579263912022
 30
0.0
 10
111.4436713046044
 20
-164.5232909744942
 30
0.0
 10
111.4436713046044
 20
-164.7107041688918
 30
0.0
 10
111.4436713046044
 20
-164.8922607009644
 30
0.0
 10
111.2672824157596
 20
-165.4162597242709
 30
0.0
 10
111.2672824157596
 20
-165.4162597242709
 30
0.0
 10
111.2672824157596
 20
-165.4162597242709
 30
0.0
 10
111.9514783791302
 20
-164.8808918858631
 30
0.0
 10
112.3807372765923
 20
-163.817735419115
 30
0.0
 10
113.1193657486299
 20
-161.9877006973503
 30
0.0
 10
112.9209282486795
 20
-160.9734645864928
 30
0.0
 10
112.9319525542323
 20
-160.8742458365176
 30
0.0
 10
113.1172986913387
 20
-159.2061306025596
 30
0.0
 10
113.2551025107487
 20
-157.9786430811651
 30
0.0
 10
113.6375081096115
 20
-157.3685166707273
 30
0.0
 10
114.5166964774472
 20
-155.9649847700366
 30
0.0
 10
115.4454942202706
 20
-154.7888291713722
 30
0.0
 10
115.4454942202706
 20
-154.7888291713722
 30
0.0
 10
115.4454942202706
 20
-154.7888291713722
 30
0.0
 10
114.3981851927546
 20
-155.130582643509
 30
0.0
 10
113.2626817208163
 20
-155.8912597266522
 30
0.0
 10
112.4785779883734
 20
-156.4162922786043
 30
0.0
 10
111.5945664868583
 20
-157.2286457940262
 30
0.0
 10
111.5945664868583
 20
-157.2286457940262
 30
0.0
 10
111.5945664868583
 20
-157.2289903035747
 30
0.0
 10
111.7309922680742
 20
-156.6243760459134
 30
0.0
 10
112.0279594989027
 20
-156.2660861154474
 30
0.0
 10
112.5474798980784
 20
-155.6390787371319
 30
0.0
 10
113.2991997329599
 20
-155.1195583379562
 30
0.0
 10
113.9461886650898
 20
-154.6861653259118
 30
0.0
 10
115.1678195241594
 20
-153.8672661290679
 30
0.0
 10
117.9666150963764
 20
-152.4372069931407
 30
0.0
 10
118.9071261638496
 20
-151.3051486166876
 30
0.0
 10
120.0874158770962
 20
-149.8854247672162
 30
0.0
 10
120.9135497744591
 20
-148.3065375063262
 30
0.0
 10
122.0380289408447
 20
-146.719037506723
 30
0.0
 10
123.5394015533165
 20
-144.5992702546488
 30
0.0
 10
126.4918483841757
 20
-142.3978542395741
 30
0.0
 10
126.4918483841757
 20
-142.3978542395741
 30
0.0
 10
126.4918483841757
 20
-142.3978542395741
 30
0.0
 10
124.0885497736654
 20
-141.8686875730398
 30
0.0
 10
118.1354247751537
 20
-143.5002847948541
 30
0.0
  0
SPLINE
  5
4D
330
1F
100
AcDbEntity
  8
Layer 1
370
     0
100
AcDbSpline
210
0.0
220
0.0
230
1.0
 70
    11
 71
     3
 72
    17
 73
    13
 74
     0
 42
0.0000000001
 43
0.0000000001
 40
0.0
 40
0.0
 40
0.0
 40
0.0
 40
1.0
 40
1.0
 40
1.0
 40
2.0
 40
2.0
 40
2.0
 40
3.0
 40
3.0
 40
3.0
 40
4.0
 40
4.0
 40
4.0
 40
4.0
 10
99.3355387121453
 20
-163.8136013045327
 30
0.0
 10
98.73333602132361
 20
-163.0198513047312
 30
0.0
 10
98.86562768795721
 20
-162.4024901937744
 30
0.0
 10
98.86562768795721
 20
-162.4024901937744
 30
0.0
 10
98.86562768795721
 20
-162.4024901937744
 30
0.0
 10
99.32106931110724
 20
-162.9171874592707
 30
0.0
 10
99.77651093425726
 20
-163.3726290824207
 30
0.0
 10
100.2657144931627
 20
-163.8618326413262
 30
0.0
 10
100.9967637551328
 20
-164.3868651932783
 30
0.0
 10
100.9967637551328
 20
-164.3868651932783
 30
0.0
 10
100.9967637551328
 20
-164.3868651932783
 30
0.0
 10
99.938430422064
 20
-164.6073513043343
 30
0.0
 10
99.3355387121453
 20
-163.8136013045327
 30
0.0
  0
SPLINE
  5
4E
330
1F
100
AcDbEntity
  8
Layer 1
370
     0
100
AcDbSpline
210
0.0
220
0.0
230
1.0
 70
    11
 71
     3
 72
    23
 73
    19
 74
     0
 42
0.0000000001
 43
0.0000000001
 40
0.0
 40
0.0
 40
0.0
 40
0.0
 40
1.0
 40
1.0
 40
1.0
 40
2.0
 40
2.0
 40
2.0
 40
3.0
 40
3.0
 40
3.0
 40
4.0
 40
4.0
 40
4.0
 40
5.0
 40
5.0
 40
5.0
 40
6.0
 40
6.0
 40
6.0
 40
6.0
 10
102.944620742493
 20
-175.3157416011364
 30
0.0
 10
102.8708956991087
 20
-174.6098415362086
 30
0.0
 10
102.9115478258346
 20
-174.3566270180428
 30
0.0
 10
102.9115478258346
 20
-174.1140922958812
 30
0.0
 10
102.9115478258346
 20
-173.8715575737196
 30
0.0
 10
102.9887179647042
 20
-173.4746825738188
 30
0.0
 10
102.9887179647042
 20
-173.4746825738188
 30
0.0
 10
102.9887179647042
 20
-173.4746825738188
 30
0.0
 10
103.1430582424434
 20
-173.7282416015332
 30
0.0
 10
103.165106853549
 20
-174.2298475041856
 30
0.0
 10
103.1864664455576
 20
-174.7145724389603
 30
0.0
 10
103.1485703952198
 20
-174.9133544484592
 30
0.0
 10
103.1595947007726
 20
-175.2551079205959
 30
0.0
 10
103.1706190063254
 20
-175.5968613927327
 30
0.0
 10
103.220228381313
 20
-175.8779811843291
 30
0.0
 10
103.220228381313
 20
-175.8779811843291
 30
0.0
 10
103.220228381313
 20
-175.8779811843291
 30
0.0
 10
103.0107665758098
 20
-175.9496391704223
 30
0.0
 10
102.944620742493
 20
-175.3157416011364
 30
0.0
  0
SPLINE
  5
4F
330
1F
100
AcDbEntity
  8
Layer 1
370
     0
100
AcDbSpline
210
0.0
220
0.0
230
1.0
 70
    11
 71
     3
 72
    23
 73
    19
 74
     0
 42
0.0000000001
 43
0.0000000001
 40
0.0
 40
0.0
 40
0.0
 40
0.0
 40
1.0
 40
1.0
 40
1.0
 40
2.0
 40
2.0
 40
2.0
 40
3.0
 40
3.0
 40
3.0
 40
4.0
 40
4.0
 40
4.0
 40
5.0
 40
5.0
 40
5.0
 40
6.0
 40
6.0
 40
6.0
 40
6.0
 10
104.4583956987118
 20
-178.0725070084333
 30
0.0
 10
104.4583956987118
 20
-178.0725070084333
 30
0.0
 10
104.1497151432334
 20
-177.9398708322512
 30
0.0
 10
103.9147596311394
 20
-177.6167208757347
 30
0.0
 10
103.6791150999483
 20
-177.2935709192183
 30
0.0
 10
103.3042887111531
 20
-176.8085014748951
 30
0.0
 10
103.4296901868162
 20
-175.896929209498
 30
0.0
 10
103.5337320704707
 20
-175.1341850690637
 30
0.0
 10
104.0539414887435
 20
-174.5888264537486
 30
0.0
 10
104.0539414887435
 20
-174.5888264537486
 30
0.0
 10
104.0539414887435
 20
-174.5888264537486
 30
0.0
 10
104.4659749087793
 20
-175.0149847652741
 30
0.0
 10
104.516962321961
 20
-175.5221028207028
 30
0.0
 10
104.5686387542398
 20
-176.0292208761316
 30
0.0
 10
104.4728650997498
 20
-176.4557236972055
 30
0.0
 10
104.4287678775386
 20
-176.9700764531533
 30
0.0
 10
104.3846706553275
 20
-177.4844292091011
 30
0.0
 10
104.4583956987118
 20
-178.0725070084333
 30
0.0
 10
104.4583956987118
 20
-178.0725070084333
 30
0.0
  0
SPLINE
  5
50
330
1F
100
AcDbEntity
  8
Layer 1
370
     0
100
AcDbSpline
210
0.0
220
0.0
230
1.0
 70
    11
 71
     3
 72
    17
 73
    13
 74
     0
 42
0.0000000001
 43
0.0000000001
 40
0.0
 40
0.0
 40
0.0
 40
0.0
 40
1.0
 40
1.0
 40
1.0
 40
2.0
 40
2.0
 40
2.0
 40
3.0
 40
3.0
 40
3.0
 40
4.0
 40
4.0
 40
4.0
 40
4.0
 10
104.8022162281397
 20
-172.2620089630109
 30
0.0
 10
104.7581190059285
 20
-172.9455159072845
 30
0.0
 10
104.6478759504005
 20
-174.180238129198
 30
0.0
 10
104.6478759504005
 20
-174.180238129198
 30
0.0
 10
104.6478759504005
 20
-174.180238129198
 30
0.0
 10
104.2737385807024
 20
-173.1325845921335
 30
0.0
 10
104.3116346310401
 20
-172.1848388241413
 30
0.0
 10
104.3447075476985
 20
-171.3525037549049
 30
0.0
 10
104.7856797698105
 20
-170.911531532793
 30
0.0
 10
104.7856797698105
 20
-170.911531532793
 30
0.0
 10
104.7856797698105
 20
-170.911531532793
 30
0.0
 10
104.8463134503509
 20
-171.5785020187373
 30
0.0
 10
104.8022162281397
 20
-172.2620089630109
 30
0.0
  0
SPLINE
  5
51
330
1F
100
AcDbEntity
  8
Layer 1
370
     0
100
AcDbSpline
210
0.0
220
0.0
230
1.0
 70
    11
 71
     3
 72
    17
 73
    13
 74
     0
 42
0.0000000001
 43
0.0000000001
 40
0.0
 40
0.0
 40
0.0
 40
0.0
 40
1.0
 40
1.0
 40
1.0
 40
2.0
 40
2.0
 40
2.0
 40
3.0
 40
3.0
 40
3.0
 40
4.0
 40
4.0
 40
4.0
 40
4.0
 10
104.9079806595369
 20
-167.5122558174969
 30
0.0
 10
104.9079806595369
 20
-167.5122558174969
 30
0.0
 10
104.1583278819465
 20
-161.721050306792
 30
0.0
 10
104.1583278819465
 20
-160.4570447732538
 30
0.0
 10
104.1583278819465
 20
-159.1413628074369
 30
0.0
 10
104.6141140146451
 20
-158.6638725731813
 30
0.0
 10
104.9079806595369
 20
-157.6055392401125
 30
0.0
 10
105.1064181594873
 20
-158.7224391964305
 30
0.0
 10
105.6249050300174
 20
-159.4314398472949
 30
0.0
 10
105.6249050300174
 20
-160.5042425814017
 30
0.0
 10
105.6249050300174
 20
-161.4450981584235
 30
0.0
 10
104.9079806595369
 20
-167.5122558174969
 30
0.0
 10
104.9079806595369
 20
-167.5122558174969
 30
0.0
  0
SPLINE
  5
52
330
1F
100
AcDbEntity
  8
Layer 1
370
     0
100
AcDbSpline
210
0.0
220
0.0
230
1.0
 70
    11
 71
     3
 72
    17
 73
    13
 74
     0
 42
0.0000000001
 43
0.0000000001
 40
0.0
 40
0.0
 40
0.0
 40
0.0
 40
1.0
 40
1.0
 40
1.0
 40
2.0
 40
2.0
 40
2.0
 40
3.0
 40
3.0
 40
3.0
 40
4.0
 40
4.0
 40
4.0
 40
4.0
 10
105.1873779033907
 20
-172.2623534725594
 30
0.0
 10
105.1432806811795
 20
-171.5788465282859
 30
0.0
 10
105.2039143617199
 20
-170.9118760423415
 30
0.0
 10
105.2039143617199
 20
-170.9118760423415
 30
0.0
 10
105.2039143617199
 20
-170.9118760423415
 30
0.0
 10
105.6448865838318
 20
-171.3528482644535
 30
0.0
 10
105.6779595004902
 20
-172.1851833336898
 30
0.0
 10
105.715855550828
 20
-173.1325845921335
 30
0.0
 10
105.3417181811298
 20
-174.180238129198
 30
0.0
 10
105.3417181811298
 20
-174.180238129198
 30
0.0
 10
105.3417181811298
 20
-174.180238129198
 30
0.0
 10
105.2314751256019
 20
-172.945860416833
 30
0.0
 10
105.1873779033907
 20
-172.2623534725594
 30
0.0
  0
SPLINE
  5
53
330
1F
100
AcDbEntity
  8
Layer 1
370
     0
100
AcDbSpline
210
0.0
220
0.0
230
1.0
 70
    11
 71
     3
 72
    23
 73
    19
 74
     0
 42
0.0000000001
 43
0.0000000001
 40
0.0
 40
0.0
 40
0.0
 40
0.0
 40
1.0
 40
1.0
 40
1.0
 40
2.0
 40
2.0
 40
2.0
 40
3.0
 40
3.0
 40
3.0
 40
4.0
 40
4.0
 40
4.0
 40
5.0
 40
5.0
 40
5.0
 40
6.0
 40
6.0
 40
6.0
 40
6.0
 10
106.074834500391
 20
-177.6167208757347
 30
0.0
 10
105.839878988297
 20
-177.9398708322512
 30
0.0
 10
105.5311984328186
 20
-178.0725070084333
 30
0.0
 10
105.5311984328186
 20
-178.0725070084333
 30
0.0
 10
105.5311984328186
 20
-178.0725070084333
 30
0.0
 10
105.6049234762029
 20
-177.4844292091011
 30
0.0
 10
105.5608262539917
 20
-176.9700764531533
 30
0.0
 10
105.5167290317805
 20
-176.4557236972055
 30
0.0
 10
105.4209553772906
 20
-176.0292208761316
 30
0.0
 10
105.4726318095694
 20
-175.5221028207028
 30
0.0
 10
105.5236192227511
 20
-175.0149847652741
 30
0.0
 10
105.9356526427869
 20
-174.5888264537486
 30
0.0
 10
105.9356526427869
 20
-174.5888264537486
 30
0.0
 10
105.9356526427869
 20
-174.5888264537486
 30
0.0
 10
106.4558620610596
 20
-175.1341850690637
 30
0.0
 10
106.5599039447142
 20
-175.896929209498
 30
0.0
 10
106.6853054203773
 20
-176.8085014748951
 30
0.0
 10
106.3104790315821
 20
-177.2935709192183
 30
0.0
 10
106.074834500391
 20
-177.6167208757347
 30
0.0
  0
SPLINE
  5
54
330
1F
100
AcDbEntity
  8
Layer 1
370
     0
100
AcDbSpline
210
0.0
220
0.0
230
1.0
 70
    11
 71
     3
 72
    23
 73
    19
 74
     0
 42
0.0000000001
 43
0.0000000001
 40
0.0
 40
0.0
 40
0.0
 40
0.0
 40
1.0
 40
1.0
 40
1.0
 40
2.0
 40
2.0
 40
2.0
 40
3.0
 40
3.0
 40
3.0
 40
4.0
 40
4.0
 40
4.0
 40
5.0
 40
5.0
 40
5.0
 40
6.0
 40
6.0
 40
6.0
 40
6.0
 10
107.0449733890374
 20
-175.3157416011364
 30
0.0
 10
106.9788275557206
 20
-175.9496391704223
 30
0.0
 10
106.7693657502174
 20
-175.8779811843291
 30
0.0
 10
106.7693657502174
 20
-175.8779811843291
 30
0.0
 10
106.7693657502174
 20
-175.8779811843291
 30
0.0
 10
106.818975125205
 20
-175.5968613927327
 30
0.0
 10
106.8299994307578
 20
-175.2551079205959
 30
0.0
 10
106.8410237363106
 20
-174.9133544484592
 30
0.0
 10
106.8031276859728
 20
-174.7145724389603
 30
0.0
 10
106.8244872779814
 20
-174.2298475041856
 30
0.0
 10
106.846535889087
 20
-173.7285861110817
 30
0.0
 10
107.0008761668262
 20
-173.4750270833674
 30
0.0
 10
107.0008761668262
 20
-173.4750270833674
 30
0.0
 10
107.0008761668262
 20
-173.4750270833674
 30
0.0
 10
107.0780463056958
 20
-173.8719020832681
 30
0.0
 10
107.0780463056958
 20
-174.1140922958812
 30
0.0
 10
107.0780463056958
 20
-174.3566270180428
 30
0.0
 10
107.1186984324217
 20
-174.6098415362086
 30
0.0
 10
107.0449733890374
 20
-175.3157416011364
 30
0.0
  0
SPLINE
  5
55
330
1F
100
AcDbEntity
  8
Layer 1
370
     0
100
AcDbSpline
210
0.0
220
0.0
230
1.0
 70
    11
 71
     3
 72
    17
 73
    13
 74
     0
 42
0.0000000001
 43
0.0000000001
 40
0.0
 40
0.0
 40
0.0
 40
0.0
 40
1.0
 40
1.0
 40
1.0
 40
2.0
 40
2.0
 40
2.0
 40
3.0
 40
3.0
 40
3.0
 40
4.0
 40
4.0
 40
4.0
 40
4.0
 10
110.6540554193851
 20
-163.8142903236298
 30
0.0
 10
110.0511637094664
 20
-164.6080403234313
 30
0.0
 10
108.9928303763976
 20
-164.3875542123753
 30
0.0
 10
108.9928303763976
 20
-164.3875542123753
 30
0.0
 10
108.9928303763976
 20
-164.3875542123753
 30
0.0
 10
109.7238796383676
 20
-163.8618326413262
 30
0.0
 10
110.2130831972731
 20
-163.3733181015178
 30
0.0
 10
110.6685248204232
 20
-162.9171874592707
 30
0.0
 10
111.1239664435732
 20
-162.4031792128714
 30
0.0
 10
111.1239664435732
 20
-162.4031792128714
 30
0.0
 10
111.1239664435732
 20
-162.4031792128714
 30
0.0
 10
111.2562581102068
 20
-163.0205403238282
 30
0.0
 10
110.6540554193851
 20
-163.8142903236298
 30
0.0
  0
HATCH
  5
56
330
1F
100
AcDbEntity
  8
Layer 1
 62
   250
420
  4341308
100
AcDbHatch
 10
0.0
 20
0.0
 30
0.0
210
0.0
220
0.0
230
1.0
  2
SOLID
 70
     1
 71
     0
 91
       10
 92
        1
 93
        1
 72
     4
 94
        3
 73
     0
 74
     1
 95
      185
 96
      181
 40
0.0
 40
0.0
 40
0.0
 40
0.0
 40
1.0
 40
1.0
 40
1.0
 40
2.0
 40
2.0
 40
2.0
 40
3.0
 40
3.0
 40
3.0
 40
4.0
 40
4.0
 40
4.0
 40
5.0
 40
5.0
 40
5.0
 40
6.0
 40
6.0
 40
6.0
 40
7.0
 40
7.0
 40
7.0
 40
8.0
 40
8.0
 40
8.0
 40
9.0
 40
9.0
 40
9.0
 40
10.0
 40
10.0
 40
10.0
 40
11.0
 40
11.0
 40
11.0
 40
12.0
 40
12.0
 40
12.0
 40
13.0
 40
13.0
 40
13.0
 40
14.0
 40
14.0
 40
14.0
 40
15.0
 40
15.0
 40
15.0
 40
16.0
 40
16.0
 40
16.0
 40
17.0
 40
17.0
 40
17.0
 40
18.0
 40
18.0
 40
18.0
 40
19.0
 40
19.0
 40
19.0
 40
20.0
 40
20.0
 40
20.0
 40
21.0
 40
21.0
 40
21.0
 40
22.0
 40
22.0
 40
22.0
 40
23.0
 40
23.0
 40
23.0
 40
24.0
 40
24.0
 40
24.0
 40
25.0
 40
25.0
 40
25.0
 40
26.0
 40
26.0
 40
26.0
 40
27.0
 40
27.0
 40
27.0
 40
28.0
 40
28.0
 40
28.0
 40
29.0
 40
29.0
 40
29.0
 40
30.0
 40
30.0
 40
30.0
 40
31.0
 40
31.0
 40
31.0
 40
32.0
 40
32.0
 40
32.0
 40
33.0
 40
33.0
 40
33.0
 40
34.0
 40
34.0
 40
34.0
 40
35.0
 40
35.0
 40
35.0
 40
36.0
 40
36.0
 40
36.0
 40
37.0
 40
37.0
 40
37.0
 40
38.0
 40
38.0
 40
38.0
 40
39.0
 40
39.0
 40
39.0
 40
40.0
 40
40.0
 40
40.0
 40
41.0
 40
41.0
 40
41.0
 40
42.0
 40
42.0
 40
42.0
 40
43.0
 40
43.0
 40
43.0
 40
44.0
 40
44.0
 40
44.0
 40
45.0
 40
45.0
 40
45.0
 40
46.0
 40
46.0
 40
46.0
 40
47.0
 40
47.0
 40
47.0
 40
48.0
 40
48.0
 40
48.0
 40
49.0
 40
49.0
 40
49.0
 40
50.0
 40
50.0
 40
50.0
 40
51.0
 40
51.0
 40
51.0
 40
52.0
 40
52.0
 40
52.0
 40
53.0
 40
53.0
 40
53.0
 40
54.0
 40
54.0
 40
54.0
 40
55.0
 40
55.0
 40
55.0
 40
56.0
 40
56.0
 40
56.0
 40
57.0
 40
57.0
 40
57.0
 40
58.0
 40
58.0
 40
58.0
 40
59.0
 40
59.0
 40
59.0
 40
60.0
 40
60.0
 40
60.0
 40
60.0
 10
118.1354247751537
 20
-143.5002847948541
 10
115.9739718677079
 20
-144.0928412183171
 10
113.5541367988684
 20
-145.1508300418373
 10
111.2121608879956
 20
-146.4988959052156
 10
108.832288926785
 20
-147.8683213606024
 10
106.5371663145116
 20
-149.5433267855308
 10
105.2590358894839
 20
-152.054801394278
 10
105.2590358894839
 20
-152.054801394278
 10
105.1136528600063
 20
-152.3025037596674
 10
104.9951415753137
 20
-152.3025037596674
 10
104.8759412715241
 20
-152.3025037596674
 10
104.7305582420465
 20
-152.0544568847295
 10
104.7305582420465
 20
-152.0544568847295
 10
103.4524278170188
 20
-149.5429822759823
 10
101.1573052047454
 20
-147.8679768510538
 10
98.77743324353482
 20
-146.4982068861185
 10
96.43545733266197
 20
-145.1501410227403
 10
94.0156222638225
 20
-144.09215219922
 10
91.85416935637674
 20
-143.4995957757571
 10
85.90104435786502
 20
-141.8679985539427
 10
83.49774574735473
 20
-142.3971652204771
 10
83.49774574735473
 20
-142.3971652204771
 10
83.49774574735473
 20
-142.3971652204771
 10
85.79080130233703
 20
-143.7421304979187
 10
87.95156519068573
 20
-146.7186929971745
 10
89.09395885359457
 20
-148.2931016339337
 10
89.90217825443418
 20
-149.8850802576676
 10
91.08246796768077
 20
-151.3048041071391
 10
92.02297903515398
 20
-152.4365179740437
 10
94.82177460737095
 20
-153.8669216195194
 10
96.04340546644055
 20
-154.6854763068147
 10
96.68970537947341
 20
-155.1192138284077
 10
97.44211423345197
 20
-155.6387342275834
 10
97.96163463262765
 20
-156.2657416058989
 10
98.25860186345619
 20
-156.6240315363648
 10
98.39502764467208
 20
-157.2286457940262
 10
98.39502764467208
 20
-157.2286457940262
 10
98.39502764467208
 20
-157.2286457940262
 10
97.51101614315698
 20
-156.4162922786043
 10
96.7269124107141
 20
-155.8909152171037
 10
95.59140893877576
 20
-155.1302381339605
 10
94.5440999112598
 20
-154.7884846618237
 10
94.5440999112598
 20
-154.7884846618237
 10
94.5440999112598
 20
-154.7884846618237
 10
95.47220863498612
 20
-155.964640260488
 10
96.35208602191892
 20
-157.3681721611788
 10
96.73380260168462
 20
-157.9782985716165
 10
96.87229544019165
 20
-159.2054415834625
 10
97.0576415772981
 20
-160.873901326969
 10
97.0686658828509
 20
-160.9731200769442
 10
96.8702283829005
 20
-161.9873561878018
 10
97.60885685493807
 20
-163.8173909095665
 10
98.03742673330315
 20
-164.8805473763146
 10
98.72231171577081
 20
-165.4159152147224
 10
98.72231171577081
 20
-165.4159152147224
 10
98.72231171577081
 20
-165.4159152147224
 10
98.54592282692603
 20
-164.8919161914159
 10
98.54592282692603
 20
-164.7103596593433
 10
98.54592282692603
 20
-164.5229464649456
 10
98.64514157690122
 20
-164.3575818816537
 10
98.64514157690122
 20
-164.3575818816537
 10
98.64514157690122
 20
-164.3575818816537
 10
98.9979193545908
 20
-164.9308457703992
 10
99.43889157670279
 20
-165.548206881356
 10
99.87986379881477
 20
-166.1655679923128
 10
100.7948811596971
 20
-166.7498561866112
 10
100.7948811596971
 20
-166.7498561866112
 10
100.7948811596971
 20
-166.7498561866112
 10
100.5971326788438
 20
-166.8087673194089
 10
100.3428846320323
 20
-166.7498561866112
 10
100.2429768629601
 20
-166.72677404686
 10
99.87986379881477
 20
-166.6837103532943
 10
99.87986379881477
 20
-166.6837103532943
 10
99.87986379881477
 20
-166.6837103532943
 10
100.103105986259
 20
-167.5694444025521
 10
100.6956624097219
 20
-168.7011582694567
 10
101.6878499094739
 20
-170.5973388245382
 10
101.7319471316851
 20
-171.7218179909237
 10
101.7319471316851
 20
-171.7218179909237
 10
101.7319471316851
 20
-171.7218179909237
 10
101.9303846316355
 20
-171.5912488720328
 10
101.9524332427411
 20
-171.3028943799173
 10
101.9744818538467
 20
-171.0107502827682
 10
102.1233099788095
 20
-170.8894829216873
 10
102.1233099788095
 20
-170.8894829216873
 10
102.1233099788095
 20
-170.8894829216873
 10
102.2170165760082
 20
-170.9831895188861
 10
102.4375026870642
 20
-170.9721652133334
 10
102.6579887981202
 20
-170.9611409077806
 10
102.779256159201
 20
-170.9997259772153
 10
102.779256159201
 20
-170.9997259772153
 10
102.779256159201
 20
-170.9997259772153
 10
101.8931776003948
 20
-171.8468749570383
 10
101.9228054215679
 20
-174.573323524065
 10
101.9365858035089
 20
-175.820792599274
 10
102.0916151003452
 20
-176.5680338100247
 10
102.5477457425922
 20
-177.6198214616714
 10
103.1575276434815
 20
-179.027142967396
 10
104.2151719574532
 20
-179.1594346340296
 10
104.9951415753137
 20
-179.1594346340296
 10
105.7062092834693
 20
-179.1594346340296
 10
106.8575601946398
 20
-179.1191270168522
 10
107.4418483889382
 20
-177.6198214616714
 10
107.8587049426534
 20
-176.5514973516955
 10
108.0530083280215
 20
-175.820792599274
 10
108.0667887099625
 20
-174.573323524065
 10
108.0964165311356
 20
-171.8468749570383
 10
107.2103379723294
 20
-171.0000704867639
 10
107.2103379723294
 20
-171.0000704867639
 10
107.2103379723294
 20
-171.0000704867639
 10
107.3316053334102
 20
-170.9614854173291
 10
107.5520914444661
 20
-170.9725097228819
 10
107.7725775555221
 20
-170.9835340284347
 10
107.8662841527209
 20
-170.8898274312359
 10
107.8662841527209
 20
-170.8898274312359
 10
107.8662841527209
 20
-170.8898274312359
 10
108.0151122776837
 20
-171.0110947923167
 10
108.0371608887893
 20
-171.3032388894659
 10
108.0592094998949
 20
-171.5912488720328
 10
108.2576469998453
 20
-171.7221625004723
 10
108.2576469998453
 20
-171.7221625004723
 10
108.2576469998453
 20
-171.7221625004723
 10
108.3017442220565
 20
-170.5976833340867
 10
109.2939317218085
 20
-168.7015027790052
 10
109.8864881452714
 20
-167.5694444025521
 10
110.1097303327156
 20
-166.6840548628429
 10
110.1097303327156
 20
-166.6840548628429
 10
110.1097303327156
 20
-166.6840548628429
 10
109.7466172685703
 20
-166.72677404686
 10
109.646709499498
 20
-166.7502006961597
 10
109.3924614526866
 20
-166.8087673194089
 10
109.1947129718333
 20
-166.7502006961597
 10
109.1947129718333
 20
-166.7502006961597
 10
109.1947129718333
 20
-166.7502006961597
 10
110.1097303327156
 20
-166.1659125018613
 10
110.5507025548276
 20
-165.5485513909045
 10
110.9916747769396
 20
-164.9311902799478
 10
111.3444525546292
 20
-164.3579263912022
 10
111.3444525546292
 20
-164.3579263912022
 10
111.3444525546292
 20
-164.3579263912022
 10
111.4436713046044
 20
-164.5232909744942
 10
111.4436713046044
 20
-164.7107041688918
 10
111.4436713046044
 20
-164.8922607009644
 10
111.2672824157596
 20
-165.4162597242709
 10
111.2672824157596
 20
-165.4162597242709
 10
111.2672824157596
 20
-165.4162597242709
 10
111.9514783791302
 20
-164.8808918858631
 10
112.3807372765923
 20
-163.817735419115
 10
113.1193657486299
 20
-161.9877006973503
 10
112.9209282486795
 20
-160.9734645864928
 10
112.9319525542323
 20
-160.8742458365176
 10
113.1172986913387
 20
-159.2061306025596
 10
113.2551025107487
 20
-157.9786430811651
 10
113.6375081096115
 20
-157.3685166707273
 10
114.5166964774472
 20
-155.9649847700366
 10
115.4454942202706
 20
-154.7888291713722
 10
115.4454942202706
 20
-154.7888291713722
 10
115.4454942202706
 20
-154.7888291713722
 10
114.3981851927546
 20
-155.130582643509
 10
113.2626817208163
 20
-155.8912597266522
 10
112.4785779883734
 20
-156.4162922786043
 10
111.5945664868583
 20
-157.2286457940262
 10
111.5945664868583
 20
-157.2286457940262
 10
111.5945664868583
 20
-157.2289903035747
 10
111.7309922680742
 20
-156.6243760459134
 10
112.0279594989027
 20
-156.2660861154474
 10
112.5474798980784
 20
-155.6390787371319
 10
113.2991997329599
 20
-155.1195583379562
 10
113.9461886650898
 20
-154.6861653259118
 10
115.1678195241594
 20
-153.8672661290679
 10
117.9666150963764
 20
-152.4372069931407
 10
118.9071261638496
 20
-151.3051486166876
 10
120.0874158770962
 20
-149.8854247672162
 10
120.9135497744591
 20
-148.3065375063262
 10
122.0380289408447
 20
-146.719037506723
 10
123.5394015533165
 20
-144.5992702546488
 10
126.4918483841757
 20
-142.3978542395741
 10
126.4918483841757
 20
-142.3978542395741
 10
126.4918483841757
 20
-142.3978542395741
 10
124.0885497736654
 20
-141.8686875730398
 10
118.1354247751537
 20
-143.5002847948541
 97
        0
 92
        1
 93
        1
 72
     4
 94
        3
 73
     0
 74
     1
 95
       17
 96
       13
 40
0.0
 40
0.0
 40
0.0
 40
0.0
 40
1.0
 40
1.0
 40
1.0
 40
2.0
 40
2.0
 40
2.0
 40
3.0
 40
3.0
 40
3.0
 40
4.0
 40
4.0
 40
4.0
 40
4.0
 10
99.3355387121453
 20
-163.8136013045327
 10
98.73333602132361
 20
-163.0198513047312
 10
98.86562768795721
 20
-162.4024901937744
 10
98.86562768795721
 20
-162.4024901937744
 10
98.86562768795721
 20
-162.4024901937744
 10
99.32106931110724
 20
-162.9171874592707
 10
99.77651093425726
 20
-163.3726290824207
 10
100.2657144931627
 20
-163.8618326413262
 10
100.9967637551328
 20
-164.3868651932783
 10
100.9967637551328
 20
-164.3868651932783
 10
100.9967637551328
 20
-164.3868651932783
 10
99.938430422064
 20
-164.6073513043343
 10
99.3355387121453
 20
-163.8136013045327
 97
        0
 92
        1
 93
        1
 72
     4
 94
        3
 73
     0
 74
     1
 95
       23
 96
       19
 40
0.0
 40
0.0
 40
0.0
 40
0.0
 40
1.0
 40
1.0
 40
1.0
 40
2.0
 40
2.0
 40
2.0
 40
3.0
 40
3.0
 40
3.0
 40
4.0
 40
4.0
 40
4.0
 40
5.0
 40
5.0
 40
5.0
 40
6.0
 40
6.0
 40
6.0
 40
6.0
 10
102.944620742493
 20
-175.3157416011364
 10
102.8708956991087
 20
-174.6098415362086
 10
102.9115478258346
 20
-174.3566270180428
 10
102.9115478258346
 20
-174.1140922958812
 10
102.9115478258346
 20
-173.8715575737196
 10
102.9887179647042
 20
-173.4746825738188
 10
102.9887179647042
 20
-173.4746825738188
 10
102.9887179647042
 20
-173.4746825738188
 10
103.1430582424434
 20
-173.7282416015332
 10
103.165106853549
 20
-174.2298475041856
 10
103.1864664455576
 20
-174.7145724389603
 10
103.1485703952198
 20
-174.9133544484592
 10
103.1595947007726
 20
-175.2551079205959
 10
103.1706190063254
 20
-175.5968613927327
 10
103.220228381313
 20
-175.8779811843291
 10
103.220228381313
 20
-175.8779811843291
 10
103.220228381313
 20
-175.8779811843291
 10
103.0107665758098
 20
-175.9496391704223
 10
102.944620742493
 20
-175.3157416011364
 97
        0
 92
        1
 93
        1
 72
     4
 94
        3
 73
     0
 74
     1
 95
       23
 96
       19
 40
0.0
 40
0.0
 40
0.0
 40
0.0
 40
1.0
 40
1.0
 40
1.0
 40
2.0
 40
2.0
 40
2.0
 40
3.0
 40
3.0
 40
3.0
 40
4.0
 40
4.0
 40
4.0
 40
5.0
 40
5.0
 40
5.0
 40
6.0
 40
6.0
 40
6.0
 40
6.0
 10
104.4583956987118
 20
-178.0725070084333
 10
104.4583956987118
 20
-178.0725070084333
 10
104.1497151432334
 20
-177.9398708322512
 10
103.9147596311394
 20
-177.6167208757347
 10
103.6791150999483
 20
-177.2935709192183
 10
103.3042887111531
 20
-176.8085014748951
 10
103.4296901868162
 20
-175.896929209498
 10
103.5337320704707
 20
-175.1341850690637
 10
104.0539414887435
 20
-174.5888264537486
 10
104.0539414887435
 20
-174.5888264537486
 10
104.0539414887435
 20
-174.5888264537486
 10
104.4659749087793
 20
-175.0149847652741
 10
104.516962321961
 20
-175.5221028207028
 10
104.5686387542398
 20
-176.0292208761316
 10
104.4728650997498
 20
-176.4557236972055
 10
104.4287678775386
 20
-176.9700764531533
 10
104.3846706553275
 20
-177.4844292091011
 10
104.4583956987118
 20
-178.0725070084333
 10
104.4583956987118
 20
-178.0725070084333
 97
        0
 92
        1
 93
        1
 72
     4
 94
        3
 73
     0
 74
     1
 95
       17
 96
       13
 40
0.0
 40
0.0
 40
0.0
 40
0.0
 40
1.0
 40
1.0
 40
1.0
 40
2.0
 40
2.0
 40
2.0
 40
3.0
 40
3.0
 40
3.0
 40
4.0
 40
4.0
 40
4.0
 40
4.0
 10
104.8022162281397
 20
-172.2620089630109
 10
104.7581190059285
 20
-172.9455159072845
 10
104.6478759504005
 20
-174.180238129198
 10
104.6478759504005
 20
-174.180238129198
 10
104.6478759504005
 20
-174.180238129198
 10
104.2737385807024
 20
-173.1325845921335
 10
104.3116346310401
 20
-172.1848388241413
 10
104.3447075476985
 20
-171.3525037549049
 10
104.7856797698105
 20
-170.911531532793
 10
104.7856797698105
 20
-170.911531532793
 10
104.7856797698105
 20
-170.911531532793
 10
104.8463134503509
 20
-171.5785020187373
 10
104.8022162281397
 20
-172.2620089630109
 97
        0
 92
        1
 93
        1
 72
     4
 94
        3
 73
     0
 74
     1
 95
       17
 96
       13
 40
0.0
 40
0.0
 40
0.0
 40
0.0
 40
1.0
 40
1.0
 40
1.0
 40
2.0
 40
2.0
 40
2.0
 40
3.0
 40
3.0
 40
3.0
 40
4.0
 40
4.0
 40
4.0
 40
4.0
 10
104.9079806595369
 20
-167.5122558174969
 10
104.9079806595369
 20
-167.5122558174969
 10
104.1583278819465
 20
-161.721050306792
 10
104.1583278819465
 20
-160.4570447732538
 10
104.1583278819465
 20
-159.1413628074369
 10
104.6141140146451
 20
-158.6638725731813
 10
104.9079806595369
 20
-157.6055392401125
 10
105.1064181594873
 20
-158.7224391964305
 10
105.6249050300174
 20
-159.4314398472949
 10
105.6249050300174
 20
-160.5042425814017
 10
105.6249050300174
 20
-161.4450981584235
 10
104.9079806595369
 20
-167.5122558174969
 10
104.9079806595369
 20
-167.5122558174969
 97
        0
 92
        1
 93
        1
 72
     4
 94
        3
 73
     0
 74
     1
 95
       17
 96
       13
 40
0.0
 40
0.0
 40
0.0
 40
0.0
 40
1.0
 40
1.0
 40
1.0
 40
2.0
 40
2.0
 40
2.0
 40
3.0
 40
3.0
 40
3.0
 40
4.0
 40
4.0
 40
4.0
 40
4.0
 10
105.1873779033907
 20
-172.2623534725594
 10
105.1432806811795
 20
-171.5788465282859
 10
105.2039143617199
 20
-170.9118760423415
 10
105.2039143617199
 20
-170.9118760423415
 10
105.2039143617199
 20
-170.9118760423415
 10
105.6448865838318
 20
-171.3528482644535
 10
105.6779595004902
 20
-172.1851833336898
 10
105.715855550828
 20
-173.1325845921335
 10
105.3417181811298
 20
-174.180238129198
 10
105.3417181811298
 20
-174.180238129198
 10
105.3417181811298
 20
-174.180238129198
 10
105.2314751256019
 20
-172.945860416833
 10
105.1873779033907
 20
-172.2623534725594
 97
        0
 92
        1
 93
        1
 72
     4
 94
        3
 73
     0
 74
     1
 95
       23
 96
       19
 40
0.0
 40
0.0
 40
0.0
 40
0.0
 40
1.0
 40
1.0
 40
1.0
 40
2.0
 40
2.0
 40
2.0
 40
3.0
 40
3.0
 40
3.0
 40
4.0
 40
4.0
 40
4.0
 40
5.0
 40
5.0
 40
5.0
 40
6.0
 40
6.0
 40
6.0
 40
6.0
 10
106.074834500391
 20
-177.6167208757347
 10
105.839878988297
 20
-177.9398708322512
 10
105.5311984328186
 20
-178.0725070084333
 10
105.5311984328186
 20
-178.0725070084333
 10
105.5311984328186
 20
-178.0725070084333
 10
105.6049234762029
 20
-177.4844292091011
 10
105.5608262539917
 20
-176.9700764531533
 10
105.5167290317805
 20
-176.4557236972055
 10
105.4209553772906
 20
-176.0292208761316
 10
105.4726318095694
 20
-175.5221028207028
 10
105.5236192227511
 20
-175.0149847652741
 10
105.9356526427869
 20
-174.5888264537486
 10
105.9356526427869
 20
-174.5888264537486
 10
105.9356526427869
 20
-174.5888264537486
 10
106.4558620610596
 20
-175.1341850690637
 10
106.5599039447142
 20
-175.896929209498
 10
106.6853054203773
 20
-176.8085014748951
 10
106.3104790315821
 20
-177.2935709192183
 10
106.074834500391
 20
-177.6167208757347
 97
        0
 92
        1
 93
        1
 72
     4
 94
        3
 73
     0
 74
     1
 95
       23
 96
       19
 40
0.0
 40
0.0
 40
0.0
 40
0.0
 40
1.0
 40
1.0
 40
1.0
 40
2.0
 40
2.0
 40
2.0
 40
3.0
 40
3.0
 40
3.0
 40
4.0
 40
4.0
 40
4.0
 40
5.0
 40
5.0
 40
5.0
 40
6.0
 40
6.0
 40
6.0
 40
6.0
 10
107.0449733890374
 20
-175.3157416011364
 10
106.9788275557206
 20
-175.9496391704223
 10
106.7693657502174
 20
-175.8779811843291
 10
106.7693657502174
 20
-175.8779811843291
 10
106.7693657502174
 20
-175.8779811843291
 10
106.818975125205
 20
-175.5968613927327
 10
106.8299994307578
 20
-175.2551079205959
 10
106.8410237363106
 20
-174.9133544484592
 10
106.8031276859728
 20
-174.7145724389603
 10
106.8244872779814
 20
-174.2298475041856
 10
106.846535889087
 20
-173.7285861110817
 10
107.0008761668262
 20
-173.4750270833674
 10
107.0008761668262
 20
-173.4750270833674
 10
107.0008761668262
 20
-173.4750270833674
 10
107.0780463056958
 20
-173.8719020832681
 10
107.0780463056958
 20
-174.1140922958812
 10
107.0780463056958
 20
-174.3566270180428
 10
107.1186984324217
 20
-174.6098415362086
 10
107.0449733890374
 20
-175.3157416011364
 97
        0
 92
        1
 93
        1
 72
     4
 94
        3
 73
     0
 74
     1
 95
       17
 96
       13
 40
0.0
 40
0.0
 40
0.0
 40
0.0
 40
1.0
 40
1.0
 40
1.0
 40
2.0
 40
2.0
 40
2.0
 40
3.0
 40
3.0
 40
3.0
 40
4.0
 40
4.0
 40
4.0
 40
4.0
 10
110.6540554193851
 20
-163.8142903236298
 10
110.0511637094664
 20
-164.6080403234313
 10
108.9928303763976
 20
-164.3875542123753
 10
108.9928303763976
 20
-164.3875542123753
 10
108.9928303763976
 20
-164.3875542123753
 10
109.7238796383676
 20
-163.8618326413262
 10
110.2130831972731
 20
-163.3733181015178
 10
110.6685248204232
 20
-162.9171874592707
 10
111.1239664435732
 20
-162.4031792128714
 10
111.1239664435732
 20
-162.4031792128714
 10
111.1239664435732
 20
-162.4031792128714
 10
111.2562581102068
 20
-163.0205403238282
 10
110.6540554193851
 20
-163.8142903236298
 97
        0
 75
     2
 76
     1
 98
        0
  0
ENDSEC
  0
SECTION
  2
OBJECTS
  0
DICTIONARY
  5
C
330
0
100
AcDbDictionary
281
     1
  3
ACAD_GROUP
350
D
  3
ACAD_LAYOUT
350
1A
  3
ACAD_MLINESTYLE
350
17
  3
ACAD_PLOTSETTINGS
350
19
  3
ACAD_PLOTSTYLENAME
350
E
  3
ACAD_TABLESTYLE
350
57
  3
ACAD_VISUALSTYLE
350
2A
  0
DICTIONARY
  5
D
102
{ACAD_REACTORS
330
C
102
}
330
C
100
AcDbDictionary
281
     1
  0
DICTIONARY
  5
1A
102
{ACAD_REACTORS
330
C
102
}
330
C
100
AcDbDictionary
281
     1
  3
Layout1
350
1E
  3
Layout2
350
26
  3
Model
350
22
  0
DICTIONARY
  5
17
102
{ACAD_REACTORS
330
C
102
}
330
C
100
AcDbDictionary
281
     1
  3
Standard
350
18
  0
DICTIONARY
  5
19
102
{ACAD_REACTORS
330
C
102
}
330
C
100
AcDbDictionary
281
     1
  0
ACDBDICTIONARYWDFLT
  5
E
102
{ACAD_REACTORS
330
C
102
}
330
C
100
AcDbDictionary
281
     1
  3
Normal
350
F
100
AcDbDictionaryWithDefault
340
F
  0
DICTIONARY
  5
57
102
{ACAD_REACTORS
330
C
102
}
330
C
100
AcDbDictionary
281
     1
  0
DICTIONARY
  5
2A
102
{ACAD_REACTORS
330
C
102
}
330
C
100
AcDbDictionary
281
     1
  3
2dWireframe
350
2F
  3
3D Hidden
350
31
  3
3dWireframe
350
30
  3
Basic
350
32
  3
Brighten
350
36
  3
ColorChange
350
3A
  3
Conceptual
350
34
  3
Dim
350
35
  3
Facepattern
350
39
  3
Flat
350
2B
  3
FlatWithEdges
350
2C
  3
Gouraud
350
2D
  3
GouraudWithEdges
350
2E
  3
Linepattern
350
38
  3
Realistic
350
33
  3
Thicken
350
37
  0
LAYOUT
  5
1E
102
{ACAD_REACTORS
330
1A
102
}
330
1A
100
AcDbPlotSettings
  1

  2
none_device
  4

  6

 40
0.0
 41
0.0
 42
0.0
 43
0.0
 44
0.0
 45
0.0
 46
0.0
 47
0.0
 48
0.0
 49
0.0
140
0.0
141
0.0
142
1.0
143
1.0
 70
   688
 72
     0
 73
     0
 74
     5
  7

 75
    16
 76
     0
 77
     2
 78
   300
147
1.0
148
0.0
149
0.0
100
AcDbLayout
  1
Layout1
 70
     1
 71
     1
 10
0.0
 20
0.0
 11
12.0
 21
9.0
 12
0.0
 22
0.0
 32
0.0
 14
1.000000000000000E+20
 24
1.000000000000000E+20
 34
1.000000000000000E+20
 15
-1.000000000000000E+20
 25
-1.000000000000000E+20
 35
-1.000000000000000E+20
146
0.0
 13
0.0
 23
0.0
 33
0.0
 16
1.0
 26
0.0
 36
0.0
 17
0.0
 27
1.0
 37
0.0
 76
     0
330
1B
  0
LAYOUT
  5
26
102
{ACAD_REACTORS
330
1A
102
}
330
1A
100
AcDbPlotSettings
  1

  2
none_device
  4

  6

 40
0.0
 41
0.0
 42
0.0
 43
0.0
 44
0.0
 45
0.0
 46
0.0
 47
0.0
 48
0.0
 49
0.0
140
0.0
141
0.0
142
1.0
143
1.0
 70
   688
 72
     0
 73
     0
 74
     5
  7

 75
    16
 76
     0
 77
     2
 78
   300
147
1.0
148
0.0
149
0.0
100
AcDbLayout
  1
Layout2
 70
     1
 71
     2
 10
0.0
 20
0.0
 11
0.0
 21
0.0
 12
0.0
 22
0.0
 32
0.0
 14
0.0
 24
0.0
 34
0.0
 15
0.0
 25
0.0
 35
0.0
146
0.0
 13
0.0
 23
0.0
 33
0.0
 16
1.0
 26
0.0
 36
0.0
 17
0.0
 27
1.0
 37
0.0
 76
     0
330
23
  0
LAYOUT
  5
22
102
{ACAD_REACTORS
330
1A
102
}
330
1A
100
AcDbPlotSettings
  1

  2
none_device
  4

  6

 40
0.0
 41
0.0
 42
0.0
 43
0.0
 44
0.0
 45
0.0
 46
0.0
 47
0.0
 48
0.0
 49
0.0
140
0.0
141
0.0
142
1.0
143
1.0
 70
  1712
 72
     0
 73
     0
 74
     0
  7

 75
     0
 76
     0
 77
     2
 78
   300
147
1.0
148
0.0
149
0.0
100
AcDbLayout
  1
Model
 70
     1
 71
     0
 10
0.0
 20
0.0
 11
12.0
 21
9.0
 12
0.0
 22
0.0
 32
0.0
 14
1.000000000000000E+20
 24
1.000000000000000E+20
 34
1.000000000000000E+20
 15
-1.000000000000000E+20
 25
-1.000000000000000E+20
 35
-1.000000000000000E+20
146
0.0
 13
0.0
 23
0.0
 33
0.0
 16
1.0
 26
0.0
 36
0.0
 17
0.0
 27
1.0
 37
0.0
 76
     0
330
1F
331
29
  0
MLINESTYLE
  5
18
102
{ACAD_REACTORS
330
17
102
}
330
17
100
AcDbMlineStyle
  2
Standard
 70
     0
  3

 62
   256
 51
90.0
 52
90.0
 71
     2
 49
0.5
 62
   256
  6
BYLAYER
 49
-0.5
 62
   256
  6
BYLAYER
  0
ACDBPLACEHOLDER
  5
F
102
{ACAD_REACTORS
330
E
102
}
330
E
  0
VISUALSTYLE
  5
2F
102
{ACAD_REACTORS
330
2A
102
}
330
2A
100
AcDbVisualStyle
  2
2dWireframe
 70
     4
 71
     0
 72
     2
 73
     0
 90
        0
 40
-0.6
 41
-30.0
 62
     5
 63
     7
421
 16777215
 74
     1
 91
        4
 64
     7
 65
   257
 75
     1
175
     1
 42
1.0
 92
        0
 66
   257
 43
1.0
 76
     1
 77
     6
 78
     2
 67
     7
 79
     5
170
     0
171
     0
290
     0
174
     0
 93
        1
 44
0.0
173
     0
291
     0
 45
0.0
1001
ACAD
1000
AcDbSavedByObjectVersion
1070
     0
  0
VISUALSTYLE
  5
31
102
{ACAD_REACTORS
330
2A
102
}
330
2A
100
AcDbVisualStyle
  2
3D Hidden
 70
     6
 71
     1
 72
     2
 73
     2
 90
        0
 40
-0.6
 41
-30.0
 62
     5
 63
     7
421
 16777215
 74
     2
 91
        2
 64
     7
 65
   257
 75
     2
175
     1
 42
40.0
 92
        0
 66
   257
 43
1.0
 76
     1
 77
     6
 78
     2
 67
     7
 79
     3
170
     0
171
     0
290
     0
174
     0
 93
        1
 44
0.0
173
     0
291
     0
 45
0.0
1001
ACAD
1000
AcDbSavedByObjectVersion
1070
     0
  0
VISUALSTYLE
  5
30
102
{ACAD_REACTORS
330
2A
102
}
330
2A
100
AcDbVisualStyle
  2
3dWireframe
 70
     5
 71
     0
 72
     2
 73
     0
 90
        0
 40
-0.6
 41
-30.0
 62
     5
 63
     7
421
 16777215
 74
     1
 91
        4
 64
     7
 65
   257
 75
     1
175
     1
 42
1.0
 92
        0
 66
   257
 43
1.0
 76
     1
 77
     6
 78
     2
 67
     7
 79
     5
170
     0
171
     0
290
     0
174
     0
 93
        1
 44
0.0
173
     0
291
     0
 45
0.0
1001
ACAD
1000
AcDbSavedByObjectVersion
1070
     0
  0
VISUALSTYLE
  5
32
102
{ACAD_REACTORS
330
2A
102
}
330
2A
100
AcDbVisualStyle
  2
Basic
 70
     7
 71
     1
 72
     0
 73
     1
 90
        0
 40
-0.6
 41
-30.0
 62
     5
 63
     7
421
 16777215
 74
     0
 91
        4
 64
     7
 65
   257
 75
     1
175
     1
 42
1.0
 92
        8
 66
     7
 43
1.0
 76
     1
 77
     6
 78
     2
 67
     7
 79
     5
170
     0
171
     0
290
     0
174
     0
 93
        1
 44
0.0
173
     0
291
     1
 45
0.0
1001
ACAD
1000
AcDbSavedByObjectVersion
1070
     0
  0
VISUALSTYLE
  5
36
102
{ACAD_REACTORS
330
2A
102
}
330
2A
100
AcDbVisualStyle
  2
Brighten
 70
    12
 71
     2
 72
     2
 73
     0
 90
        0
 40
-0.6
 41
-30.0
 62
     5
 63
     7
421
 16777215
 74
     1
 91
        4
 64
     7
 65
   257
 75
     1
175
     1
 42
1.0
 92
        8
 66
     7
 43
1.0
 76
     1
 77
     6
 78
     2
 67
     7
 79
     5
170
     0
171
     0
290
     0
174
     0
 93
        1
 44
50.0
173
     0
291
     1
 45
0.0
1001
ACAD
1000
AcDbSavedByObjectVersion
1070
     0
  0
VISUALSTYLE
  5
3A
102
{ACAD_REACTORS
330
2A
102
}
330
2A
100
AcDbVisualStyle
  2
ColorChange
 70
    16
 71
     2
 72
     2
 73
     3
 90
        0
 40
-0.6
 41
-30.0
 62
     5
 63
     8
421
  8421504
 74
     1
 91
        4
 64
     7
 65
   257
 75
     1
175
     1
 42
1.0
 92
        8
 66
     8
424
  8421504
 43
1.0
 76
     1
 77
     6
 78
     2
 67
     7
 79
     5
170
     0
171
     0
290
     0
174
     0
 93
        1
 44
0.0
173
     0
291
     1
 45
0.0
1001
ACAD
1000
AcDbSavedByObjectVersion
1070
     0
  0
VISUALSTYLE
  5
34
102
{ACAD_REACTORS
330
2A
102
}
330
2A
100
AcDbVisualStyle
  2
Conceptual
 70
     9
 71
     3
 72
     2
 73
     0
 90
        0
 40
-0.6
 41
-30.0
 62
     5
 63
     7
421
 16777215
 74
     2
 91
        2
 64
     7
 65
   257
 75
     1
175
     1
 42
40.0
 92
        8
 66
     7
 43
1.0
 76
     1
 77
     6
 78
     2
 67
     7
 79
     3
170
     0
171
     0
290
     0
174
     0
 93
        1
 44
0.0
173
     0
291
     0
 45
0.0
1001
ACAD
1000
AcDbSavedByObjectVersion
1070
     0
  0
VISUALSTYLE
  5
35
102
{ACAD_REACTORS
330
2A
102
}
330
2A
100
AcDbVisualStyle
  2
Dim
 70
    11
 71
     2
 72
     2
 73
     0
 90
        0
 40
-0.6
 41
-30.0
 62
     5
 63
     7
421
 16777215
 74
     1
 91
        4
 64
     7
 65
   257
 75
     1
175
     1
 42
1.0
 92
        8
 66
     7
 43
1.0
 76
     1
 77
     6
 78
     2
 67
     7
 79
     5
170
     0
171
     0
290
     0
174
     0
 93
        1
 44
-50.0
173
     0
291
     1
 45
0.0
1001
ACAD
1000
AcDbSavedByObjectVersion
1070
     0
  0
VISUALSTYLE
  5
39
102
{ACAD_REACTORS
330
2A
102
}
330
2A
100
AcDbVisualStyle
  2
Facepattern
 70
    15
 71
     2
 72
     2
 73
     0
 90
        0
 40
-0.6
 41
-30.0
 62
     5
 63
     7
421
 16777215
 74
     1
 91
        4
 64
     7
 65
   257
 75
     1
175
     1
 42
1.0
 92
        8
 66
     7
 43
1.0
 76
     1
 77
     6
 78
     2
 67
     7
 79
     5
170
     0
171
     0
290
     0
174
     0
 93
        1
 44
0.0
173
     0
291
     1
 45
0.0
1001
ACAD
1000
AcDbSavedByObjectVersion
1070
     0
  0
VISUALSTYLE
  5
2B
102
{ACAD_REACTORS
330
2A
102
}
330
2A
100
AcDbVisualStyle
  2
Flat
 70
     0
 71
     2
 72
     1
 73
     1
 90
        2
 40
-0.6
 41
30.0
 62
     5
 63
     7
421
 16777215
 74
     0
 91
        4
 64
     7
 65
   257
 75
     1
175
     1
 42
1.0
 92
        8
 66
     7
 43
1.0
 76
     1
 77
     6
 78
     2
 67
     7
 79
     5
170
     0
171
     0
290
     0
174
     0
 93
       13
 44
0.0
173
     0
291
     1
 45
0.0
1001
ACAD
1000
AcDbSavedByObjectVersion
1070
     0
  0
VISUALSTYLE
  5
2C
102
{ACAD_REACTORS
330
2A
102
}
330
2A
100
AcDbVisualStyle
  2
FlatWithEdges
 70
     1
 71
     2
 72
     1
 73
     1
 90
        2
 40
-0.6
 41
30.0
 62
     5
 63
     7
421
 16777215
 74
     1
 91
        4
 64
     7
 65
   257
 75
     1
175
     1
 42
1.0
 92
        0
 66
   257
 43
1.0
 76
     1
 77
     6
 78
     2
 67
     7
 79
     5
170
     0
171
     0
290
     0
174
     0
 93
       13
 44
0.0
173
     0
291
     1
 45
0.0
1001
ACAD
1000
AcDbSavedByObjectVersion
1070
     0
  0
VISUALSTYLE
  5
2D
102
{ACAD_REACTORS
330
2A
102
}
330
2A
100
AcDbVisualStyle
  2
Gouraud
 70
     2
 71
     2
 72
     2
 73
     1
 90
        2
 40
-0.6
 41
30.0
 62
     5
 63
     7
421
 16777215
 74
     0
 91
        4
 64
     7
 65
   257
 75
     1
175
     1
 42
1.0
 92
        0
 66
     7
 43
1.0
 76
     1
 77
     6
 78
     2
 67
     7
 79
     5
170
     0
171
     0
290
     0
174
     0
 93
       13
 44
0.0
173
     0
291
     1
 45
0.0
1001
ACAD
1000
AcDbSavedByObjectVersion
1070
     0
  0
VISUALSTYLE
  5
2E
102
{ACAD_REACTORS
330
2A
102
}
330
2A
100
AcDbVisualStyle
  2
GouraudWithEdges
 70
     3
 71
     2
 72
     2
 73
     1
 90
        2
 40
-0.6
 41
30.0
 62
     5
 63
     7
421
 16777215
 74
     1
 91
        4
 64
     7
 65
   257
 75
     1
175
     1
 42
1.0
 92
        0
 66
   257
 43
1.0
 76
     1
 77
     6
 78
     2
 67
     7
 79
     5
170
     0
171
     0
290
     0
174
     0
 93
       13
 44
0.0
173
     0
291
     1
 45
0.0
1001
ACAD
1000
AcDbSavedByObjectVersion
1070
     0
  0
VISUALSTYLE
  5
38
102
{ACAD_REACTORS
330
2A
102
}
330
2A
100
AcDbVisualStyle
  2
Linepattern
 70
    14
 71
     2
 72
     2
 73
     0
 90
        0
 40
-0.6
 41
-30.0
 62
     5
 63
     7
421
 16777215
 74
     1
 91
        4
 64
     7
 65
   257
 75
     7
175
     7
 42
1.0
 92
        8
 66
     7
 43
1.0
 76
     1
 77
     6
 78
     2
 67
     7
 79
     5
170
     0
171
     0
290
     0
174
     0
 93
        1
 44
0.0
173
     0
291
     1
 45
0.0
1001
ACAD
1000
AcDbSavedByObjectVersion
1070
     0
  0
VISUALSTYLE
  5
33
102
{ACAD_REACTORS
330
2A
102
}
330
2A
100
AcDbVisualStyle
  2
Realistic
 70
     8
 71
     2
 72
     2
 73
     0
 90
        0
 40
-0.6
 41
-30.0
 62
     5
 63
     7
421
 16777215
 74
     1
 91
        0
 64
     7
 65
   257
 75
     1
175
     1
 42
1.0
 92
        8
 66
     8
424
  7895160
 43
1.0
 76
     1
 77
     6
 78
     2
 67
     7
 79
     5
170
     0
171
     0
290
     0
174
     0
 93
       13
 44
0.0
173
     0
291
     0
 45
0.0
1001
ACAD
1000
AcDbSavedByObjectVersion
1070
     0
  0
VISUALSTYLE
  5
37
102
{ACAD_REACTORS
330
2A
102
}
330
2A
100
AcDbVisualStyle
  2
Thicken
 70
    13
 71
     2
 72
     2
 73
     0
 90
        0
 40
-0.6
 41
-30.0
 62
     5
 63
     7
421
 16777215
 74
     1
 91
        4
 64
     7
 65
   257
 75
     1
175
     1
 42
1.0
 92
       12
 66
     7
 43
1.0
 76
     1
 77
     6
 78
     2
 67
     7
 79
     5
170
     0
171
     0
290
     0
174
     0
 93
        1
 44
0.0
173
     0
291
     1
 45
0.0
1001
ACAD
1000
AcDbSavedByObjectVersion
1070
     0
  0
ENDSEC
  0
EOF
